SplineFontDB: 3.2
FontName: tiny5
FullName: tiny5
FamilyName: tiny5
Weight: Medium
Copyright: Copyright 2024 The tiny5 Project Authors (https://github.com/Gissio/font_tiny5)
Version: 1.001
ItalicAngle: 0
UnderlinePosition: -128
UnderlineWidth: 128
Ascent: 768
Descent: 256
InvalidEm: 0
sfntRevision: 0x00010042
LayerCount: 2
Layer: 0 1 "Atr+AOEA-s" 1
Layer: 1 1 "Fore" 0
XUID: [1021 435 22966 2595]
StyleMap: 0x0040
FSType: 0
OS2Version: 5
OS2_WeightWidthSlopeOnly: 0
OS2_UseTypoMetrics: 1
CreationTime: 1704872993
ModificationTime: 1704953197
PfmFamily: 17
TTFWeight: 500
TTFWidth: 5
LineGap: 0
VLineGap: 0
Panose: 2 0 0 0 0 0 0 0 0 0
OS2TypoAscent: 896
OS2TypoAOffset: 0
OS2TypoDescent: -256
OS2TypoDOffset: 0
OS2TypoLinegap: 0
OS2WinAscent: 896
OS2WinAOffset: 0
OS2WinDescent: 256
OS2WinDOffset: 0
HheadAscent: 896
HheadAOffset: 0
HheadDescent: -256
HheadDOffset: 0
OS2SubXSize: 1024
OS2SubYSize: 1024
OS2SubXOff: 0
OS2SubYOff: 512
OS2SupXSize: 1024
OS2SupYSize: 1024
OS2SupXOff: 0
OS2SupYOff: 512
OS2StrikeYSize: 128
OS2StrikeYPos: 384
OS2CapHeight: 640
OS2XHeight: 512
OS2Vendor: 'KBnP'
OS2CodePages: 00000000.00000000
OS2UnicodeRanges: a10000ff.0000207b.00000000.00000000
Lookup: 260 0 0 "'mark' Posicionamiento de marca b+APoA-squeda 0" { "'mark' Posicionamiento de marca b+APoA-squeda 0-1"  } ['mark' ('DFLT' <'dflt' > 'grek' <'dflt' > 'latn' <'dflt' > ) ]
MarkAttachClasses: 1
DEI: 91125
ShortTable: maxp 16
  1
  0
  900
  40
  9
  0
  0
  2
  0
  0
  0
  0
  0
  0
  0
  0
EndShort
LangName: 1033 "" "" "" "BitsNPicas: tiny5: 2024" "" "1.001" "" "" "Made with Bits'n'Picas by Kreative Software" "Stefan Schmidt" "" "http://www.kreativekorp.com/software/bitsnpicas/" "https://github.com/Gissio/font_tiny5" "This Font Software is licensed under the SIL Open Font License, Version 1.1. This license is available with a FAQ at: https://scripts.sil.org/OFL" "https://scripts.sil.org/OFL" "" "tiny5" "Medium" "tiny5 Medium" "" "" "tiny5" "Medium"
Encoding: UnicodeBmp
UnicodeInterp: none

StartChar: .notdef
Encoding: 65536 -1 0
Width: 768
GlyphClass: 1
Flags: W
LayerCount: 2
Fore
SplineSet
0 0 m 1,0,-1
 0 640 l 1,1,-1
 640 640 l 1,2,-1
 640 0 l 1,3,-1
 0 0 l 1,0,-1
384 128 m 1,4,-1
 512 128 l 1,5,-1
 512 256 l 1,6,-1
 384 256 l 1,7,-1
 384 384 l 1,8,-1
 512 384 l 1,9,-1
 512 512 l 1,10,-1
 384 512 l 1,11,-1
 384 384 l 1,12,-1
 256 384 l 1,13,-1
 256 512 l 1,14,-1
 128 512 l 1,15,-1
 128 384 l 1,16,-1
 256 384 l 1,17,-1
 256 256 l 1,18,-1
 128 256 l 1,19,-1
 128 128 l 1,20,-1
 256 128 l 1,21,-1
 256 256 l 1,22,-1
 384 256 l 1,23,-1
 384 128 l 1,4,-1
EndSplineSet
EndChar

StartChar: exclam
Encoding: 33 33 4
Width: 256
GlyphClass: 1
Flags: W
LayerCount: 2
Fore
SplineSet
0 0 m 1,0,-1
 0 128 l 1,1,-1
 128 128 l 1,2,-1
 128 0 l 1,3,-1
 0 0 l 1,0,-1
128 256 m 1,4,-1
 0 256 l 1,5,-1
 0 640 l 1,6,-1
 128 640 l 1,7,-1
 128 256 l 1,4,-1
EndSplineSet
EndChar

StartChar: quotedbl
Encoding: 34 34 5
Width: 512
GlyphClass: 1
Flags: W
LayerCount: 2
Fore
SplineSet
128 384 m 1,0,-1
 0 384 l 1,1,-1
 0 640 l 1,2,-1
 128 640 l 1,3,-1
 128 384 l 1,0,-1
384 384 m 1,4,-1
 256 384 l 1,5,-1
 256 640 l 1,6,-1
 384 640 l 1,7,-1
 384 384 l 1,4,-1
EndSplineSet
EndChar

StartChar: numbersign
Encoding: 35 35 6
Width: 768
GlyphClass: 1
Flags: W
LayerCount: 2
Fore
SplineSet
384 128 m 1,0,-1
 256 128 l 1,1,-1
 256 0 l 1,2,-1
 128 0 l 1,3,-1
 128 128 l 1,4,-1
 0 128 l 1,5,-1
 0 256 l 1,6,-1
 128 256 l 1,7,-1
 128 384 l 1,8,-1
 0 384 l 1,9,-1
 0 512 l 1,10,-1
 128 512 l 1,11,-1
 128 640 l 1,12,-1
 256 640 l 1,13,-1
 256 512 l 1,14,-1
 384 512 l 1,15,-1
 384 640 l 1,16,-1
 512 640 l 1,17,-1
 512 512 l 1,18,-1
 640 512 l 1,19,-1
 640 384 l 1,20,-1
 512 384 l 1,21,-1
 512 256 l 1,22,-1
 640 256 l 1,23,-1
 640 128 l 1,24,-1
 512 128 l 1,25,-1
 512 0 l 1,26,-1
 384 0 l 1,27,-1
 384 128 l 1,0,-1
384 384 m 1,28,-1
 256 384 l 1,29,-1
 256 256 l 1,30,-1
 384 256 l 1,31,-1
 384 384 l 1,28,-1
EndSplineSet
EndChar

StartChar: dollar
Encoding: 36 36 7
Width: 512
GlyphClass: 1
Flags: W
LayerCount: 2
Fore
SplineSet
256 128 m 1,0,-1
 256 -128 l 1,1,-1
 128 -128 l 1,2,-1
 128 0 l 1,3,-1
 0 0 l 1,4,-1
 0 128 l 1,5,-1
 256 128 l 1,0,-1
384 128 m 1,6,-1
 256 128 l 1,7,-1
 256 256 l 1,8,-1
 384 256 l 1,9,-1
 384 128 l 1,6,-1
256 384 m 1,10,-1
 256 256 l 1,11,-1
 0 256 l 1,12,-1
 0 384 l 1,13,-1
 128 384 l 1,14,-1
 128 640 l 1,15,-1
 256 640 l 1,16,-1
 256 512 l 1,17,-1
 384 512 l 1,18,-1
 384 384 l 1,19,-1
 256 384 l 1,10,-1
EndSplineSet
EndChar

StartChar: percent
Encoding: 37 37 8
Width: 640
GlyphClass: 1
Flags: W
LayerCount: 2
Fore
SplineSet
0 128 m 1,0,-1
 0 256 l 1,1,-1
 128 256 l 1,2,-1
 128 128 l 1,3,-1
 0 128 l 1,0,-1
384 128 m 1,4,-1
 384 256 l 1,5,-1
 512 256 l 1,6,-1
 512 128 l 1,7,-1
 384 128 l 1,4,-1
256 384 m 1,8,-1
 256 256 l 1,9,-1
 128 256 l 1,10,-1
 128 384 l 1,11,-1
 256 384 l 1,8,-1
384 384 m 1,12,-1
 256 384 l 1,13,-1
 256 512 l 1,14,-1
 384 512 l 1,15,-1
 384 384 l 1,12,-1
0 512 m 1,16,-1
 0 640 l 1,17,-1
 128 640 l 1,18,-1
 128 512 l 1,19,-1
 0 512 l 1,16,-1
384 512 m 1,20,-1
 384 640 l 1,21,-1
 512 640 l 1,22,-1
 512 512 l 1,23,-1
 384 512 l 1,20,-1
EndSplineSet
EndChar

StartChar: ampersand
Encoding: 38 38 9
Width: 640
GlyphClass: 1
Flags: W
LayerCount: 2
Fore
SplineSet
0 128 m 1,0,-1
 0 256 l 1,1,-1
 128 256 l 1,2,-1
 128 128 l 1,3,-1
 0 128 l 1,0,-1
128 128 m 1,4,-1
 256 128 l 1,5,-1
 256 0 l 1,6,-1
 128 0 l 1,7,-1
 128 128 l 1,4,-1
256 128 m 1,8,-1
 256 256 l 1,9,-1
 384 256 l 1,10,-1
 384 128 l 1,11,-1
 256 128 l 1,8,-1
384 128 m 1,12,-1
 512 128 l 1,13,-1
 512 0 l 1,14,-1
 384 0 l 1,15,-1
 384 128 l 1,12,-1
0 384 m 1,16,-1
 0 512 l 1,17,-1
 128 512 l 1,18,-1
 128 384 l 1,19,-1
 0 384 l 1,16,-1
128 384 m 1,20,-1
 256 384 l 1,21,-1
 256 256 l 1,22,-1
 128 256 l 1,23,-1
 128 384 l 1,20,-1
256 384 m 1,24,-1
 256 512 l 1,25,-1
 384 512 l 1,26,-1
 384 384 l 1,27,-1
 256 384 l 1,24,-1
128 512 m 1,28,-1
 128 640 l 1,29,-1
 256 640 l 1,30,-1
 256 512 l 1,31,-1
 128 512 l 1,28,-1
EndSplineSet
EndChar

StartChar: quotesingle
Encoding: 39 39 10
Width: 256
GlyphClass: 1
Flags: W
LayerCount: 2
Fore
SplineSet
128 384 m 1,0,-1
 0 384 l 1,1,-1
 0 640 l 1,2,-1
 128 640 l 1,3,-1
 128 384 l 1,0,-1
EndSplineSet
EndChar

StartChar: parenleft
Encoding: 40 40 11
Width: 384
GlyphClass: 1
Flags: W
LayerCount: 2
Fore
SplineSet
128 128 m 1,0,-1
 0 128 l 1,1,-1
 0 512 l 1,2,-1
 128 512 l 1,3,-1
 128 128 l 1,0,-1
128 0 m 1,4,-1
 128 128 l 1,5,-1
 256 128 l 1,6,-1
 256 0 l 1,7,-1
 128 0 l 1,4,-1
128 512 m 1,8,-1
 128 640 l 1,9,-1
 256 640 l 1,10,-1
 256 512 l 1,11,-1
 128 512 l 1,8,-1
EndSplineSet
EndChar

StartChar: parenright
Encoding: 41 41 12
Width: 384
GlyphClass: 1
Flags: W
LayerCount: 2
Fore
SplineSet
128 128 m 1,0,-1
 128 0 l 1,1,-1
 0 0 l 1,2,-1
 0 128 l 1,3,-1
 128 128 l 1,0,-1
256 128 m 1,4,-1
 128 128 l 1,5,-1
 128 512 l 1,6,-1
 256 512 l 1,7,-1
 256 128 l 1,4,-1
0 512 m 1,8,-1
 0 640 l 1,9,-1
 128 640 l 1,10,-1
 128 512 l 1,11,-1
 0 512 l 1,8,-1
EndSplineSet
EndChar

StartChar: asterisk
Encoding: 42 42 13
Width: 512
GlyphClass: 1
Flags: W
LayerCount: 2
Fore
SplineSet
0 128 m 1,0,-1
 0 256 l 1,1,-1
 128 256 l 1,2,-1
 128 128 l 1,3,-1
 0 128 l 1,0,-1
256 128 m 1,4,-1
 256 256 l 1,5,-1
 384 256 l 1,6,-1
 384 128 l 1,7,-1
 256 128 l 1,4,-1
0 384 m 1,8,-1
 0 512 l 1,9,-1
 128 512 l 1,10,-1
 128 640 l 1,11,-1
 256 640 l 1,12,-1
 256 512 l 1,13,-1
 384 512 l 1,14,-1
 384 384 l 1,15,-1
 256 384 l 1,16,-1
 256 256 l 1,17,-1
 128 256 l 1,18,-1
 128 384 l 1,19,-1
 0 384 l 1,8,-1
EndSplineSet
EndChar

StartChar: plus
Encoding: 43 43 14
Width: 512
GlyphClass: 1
Flags: W
LayerCount: 2
Fore
SplineSet
128 128 m 1,0,-1
 128 256 l 1,1,-1
 0 256 l 1,2,-1
 0 384 l 1,3,-1
 128 384 l 1,4,-1
 128 512 l 1,5,-1
 256 512 l 1,6,-1
 256 384 l 1,7,-1
 384 384 l 1,8,-1
 384 256 l 1,9,-1
 256 256 l 1,10,-1
 256 128 l 1,11,-1
 128 128 l 1,0,-1
EndSplineSet
EndChar

StartChar: comma
Encoding: 44 44 15
Width: 384
GlyphClass: 1
Flags: W
LayerCount: 2
Fore
SplineSet
128 0 m 1,0,-1
 128 128 l 1,1,-1
 256 128 l 1,2,-1
 256 0 l 1,3,-1
 128 0 l 1,0,-1
0 -128 m 1,4,-1
 0 0 l 1,5,-1
 128 0 l 1,6,-1
 128 -128 l 1,7,-1
 0 -128 l 1,4,-1
EndSplineSet
EndChar

StartChar: hyphen
Encoding: 45 45 16
Width: 512
GlyphClass: 1
Flags: W
LayerCount: 2
Fore
SplineSet
0 256 m 5,0,-1
 0 384 l 1,1,-1
 384 384 l 1,2,-1
 384 256 l 5,3,-1
 0 256 l 5,0,-1
EndSplineSet
EndChar

StartChar: period
Encoding: 46 46 17
Width: 256
GlyphClass: 1
Flags: W
LayerCount: 2
Fore
SplineSet
0 0 m 1,0,-1
 0 128 l 1,1,-1
 128 128 l 1,2,-1
 128 0 l 1,3,-1
 0 0 l 1,0,-1
EndSplineSet
EndChar

StartChar: slash
Encoding: 47 47 18
Width: 384
GlyphClass: 1
Flags: W
LayerCount: 2
Fore
SplineSet
128 0 m 1,0,-1
 0 0 l 1,1,-1
 0 384 l 1,2,-1
 128 384 l 1,3,-1
 128 0 l 1,0,-1
128 384 m 1,4,-1
 128 640 l 1,5,-1
 256 640 l 1,6,-1
 256 384 l 1,7,-1
 128 384 l 1,4,-1
EndSplineSet
EndChar

StartChar: zero
Encoding: 48 48 19
Width: 512
GlyphClass: 1
Flags: W
LayerCount: 2
Fore
SplineSet
128 128 m 1,0,-1
 0 128 l 1,1,-1
 0 512 l 1,2,-1
 128 512 l 1,3,-1
 128 128 l 1,0,-1
256 128 m 1,4,-1
 256 0 l 1,5,-1
 128 0 l 1,6,-1
 128 128 l 1,7,-1
 256 128 l 1,4,-1
384 128 m 1,8,-1
 256 128 l 1,9,-1
 256 512 l 1,10,-1
 384 512 l 1,11,-1
 384 128 l 1,8,-1
128 512 m 1,12,-1
 128 640 l 1,13,-1
 256 640 l 1,14,-1
 256 512 l 1,15,-1
 128 512 l 1,12,-1
EndSplineSet
EndChar

StartChar: one
Encoding: 49 49 20
Width: 512
GlyphClass: 1
Flags: W
LayerCount: 2
Fore
SplineSet
256 0 m 1,0,-1
 128 0 l 1,1,-1
 128 384 l 1,2,-1
 0 384 l 1,3,-1
 0 512 l 1,4,-1
 128 512 l 1,5,-1
 128 640 l 1,6,-1
 256 640 l 1,7,-1
 256 0 l 1,0,-1
EndSplineSet
EndChar

StartChar: two
Encoding: 50 50 21
Width: 512
GlyphClass: 1
Flags: W
LayerCount: 2
Fore
SplineSet
384 128 m 1,0,-1
 384 0 l 1,1,-1
 0 0 l 1,2,-1
 0 256 l 1,3,-1
 128 256 l 1,4,-1
 128 128 l 1,5,-1
 384 128 l 1,0,-1
256 384 m 1,6,-1
 256 256 l 1,7,-1
 128 256 l 1,8,-1
 128 384 l 1,9,-1
 256 384 l 1,6,-1
384 384 m 1,10,-1
 256 384 l 1,11,-1
 256 512 l 1,12,-1
 384 512 l 1,13,-1
 384 384 l 1,10,-1
0 512 m 1,14,-1
 0 640 l 1,15,-1
 256 640 l 1,16,-1
 256 512 l 1,17,-1
 0 512 l 1,14,-1
EndSplineSet
EndChar

StartChar: three
Encoding: 51 51 22
Width: 512
GlyphClass: 1
Flags: W
LayerCount: 2
Fore
SplineSet
256 128 m 1,0,-1
 256 0 l 1,1,-1
 0 0 l 1,2,-1
 0 128 l 1,3,-1
 256 128 l 1,0,-1
384 128 m 1,4,-1
 256 128 l 1,5,-1
 256 256 l 1,6,-1
 384 256 l 1,7,-1
 384 128 l 1,4,-1
256 384 m 1,8,-1
 256 256 l 1,9,-1
 128 256 l 1,10,-1
 128 384 l 1,11,-1
 256 384 l 1,8,-1
384 384 m 1,12,-1
 256 384 l 1,13,-1
 256 512 l 1,14,-1
 384 512 l 1,15,-1
 384 384 l 1,12,-1
0 512 m 1,16,-1
 0 640 l 1,17,-1
 256 640 l 1,18,-1
 256 512 l 1,19,-1
 0 512 l 1,16,-1
EndSplineSet
EndChar

StartChar: four
Encoding: 52 52 23
Width: 512
GlyphClass: 1
Flags: W
LayerCount: 2
Fore
SplineSet
256 0 m 1,0,-1
 256 128 l 1,1,-1
 0 128 l 1,2,-1
 0 384 l 1,3,-1
 128 384 l 1,4,-1
 128 256 l 1,5,-1
 256 256 l 1,6,-1
 256 384 l 1,7,-1
 128 384 l 1,8,-1
 128 512 l 1,9,-1
 256 512 l 1,10,-1
 256 640 l 1,11,-1
 384 640 l 1,12,-1
 384 0 l 1,13,-1
 256 0 l 1,0,-1
EndSplineSet
EndChar

StartChar: five
Encoding: 53 53 24
Width: 512
GlyphClass: 1
Flags: W
LayerCount: 2
Fore
SplineSet
256 128 m 1,0,-1
 256 0 l 1,1,-1
 0 0 l 1,2,-1
 0 128 l 1,3,-1
 256 128 l 1,0,-1
384 128 m 1,4,-1
 256 128 l 1,5,-1
 256 256 l 1,6,-1
 384 256 l 1,7,-1
 384 128 l 1,4,-1
128 384 m 1,8,-1
 256 384 l 1,9,-1
 256 256 l 1,10,-1
 0 256 l 1,11,-1
 0 640 l 1,12,-1
 384 640 l 1,13,-1
 384 512 l 1,14,-1
 128 512 l 1,15,-1
 128 384 l 1,8,-1
EndSplineSet
EndChar

StartChar: six
Encoding: 54 54 25
Width: 512
GlyphClass: 1
Flags: W
LayerCount: 2
Fore
SplineSet
128 128 m 1,0,-1
 0 128 l 1,1,-1
 0 512 l 1,2,-1
 128 512 l 1,3,-1
 128 384 l 1,4,-1
 256 384 l 1,5,-1
 256 256 l 1,6,-1
 128 256 l 1,7,-1
 128 128 l 1,0,-1
256 128 m 1,8,-1
 256 0 l 1,9,-1
 128 0 l 1,10,-1
 128 128 l 1,11,-1
 256 128 l 1,8,-1
384 128 m 1,12,-1
 256 128 l 1,13,-1
 256 256 l 1,14,-1
 384 256 l 1,15,-1
 384 128 l 1,12,-1
128 512 m 1,16,-1
 128 640 l 1,17,-1
 384 640 l 1,18,-1
 384 512 l 1,19,-1
 128 512 l 1,16,-1
EndSplineSet
EndChar

StartChar: seven
Encoding: 55 55 26
Width: 512
GlyphClass: 1
Flags: W
LayerCount: 2
Fore
SplineSet
256 0 m 1,0,-1
 128 0 l 1,1,-1
 128 384 l 1,2,-1
 256 384 l 1,3,-1
 256 0 l 1,0,-1
256 384 m 1,4,-1
 256 512 l 1,5,-1
 0 512 l 1,6,-1
 0 640 l 1,7,-1
 384 640 l 1,8,-1
 384 384 l 1,9,-1
 256 384 l 1,4,-1
EndSplineSet
EndChar

StartChar: eight
Encoding: 56 56 27
Width: 512
GlyphClass: 1
Flags: W
LayerCount: 2
Fore
SplineSet
0 128 m 1,0,-1
 0 256 l 1,1,-1
 128 256 l 1,2,-1
 128 128 l 1,3,-1
 0 128 l 1,0,-1
128 128 m 1,4,-1
 256 128 l 1,5,-1
 256 0 l 1,6,-1
 128 0 l 1,7,-1
 128 128 l 1,4,-1
256 128 m 1,8,-1
 256 256 l 1,9,-1
 384 256 l 1,10,-1
 384 128 l 1,11,-1
 256 128 l 1,8,-1
0 384 m 1,12,-1
 0 512 l 1,13,-1
 128 512 l 1,14,-1
 128 384 l 1,15,-1
 0 384 l 1,12,-1
128 384 m 1,16,-1
 256 384 l 1,17,-1
 256 256 l 1,18,-1
 128 256 l 1,19,-1
 128 384 l 1,16,-1
256 384 m 1,20,-1
 256 512 l 1,21,-1
 384 512 l 1,22,-1
 384 384 l 1,23,-1
 256 384 l 1,20,-1
128 512 m 1,24,-1
 128 640 l 1,25,-1
 256 640 l 1,26,-1
 256 512 l 1,27,-1
 128 512 l 1,24,-1
EndSplineSet
EndChar

StartChar: nine
Encoding: 57 57 28
Width: 512
GlyphClass: 1
Flags: W
LayerCount: 2
Fore
SplineSet
256 128 m 1,0,-1
 256 0 l 1,1,-1
 0 0 l 1,2,-1
 0 128 l 1,3,-1
 256 128 l 1,0,-1
384 128 m 1,4,-1
 256 128 l 1,5,-1
 256 256 l 1,6,-1
 128 256 l 1,7,-1
 128 384 l 1,8,-1
 256 384 l 1,9,-1
 256 512 l 1,10,-1
 384 512 l 1,11,-1
 384 128 l 1,4,-1
0 384 m 1,12,-1
 0 512 l 1,13,-1
 128 512 l 1,14,-1
 128 384 l 1,15,-1
 0 384 l 1,12,-1
128 512 m 1,16,-1
 128 640 l 1,17,-1
 256 640 l 1,18,-1
 256 512 l 1,19,-1
 128 512 l 1,16,-1
EndSplineSet
EndChar

StartChar: colon
Encoding: 58 58 29
Width: 256
GlyphClass: 1
Flags: W
LayerCount: 2
Fore
SplineSet
0 0 m 1,0,-1
 0 128 l 1,1,-1
 128 128 l 1,2,-1
 128 0 l 1,3,-1
 0 0 l 1,0,-1
0 384 m 1,4,-1
 0 512 l 1,5,-1
 128 512 l 1,6,-1
 128 384 l 1,7,-1
 0 384 l 1,4,-1
EndSplineSet
EndChar

StartChar: semicolon
Encoding: 59 59 30
Width: 384
GlyphClass: 1
Flags: W
LayerCount: 2
Fore
SplineSet
128 0 m 1,0,-1
 128 128 l 1,1,-1
 256 128 l 1,2,-1
 256 0 l 1,3,-1
 128 0 l 1,0,-1
0 -128 m 1,4,-1
 0 0 l 1,5,-1
 128 0 l 1,6,-1
 128 -128 l 1,7,-1
 0 -128 l 1,4,-1
128 384 m 1,8,-1
 128 512 l 1,9,-1
 256 512 l 1,10,-1
 256 384 l 1,11,-1
 128 384 l 1,8,-1
EndSplineSet
EndChar

StartChar: less
Encoding: 60 60 31
Width: 512
GlyphClass: 1
Flags: W
LayerCount: 2
Fore
SplineSet
128 128 m 1,0,-1
 128 256 l 1,1,-1
 256 256 l 1,2,-1
 256 128 l 1,3,-1
 128 128 l 1,0,-1
256 128 m 1,4,-1
 384 128 l 1,5,-1
 384 0 l 1,6,-1
 256 0 l 1,7,-1
 256 128 l 1,4,-1
128 384 m 1,8,-1
 128 256 l 1,9,-1
 0 256 l 1,10,-1
 0 384 l 1,11,-1
 128 384 l 1,8,-1
256 384 m 1,12,-1
 128 384 l 1,13,-1
 128 512 l 1,14,-1
 256 512 l 1,15,-1
 256 384 l 1,12,-1
256 512 m 1,16,-1
 256 640 l 1,17,-1
 384 640 l 1,18,-1
 384 512 l 1,19,-1
 256 512 l 1,16,-1
EndSplineSet
EndChar

StartChar: equal
Encoding: 61 61 32
Width: 512
GlyphClass: 1
Flags: W
LayerCount: 2
Fore
SplineSet
0 128 m 1,0,-1
 0 256 l 1,1,-1
 384 256 l 1,2,-1
 384 128 l 1,3,-1
 0 128 l 1,0,-1
0 384 m 1,4,-1
 0 512 l 1,5,-1
 384 512 l 1,6,-1
 384 384 l 1,7,-1
 0 384 l 1,4,-1
EndSplineSet
EndChar

StartChar: greater
Encoding: 62 62 33
Width: 512
GlyphClass: 1
Flags: W
LayerCount: 2
Fore
SplineSet
128 128 m 1,0,-1
 128 0 l 1,1,-1
 0 0 l 1,2,-1
 0 128 l 1,3,-1
 128 128 l 1,0,-1
256 128 m 1,4,-1
 128 128 l 1,5,-1
 128 256 l 1,6,-1
 256 256 l 1,7,-1
 256 128 l 1,4,-1
128 384 m 1,8,-1
 128 512 l 1,9,-1
 256 512 l 1,10,-1
 256 384 l 1,11,-1
 128 384 l 1,8,-1
256 384 m 1,12,-1
 384 384 l 1,13,-1
 384 256 l 1,14,-1
 256 256 l 1,15,-1
 256 384 l 1,12,-1
0 512 m 1,16,-1
 0 640 l 1,17,-1
 128 640 l 1,18,-1
 128 512 l 1,19,-1
 0 512 l 1,16,-1
EndSplineSet
EndChar

StartChar: question
Encoding: 63 63 34
Width: 512
GlyphClass: 1
Flags: W
LayerCount: 2
Fore
SplineSet
128 0 m 1,0,-1
 128 128 l 1,1,-1
 256 128 l 1,2,-1
 256 0 l 1,3,-1
 128 0 l 1,0,-1
256 384 m 1,4,-1
 256 256 l 1,5,-1
 128 256 l 1,6,-1
 128 384 l 1,7,-1
 256 384 l 1,4,-1
384 384 m 1,8,-1
 256 384 l 1,9,-1
 256 512 l 1,10,-1
 384 512 l 1,11,-1
 384 384 l 1,8,-1
0 512 m 1,12,-1
 0 640 l 1,13,-1
 256 640 l 1,14,-1
 256 512 l 1,15,-1
 0 512 l 1,12,-1
EndSplineSet
EndChar

StartChar: at
Encoding: 64 64 35
Width: 640
GlyphClass: 1
Flags: W
LayerCount: 2
Fore
SplineSet
128 128 m 1,0,-1
 0 128 l 1,1,-1
 0 512 l 1,2,-1
 128 512 l 1,3,-1
 128 128 l 1,0,-1
128 0 m 1,4,-1
 128 128 l 1,5,-1
 384 128 l 1,6,-1
 384 0 l 1,7,-1
 128 0 l 1,4,-1
384 384 m 1,8,-1
 384 512 l 1,9,-1
 512 512 l 1,10,-1
 512 256 l 1,11,-1
 256 256 l 1,12,-1
 256 384 l 1,13,-1
 384 384 l 1,8,-1
128 512 m 1,14,-1
 128 640 l 1,15,-1
 384 640 l 1,16,-1
 384 512 l 1,17,-1
 128 512 l 1,14,-1
EndSplineSet
EndChar

StartChar: A
Encoding: 65 65 36
Width: 640
GlyphClass: 1
Flags: W
AnchorPoint: "foot" 384 0 basechar 0
AnchorPoint: "top" 256 640 basechar 0
AnchorPoint: "bottom" 256 0 basechar 0
LayerCount: 2
Fore
SplineSet
128 0 m 1,0,-1
 0 0 l 1,1,-1
 0 512 l 1,2,-1
 128 512 l 1,3,-1
 128 384 l 1,4,-1
 384 384 l 1,5,-1
 384 512 l 1,6,-1
 512 512 l 1,7,-1
 512 0 l 1,8,-1
 384 0 l 1,9,-1
 384 256 l 1,10,-1
 128 256 l 1,11,-1
 128 0 l 1,0,-1
128 512 m 1,12,-1
 128 640 l 1,13,-1
 384 640 l 1,14,-1
 384 512 l 1,15,-1
 128 512 l 1,12,-1
EndSplineSet
EndChar

StartChar: B
Encoding: 66 66 37
Width: 640
GlyphClass: 1
Flags: W
AnchorPoint: "bottom" 256 0 basechar 0
AnchorPoint: "top" 256 640 basechar 0
LayerCount: 2
Fore
SplineSet
512 128 m 1,0,-1
 384 128 l 1,1,-1
 384 256 l 1,2,-1
 512 256 l 1,3,-1
 512 128 l 1,0,-1
128 128 m 1,4,-1
 384 128 l 1,5,-1
 384 0 l 1,6,-1
 0 0 l 1,7,-1
 0 640 l 1,8,-1
 384 640 l 1,9,-1
 384 512 l 1,10,-1
 128 512 l 1,11,-1
 128 384 l 1,12,-1
 384 384 l 1,13,-1
 384 256 l 1,14,-1
 128 256 l 1,15,-1
 128 128 l 1,4,-1
512 384 m 1,16,-1
 384 384 l 1,17,-1
 384 512 l 1,18,-1
 512 512 l 1,19,-1
 512 384 l 1,16,-1
EndSplineSet
EndChar

StartChar: C
Encoding: 67 67 38
Width: 640
GlyphClass: 1
Flags: W
AnchorPoint: "foot" 384 0 basechar 0
AnchorPoint: "bottom" 256 0 basechar 0
AnchorPoint: "top" 256 640 basechar 0
LayerCount: 2
Fore
SplineSet
128 128 m 1,0,-1
 0 128 l 1,1,-1
 0 512 l 1,2,-1
 128 512 l 1,3,-1
 128 128 l 1,0,-1
384 128 m 1,4,-1
 384 0 l 5,5,-1
 128 0 l 5,6,-1
 128 128 l 1,7,-1
 384 128 l 1,4,-1
512 128 m 1,8,-1
 384 128 l 1,9,-1
 384 256 l 1,10,-1
 512 256 l 1,11,-1
 512 128 l 1,8,-1
384 384 m 1,12,-1
 384 512 l 1,13,-1
 512 512 l 1,14,-1
 512 384 l 1,15,-1
 384 384 l 1,12,-1
128 512 m 1,16,-1
 128 640 l 1,17,-1
 384 640 l 1,18,-1
 384 512 l 1,19,-1
 128 512 l 1,16,-1
EndSplineSet
EndChar

StartChar: D
Encoding: 68 68 39
Width: 640
GlyphClass: 1
Flags: W
AnchorPoint: "foot" 256 0 basechar 0
AnchorPoint: "bottom" 256 0 basechar 0
AnchorPoint: "top" 256 640 basechar 0
LayerCount: 2
Fore
SplineSet
512 128 m 1,0,-1
 384 128 l 1,1,-1
 384 512 l 1,2,-1
 512 512 l 1,3,-1
 512 128 l 1,0,-1
128 128 m 1,4,-1
 384 128 l 1,5,-1
 384 0 l 1,6,-1
 0 0 l 1,7,-1
 0 640 l 1,8,-1
 384 640 l 1,9,-1
 384 512 l 1,10,-1
 128 512 l 1,11,-1
 128 128 l 1,4,-1
EndSplineSet
EndChar

StartChar: E
Encoding: 69 69 40
Width: 640
GlyphClass: 1
Flags: W
AnchorPoint: "foot" 256 0 basechar 0
AnchorPoint: "bottom" 256 0 basechar 0
AnchorPoint: "top" 256 640 basechar 0
LayerCount: 2
Fore
SplineSet
512 128 m 1,0,-1
 512 0 l 1,1,-1
 0 0 l 1,2,-1
 0 640 l 1,3,-1
 512 640 l 1,4,-1
 512 512 l 1,5,-1
 128 512 l 1,6,-1
 128 384 l 1,7,-1
 384 384 l 1,8,-1
 384 256 l 1,9,-1
 128 256 l 1,10,-1
 128 128 l 1,11,-1
 512 128 l 1,0,-1
EndSplineSet
EndChar

StartChar: F
Encoding: 70 70 41
Width: 640
GlyphClass: 1
Flags: W
AnchorPoint: "bottom" 256 0 basechar 0
AnchorPoint: "top" 256 640 basechar 0
LayerCount: 2
Fore
SplineSet
128 0 m 1,0,-1
 0 0 l 1,1,-1
 0 640 l 1,2,-1
 512 640 l 1,3,-1
 512 512 l 1,4,-1
 128 512 l 1,5,-1
 128 384 l 1,6,-1
 384 384 l 1,7,-1
 384 256 l 1,8,-1
 128 256 l 1,9,-1
 128 0 l 1,0,-1
EndSplineSet
EndChar

StartChar: G
Encoding: 71 71 42
Width: 640
GlyphClass: 1
Flags: W
AnchorPoint: "bottom" 256 0 basechar 0
AnchorPoint: "top" 256 640 basechar 0
LayerCount: 2
Fore
SplineSet
128 0 m 1,0,-1
 128 128 l 1,1,-1
 384 128 l 1,2,-1
 384 256 l 1,3,-1
 256 256 l 1,4,-1
 256 384 l 1,5,-1
 512 384 l 1,6,-1
 512 0 l 1,7,-1
 128 0 l 1,0,-1
128 128 m 1,8,-1
 0 128 l 1,9,-1
 0 512 l 1,10,-1
 128 512 l 1,11,-1
 128 128 l 1,8,-1
128 512 m 1,12,-1
 128 640 l 1,13,-1
 512 640 l 1,14,-1
 512 512 l 1,15,-1
 128 512 l 1,12,-1
EndSplineSet
EndChar

StartChar: H
Encoding: 72 72 43
Width: 640
GlyphClass: 1
Flags: W
AnchorPoint: "foot" 256 0 basechar 0
AnchorPoint: "bottom" 256 0 basechar 0
AnchorPoint: "top" 256 640 basechar 0
LayerCount: 2
Fore
SplineSet
128 0 m 1,0,-1
 0 0 l 1,1,-1
 0 640 l 1,2,-1
 128 640 l 1,3,-1
 128 384 l 1,4,-1
 384 384 l 1,5,-1
 384 640 l 1,6,-1
 512 640 l 1,7,-1
 512 0 l 1,8,-1
 384 0 l 1,9,-1
 384 256 l 1,10,-1
 128 256 l 1,11,-1
 128 0 l 1,0,-1
EndSplineSet
EndChar

StartChar: I
Encoding: 73 73 44
Width: 256
GlyphClass: 1
Flags: W
AnchorPoint: "foot" 0 0 basechar 0
AnchorPoint: "top" 0 640 basechar 0
AnchorPoint: "bottom" 0 0 basechar 0
LayerCount: 2
Fore
SplineSet
128 0 m 1,0,-1
 0 0 l 1,1,-1
 0 640 l 1,2,-1
 128 640 l 1,3,-1
 128 0 l 1,0,-1
EndSplineSet
EndChar

StartChar: J
Encoding: 74 74 45
Width: 512
GlyphClass: 1
Flags: W
AnchorPoint: "top" 128 640 basechar 0
AnchorPoint: "bottom" 128 0 basechar 0
LayerCount: 2
Fore
SplineSet
0 128 m 1,0,-1
 0 256 l 1,1,-1
 128 256 l 1,2,-1
 128 128 l 1,3,-1
 0 128 l 1,0,-1
128 128 m 1,4,-1
 256 128 l 1,5,-1
 256 0 l 1,6,-1
 128 0 l 1,7,-1
 128 128 l 1,4,-1
256 128 m 1,8,-1
 256 640 l 1,9,-1
 384 640 l 1,10,-1
 384 128 l 1,11,-1
 256 128 l 1,8,-1
EndSplineSet
EndChar

StartChar: K
Encoding: 75 75 46
Width: 640
GlyphClass: 1
Flags: W
AnchorPoint: "top" 256 640 basechar 0
AnchorPoint: "bottom" 256 0 basechar 0
LayerCount: 2
Fore
SplineSet
384 128 m 1,0,-1
 256 128 l 1,1,-1
 256 256 l 1,2,-1
 384 256 l 1,3,-1
 384 128 l 1,0,-1
128 0 m 1,4,-1
 0 0 l 1,5,-1
 0 640 l 1,6,-1
 128 640 l 1,7,-1
 128 384 l 1,8,-1
 256 384 l 1,9,-1
 256 256 l 1,10,-1
 128 256 l 1,11,-1
 128 0 l 1,4,-1
384 0 m 1,12,-1
 384 128 l 1,13,-1
 512 128 l 1,14,-1
 512 0 l 1,15,-1
 384 0 l 1,12,-1
256 384 m 1,16,-1
 256 512 l 1,17,-1
 384 512 l 1,18,-1
 384 384 l 1,19,-1
 256 384 l 1,16,-1
384 512 m 1,20,-1
 384 640 l 1,21,-1
 512 640 l 1,22,-1
 512 512 l 1,23,-1
 384 512 l 1,20,-1
EndSplineSet
EndChar

StartChar: L
Encoding: 76 76 47
Width: 512
GlyphClass: 1
Flags: W
AnchorPoint: "foot" 0 0 basechar 0
AnchorPoint: "top" 128 640 basechar 0
AnchorPoint: "bottom" 128 0 basechar 0
LayerCount: 2
Fore
SplineSet
384 128 m 1,0,-1
 384 0 l 1,1,-1
 0 0 l 1,2,-1
 0 640 l 1,3,-1
 128 640 l 1,4,-1
 128 128 l 1,5,-1
 384 128 l 1,0,-1
EndSplineSet
EndChar

StartChar: M
Encoding: 77 77 48
Width: 768
GlyphClass: 1
Flags: W
AnchorPoint: "top" 256 640 basechar 0
AnchorPoint: "bottom" 256 0 basechar 0
LayerCount: 2
Fore
SplineSet
128 0 m 1,0,-1
 0 0 l 1,1,-1
 0 640 l 1,2,-1
 128 640 l 1,3,-1
 128 512 l 1,4,-1
 256 512 l 1,5,-1
 256 384 l 1,6,-1
 128 384 l 1,7,-1
 128 0 l 1,0,-1
640 0 m 1,8,-1
 512 0 l 1,9,-1
 512 384 l 1,10,-1
 384 384 l 1,11,-1
 384 512 l 1,12,-1
 512 512 l 1,13,-1
 512 640 l 1,14,-1
 640 640 l 1,15,-1
 640 0 l 1,8,-1
256 256 m 1,16,-1
 256 384 l 1,17,-1
 384 384 l 1,18,-1
 384 256 l 1,19,-1
 256 256 l 1,16,-1
EndSplineSet
EndChar

StartChar: N
Encoding: 78 78 49
Width: 640
GlyphClass: 1
Flags: W
AnchorPoint: "top" 256 640 basechar 0
AnchorPoint: "bottom" 256 0 basechar 0
LayerCount: 2
Fore
SplineSet
128 0 m 1,0,-1
 0 0 l 1,1,-1
 0 640 l 1,2,-1
 128 640 l 1,3,-1
 128 512 l 1,4,-1
 256 512 l 1,5,-1
 256 384 l 1,6,-1
 128 384 l 1,7,-1
 128 0 l 1,0,-1
512 0 m 1,8,-1
 384 0 l 1,9,-1
 384 256 l 1,10,-1
 256 256 l 1,11,-1
 256 384 l 1,12,-1
 384 384 l 1,13,-1
 384 640 l 1,14,-1
 512 640 l 1,15,-1
 512 0 l 1,8,-1
EndSplineSet
EndChar

StartChar: O
Encoding: 79 79 50
Width: 640
GlyphClass: 1
Flags: W
AnchorPoint: "foot" 384 0 basechar 0
AnchorPoint: "top" 256 640 basechar 0
AnchorPoint: "bottom" 256 0 basechar 0
LayerCount: 2
Fore
SplineSet
128 128 m 1,0,-1
 0 128 l 1,1,-1
 0 512 l 1,2,-1
 128 512 l 1,3,-1
 128 128 l 1,0,-1
384 128 m 1,4,-1
 384 0 l 1,5,-1
 128 0 l 1,6,-1
 128 128 l 1,7,-1
 384 128 l 1,4,-1
512 128 m 1,8,-1
 384 128 l 1,9,-1
 384 512 l 1,10,-1
 512 512 l 1,11,-1
 512 128 l 1,8,-1
128 512 m 1,12,-1
 128 640 l 1,13,-1
 384 640 l 1,14,-1
 384 512 l 1,15,-1
 128 512 l 1,12,-1
EndSplineSet
EndChar

StartChar: P
Encoding: 80 80 51
Width: 640
GlyphClass: 1
Flags: W
AnchorPoint: "top" 256 640 basechar 0
AnchorPoint: "bottom" 256 0 basechar 0
LayerCount: 2
Fore
SplineSet
128 0 m 1,0,-1
 0 0 l 1,1,-1
 0 640 l 1,2,-1
 384 640 l 1,3,-1
 384 512 l 1,4,-1
 128 512 l 1,5,-1
 128 384 l 1,6,-1
 384 384 l 1,7,-1
 384 256 l 1,8,-1
 128 256 l 1,9,-1
 128 0 l 1,0,-1
384 384 m 1,10,-1
 384 512 l 1,11,-1
 512 512 l 1,12,-1
 512 384 l 1,13,-1
 384 384 l 1,10,-1
EndSplineSet
EndChar

StartChar: Q
Encoding: 81 81 52
Width: 640
GlyphClass: 1
Flags: W
AnchorPoint: "top" 256 640 basechar 0
AnchorPoint: "bottom" 256 0 basechar 0
LayerCount: 2
Fore
SplineSet
384 128 m 1,0,-1
 256 128 l 1,1,-1
 256 256 l 1,2,-1
 384 256 l 1,3,-1
 384 128 l 1,0,-1
128 128 m 1,4,-1
 0 128 l 1,5,-1
 0 512 l 1,6,-1
 128 512 l 1,7,-1
 128 128 l 1,4,-1
256 128 m 1,8,-1
 256 0 l 1,9,-1
 128 0 l 1,10,-1
 128 128 l 1,11,-1
 256 128 l 1,8,-1
384 0 m 1,12,-1
 384 128 l 1,13,-1
 512 128 l 1,14,-1
 512 0 l 1,15,-1
 384 0 l 1,12,-1
384 256 m 1,16,-1
 384 512 l 1,17,-1
 512 512 l 1,18,-1
 512 256 l 1,19,-1
 384 256 l 1,16,-1
128 512 m 1,20,-1
 128 640 l 1,21,-1
 384 640 l 1,22,-1
 384 512 l 1,23,-1
 128 512 l 1,20,-1
EndSplineSet
EndChar

StartChar: R
Encoding: 82 82 53
Width: 640
GlyphClass: 1
Flags: W
AnchorPoint: "top" 256 640 basechar 0
AnchorPoint: "bottom" 256 0 basechar 0
LayerCount: 2
Fore
SplineSet
128 0 m 1,0,-1
 0 0 l 1,1,-1
 0 640 l 1,2,-1
 384 640 l 1,3,-1
 384 512 l 1,4,-1
 128 512 l 1,5,-1
 128 384 l 1,6,-1
 384 384 l 1,7,-1
 384 256 l 1,8,-1
 128 256 l 1,9,-1
 128 0 l 1,0,-1
512 0 m 1,10,-1
 384 0 l 1,11,-1
 384 256 l 1,12,-1
 512 256 l 1,13,-1
 512 0 l 1,10,-1
512 384 m 1,14,-1
 384 384 l 1,15,-1
 384 512 l 1,16,-1
 512 512 l 1,17,-1
 512 384 l 1,14,-1
EndSplineSet
EndChar

StartChar: S
Encoding: 83 83 54
Width: 640
GlyphClass: 1
Flags: W
AnchorPoint: "foot" 384 0 basechar 0
AnchorPoint: "top" 256 640 basechar 0
AnchorPoint: "bottom" 256 0 basechar 0
LayerCount: 2
Fore
SplineSet
512 128 m 1,0,-1
 384 128 l 1,1,-1
 384 256 l 1,2,-1
 512 256 l 1,3,-1
 512 128 l 1,0,-1
384 128 m 1,4,-1
 384 0 l 1,5,-1
 0 0 l 1,6,-1
 0 128 l 1,7,-1
 384 128 l 1,4,-1
0 384 m 1,8,-1
 0 512 l 1,9,-1
 128 512 l 1,10,-1
 128 384 l 1,11,-1
 0 384 l 1,8,-1
128 384 m 1,12,-1
 384 384 l 1,13,-1
 384 256 l 1,14,-1
 128 256 l 1,15,-1
 128 384 l 1,12,-1
128 512 m 1,16,-1
 128 640 l 1,17,-1
 512 640 l 1,18,-1
 512 512 l 1,19,-1
 128 512 l 1,16,-1
EndSplineSet
EndChar

StartChar: T
Encoding: 84 84 55
Width: 512
GlyphClass: 1
Flags: W
AnchorPoint: "foot" 128 0 basechar 0
AnchorPoint: "top" 128 640 basechar 0
AnchorPoint: "bottom" 128 0 basechar 0
LayerCount: 2
Fore
SplineSet
256 0 m 1,0,-1
 128 0 l 1,1,-1
 128 512 l 1,2,-1
 0 512 l 1,3,-1
 0 640 l 1,4,-1
 384 640 l 1,5,-1
 384 512 l 1,6,-1
 256 512 l 1,7,-1
 256 0 l 1,0,-1
EndSplineSet
EndChar

StartChar: U
Encoding: 85 85 56
Width: 640
GlyphClass: 1
Flags: W
AnchorPoint: "foot" 384 0 basechar 0
AnchorPoint: "top" 256 640 basechar 0
AnchorPoint: "bottom" 256 0 basechar 0
LayerCount: 2
Fore
SplineSet
128 128 m 1,0,-1
 0 128 l 1,1,-1
 0 640 l 1,2,-1
 128 640 l 1,3,-1
 128 128 l 1,0,-1
384 128 m 1,4,-1
 384 0 l 1,5,-1
 128 0 l 1,6,-1
 128 128 l 1,7,-1
 384 128 l 1,4,-1
512 128 m 1,8,-1
 384 128 l 1,9,-1
 384 640 l 1,10,-1
 512 640 l 1,11,-1
 512 128 l 1,8,-1
EndSplineSet
EndChar

StartChar: V
Encoding: 86 86 57
Width: 512
GlyphClass: 1
Flags: W
AnchorPoint: "top" 128 640 basechar 0
AnchorPoint: "bottom" 128 0 basechar 0
LayerCount: 2
Fore
SplineSet
256 0 m 1,0,-1
 128 0 l 1,1,-1
 128 256 l 1,2,-1
 256 256 l 1,3,-1
 256 0 l 1,0,-1
128 256 m 1,4,-1
 0 256 l 1,5,-1
 0 640 l 1,6,-1
 128 640 l 1,7,-1
 128 256 l 1,4,-1
256 256 m 1,8,-1
 256 640 l 1,9,-1
 384 640 l 1,10,-1
 384 256 l 1,11,-1
 256 256 l 1,8,-1
EndSplineSet
EndChar

StartChar: W
Encoding: 87 87 58
Width: 768
GlyphClass: 1
Flags: W
AnchorPoint: "top" 256 640 basechar 0
AnchorPoint: "bottom" 256 0 basechar 0
LayerCount: 2
Fore
SplineSet
256 0 m 1,0,-1
 128 0 l 1,1,-1
 128 256 l 1,2,-1
 256 256 l 1,3,-1
 256 0 l 1,0,-1
512 0 m 1,4,-1
 384 0 l 1,5,-1
 384 256 l 1,6,-1
 512 256 l 1,7,-1
 512 0 l 1,4,-1
128 256 m 1,8,-1
 0 256 l 1,9,-1
 0 640 l 1,10,-1
 128 640 l 1,11,-1
 128 256 l 1,8,-1
256 256 m 1,12,-1
 256 640 l 1,13,-1
 384 640 l 1,14,-1
 384 256 l 1,15,-1
 256 256 l 1,12,-1
512 256 m 1,16,-1
 512 640 l 1,17,-1
 640 640 l 1,18,-1
 640 256 l 1,19,-1
 512 256 l 1,16,-1
EndSplineSet
EndChar

StartChar: X
Encoding: 88 88 59
Width: 512
GlyphClass: 1
Flags: W
AnchorPoint: "top" 128 640 basechar 0
AnchorPoint: "bottom" 128 0 basechar 0
LayerCount: 2
Fore
SplineSet
128 0 m 1,0,-1
 0 0 l 1,1,-1
 0 256 l 1,2,-1
 128 256 l 1,3,-1
 128 0 l 1,0,-1
384 0 m 1,4,-1
 256 0 l 1,5,-1
 256 256 l 1,6,-1
 384 256 l 1,7,-1
 384 0 l 1,4,-1
128 384 m 1,8,-1
 0 384 l 1,9,-1
 0 640 l 1,10,-1
 128 640 l 1,11,-1
 128 384 l 1,8,-1
256 384 m 1,12,-1
 256 256 l 1,13,-1
 128 256 l 1,14,-1
 128 384 l 1,15,-1
 256 384 l 1,12,-1
384 384 m 1,16,-1
 256 384 l 1,17,-1
 256 640 l 1,18,-1
 384 640 l 1,19,-1
 384 384 l 1,16,-1
EndSplineSet
EndChar

StartChar: Y
Encoding: 89 89 60
Width: 512
GlyphClass: 1
Flags: W
AnchorPoint: "top" 128 640 basechar 0
AnchorPoint: "bottom" 128 0 basechar 0
LayerCount: 2
Fore
SplineSet
256 0 m 1,0,-1
 128 0 l 1,1,-1
 128 384 l 1,2,-1
 256 384 l 1,3,-1
 256 0 l 1,0,-1
128 384 m 1,4,-1
 0 384 l 1,5,-1
 0 640 l 1,6,-1
 128 640 l 1,7,-1
 128 384 l 1,4,-1
256 384 m 1,8,-1
 256 640 l 1,9,-1
 384 640 l 1,10,-1
 384 384 l 1,11,-1
 256 384 l 1,8,-1
EndSplineSet
EndChar

StartChar: Z
Encoding: 90 90 61
Width: 512
GlyphClass: 1
Flags: W
AnchorPoint: "top" 128 640 basechar 0
AnchorPoint: "bottom" 128 0 basechar 0
LayerCount: 2
Fore
SplineSet
384 128 m 1,0,-1
 384 0 l 1,1,-1
 0 0 l 1,2,-1
 0 256 l 1,3,-1
 128 256 l 1,4,-1
 128 128 l 1,5,-1
 384 128 l 1,0,-1
256 384 m 1,6,-1
 256 256 l 1,7,-1
 128 256 l 1,8,-1
 128 384 l 1,9,-1
 256 384 l 1,6,-1
384 384 m 1,10,-1
 256 384 l 1,11,-1
 256 512 l 1,12,-1
 0 512 l 1,13,-1
 0 640 l 1,14,-1
 384 640 l 1,15,-1
 384 384 l 1,10,-1
EndSplineSet
EndChar

StartChar: bracketleft
Encoding: 91 91 62
Width: 384
GlyphClass: 1
Flags: W
LayerCount: 2
Fore
SplineSet
128 128 m 1,0,-1
 256 128 l 1,1,-1
 256 0 l 1,2,-1
 0 0 l 1,3,-1
 0 640 l 1,4,-1
 256 640 l 1,5,-1
 256 512 l 1,6,-1
 128 512 l 1,7,-1
 128 128 l 1,0,-1
EndSplineSet
EndChar

StartChar: backslash
Encoding: 92 92 63
Width: 384
GlyphClass: 1
Flags: W
LayerCount: 2
Fore
SplineSet
256 0 m 1,0,-1
 128 0 l 1,1,-1
 128 384 l 1,2,-1
 256 384 l 1,3,-1
 256 0 l 1,0,-1
128 384 m 1,4,-1
 0 384 l 1,5,-1
 0 640 l 1,6,-1
 128 640 l 1,7,-1
 128 384 l 1,4,-1
EndSplineSet
EndChar

StartChar: bracketright
Encoding: 93 93 64
Width: 384
GlyphClass: 1
Flags: W
LayerCount: 2
Fore
SplineSet
0 0 m 1,0,-1
 0 128 l 1,1,-1
 128 128 l 1,2,-1
 128 512 l 1,3,-1
 0 512 l 1,4,-1
 0 640 l 1,5,-1
 256 640 l 1,6,-1
 256 0 l 1,7,-1
 0 0 l 1,0,-1
EndSplineSet
EndChar

StartChar: asciicircum
Encoding: 94 94 65
Width: 512
GlyphClass: 1
Flags: W
LayerCount: 2
Fore
SplineSet
0 384 m 1,0,-1
 0 512 l 1,1,-1
 128 512 l 1,2,-1
 128 384 l 1,3,-1
 0 384 l 1,0,-1
256 384 m 1,4,-1
 256 512 l 1,5,-1
 384 512 l 1,6,-1
 384 384 l 1,7,-1
 256 384 l 1,4,-1
128 512 m 1,8,-1
 128 640 l 1,9,-1
 256 640 l 1,10,-1
 256 512 l 1,11,-1
 128 512 l 1,8,-1
EndSplineSet
EndChar

StartChar: underscore
Encoding: 95 95 66
Width: 512
GlyphClass: 1
Flags: W
LayerCount: 2
Fore
SplineSet
0 0 m 1,0,-1
 0 128 l 1,1,-1
 384 128 l 1,2,-1
 384 0 l 1,3,-1
 0 0 l 1,0,-1
EndSplineSet
EndChar

StartChar: grave
Encoding: 96 96 67
Width: 384
GlyphClass: 1
Flags: W
LayerCount: 2
Fore
SplineSet
128 384 m 1,0,-1
 128 512 l 1,1,-1
 256 512 l 1,2,-1
 256 384 l 1,3,-1
 128 384 l 1,0,-1
0 512 m 1,4,-1
 0 640 l 1,5,-1
 128 640 l 1,6,-1
 128 512 l 1,7,-1
 0 512 l 1,4,-1
EndSplineSet
EndChar

StartChar: a
Encoding: 97 97 68
Width: 512
GlyphClass: 1
Flags: W
AnchorPoint: "foot" 256 0 basechar 0
AnchorPoint: "bottom" 128 0 basechar 0
AnchorPoint: "top" 128 512 basechar 0
LayerCount: 2
Fore
SplineSet
128 128 m 1,0,-1
 0 128 l 1,1,-1
 0 384 l 1,2,-1
 128 384 l 1,3,-1
 128 128 l 1,0,-1
128 0 m 1,4,-1
 128 128 l 1,5,-1
 256 128 l 1,6,-1
 256 384 l 1,7,-1
 128 384 l 1,8,-1
 128 512 l 1,9,-1
 384 512 l 1,10,-1
 384 0 l 1,11,-1
 128 0 l 1,4,-1
EndSplineSet
EndChar

StartChar: b
Encoding: 98 98 69
Width: 512
GlyphClass: 1
Flags: W
AnchorPoint: "bottom" 128 0 basechar 0
AnchorPoint: "top" 128 640 basechar 0
LayerCount: 2
Fore
SplineSet
128 128 m 1,0,-1
 256 128 l 1,1,-1
 256 0 l 1,2,-1
 0 0 l 1,3,-1
 0 640 l 1,4,-1
 128 640 l 1,5,-1
 128 512 l 1,6,-1
 256 512 l 1,7,-1
 256 384 l 1,8,-1
 128 384 l 1,9,-1
 128 128 l 1,0,-1
256 128 m 1,10,-1
 256 384 l 1,11,-1
 384 384 l 1,12,-1
 384 128 l 1,13,-1
 256 128 l 1,10,-1
EndSplineSet
EndChar

StartChar: c
Encoding: 99 99 70
Width: 512
GlyphClass: 1
Flags: W
AnchorPoint: "foot" 256 0 basechar 0
AnchorPoint: "bottom" 128 0 basechar 0
AnchorPoint: "top" 128 512 basechar 0
LayerCount: 2
Fore
SplineSet
128 128 m 1,0,-1
 0 128 l 1,1,-1
 0 384 l 1,2,-1
 128 384 l 1,3,-1
 128 128 l 1,0,-1
128 0 m 5,4,-1
 128 128 l 1,5,-1
 384 128 l 1,6,-1
 384 0 l 5,7,-1
 128 0 l 5,4,-1
128 384 m 1,8,-1
 128 512 l 1,9,-1
 384 512 l 1,10,-1
 384 384 l 1,11,-1
 128 384 l 1,8,-1
EndSplineSet
EndChar

StartChar: d
Encoding: 100 100 71
Width: 512
GlyphClass: 1
Flags: W
AnchorPoint: "foot" 256 0 basechar 0
AnchorPoint: "top" 128 640 basechar 0
AnchorPoint: "bottom" 128 0 basechar 0
LayerCount: 2
Fore
SplineSet
128 128 m 1,0,-1
 0 128 l 1,1,-1
 0 384 l 1,2,-1
 128 384 l 1,3,-1
 128 128 l 1,0,-1
128 0 m 1,4,-1
 128 128 l 1,5,-1
 256 128 l 1,6,-1
 256 384 l 1,7,-1
 128 384 l 1,8,-1
 128 512 l 1,9,-1
 256 512 l 1,10,-1
 256 640 l 1,11,-1
 384 640 l 1,12,-1
 384 0 l 1,13,-1
 128 0 l 1,4,-1
EndSplineSet
EndChar

StartChar: e
Encoding: 101 101 72
Width: 512
GlyphClass: 1
Flags: W
AnchorPoint: "foot" 256 0 basechar 0
AnchorPoint: "bottom" 128 0 basechar 0
AnchorPoint: "top" 128 512 basechar 0
LayerCount: 2
Fore
SplineSet
128 128 m 1,0,-1
 0 128 l 1,1,-1
 0 384 l 1,2,-1
 128 384 l 1,3,-1
 128 512 l 1,4,-1
 256 512 l 1,5,-1
 256 384 l 1,6,-1
 384 384 l 1,7,-1
 384 256 l 1,8,-1
 128 256 l 1,9,-1
 128 128 l 1,0,-1
128 0 m 1,10,-1
 128 128 l 1,11,-1
 384 128 l 1,12,-1
 384 0 l 1,13,-1
 128 0 l 1,10,-1
EndSplineSet
EndChar

StartChar: f
Encoding: 102 102 73
Width: 384
GlyphClass: 1
Flags: W
AnchorPoint: "top" 128 640 basechar 0
AnchorPoint: "bottom" 0 0 basechar 0
LayerCount: 2
Fore
SplineSet
128 0 m 1,0,-1
 0 0 l 1,1,-1
 0 512 l 1,2,-1
 128 512 l 1,3,-1
 128 384 l 1,4,-1
 256 384 l 1,5,-1
 256 256 l 1,6,-1
 128 256 l 1,7,-1
 128 0 l 1,0,-1
128 512 m 1,8,-1
 128 640 l 1,9,-1
 256 640 l 1,10,-1
 256 512 l 1,11,-1
 128 512 l 1,8,-1
EndSplineSet
EndChar

StartChar: g
Encoding: 103 103 74
Width: 512
GlyphClass: 1
Flags: W
AnchorPoint: "top" 128 512 basechar 0
AnchorPoint: "bottom" 128 -128 basechar 0
LayerCount: 2
Fore
SplineSet
0 0 m 1,0,-1
 128 0 l 1,1,-1
 128 128 l 1,2,-1
 256 128 l 1,3,-1
 256 384 l 1,4,-1
 128 384 l 1,5,-1
 128 512 l 1,6,-1
 384 512 l 1,7,-1
 384 0 l 1,8,-1
 256 0 l 1,9,-1
 256 -128 l 1,10,-1
 0 -128 l 1,11,-1
 0 0 l 1,0,-1
128 128 m 1,12,-1
 0 128 l 1,13,-1
 0 384 l 1,14,-1
 128 384 l 1,15,-1
 128 128 l 1,12,-1
EndSplineSet
EndChar

StartChar: h
Encoding: 104 104 75
Width: 512
GlyphClass: 1
Flags: W
AnchorPoint: "foot" 256 0 basechar 0
AnchorPoint: "top" 128 640 basechar 0
AnchorPoint: "bottom" 128 0 basechar 0
LayerCount: 2
Fore
SplineSet
128 0 m 1,0,-1
 0 0 l 1,1,-1
 0 640 l 1,2,-1
 128 640 l 1,3,-1
 128 512 l 1,4,-1
 256 512 l 1,5,-1
 256 384 l 1,6,-1
 128 384 l 1,7,-1
 128 0 l 1,0,-1
384 0 m 1,8,-1
 256 0 l 1,9,-1
 256 384 l 1,10,-1
 384 384 l 1,11,-1
 384 0 l 1,8,-1
EndSplineSet
EndChar

StartChar: k
Encoding: 107 107 78
Width: 512
GlyphClass: 1
Flags: W
AnchorPoint: "top" 128 640 basechar 0
AnchorPoint: "bottom" 128 0 basechar 0
LayerCount: 2
Fore
SplineSet
128 0 m 1,0,-1
 0 0 l 1,1,-1
 0 640 l 1,2,-1
 128 640 l 1,3,-1
 128 384 l 1,4,-1
 256 384 l 1,5,-1
 256 256 l 1,6,-1
 128 256 l 1,7,-1
 128 0 l 1,0,-1
384 0 m 1,8,-1
 256 0 l 1,9,-1
 256 256 l 1,10,-1
 384 256 l 1,11,-1
 384 0 l 1,8,-1
256 384 m 1,12,-1
 256 512 l 1,13,-1
 384 512 l 1,14,-1
 384 384 l 1,15,-1
 256 384 l 1,12,-1
EndSplineSet
EndChar

StartChar: l
Encoding: 108 108 79
Width: 256
GlyphClass: 1
Flags: W
AnchorPoint: "foot" 0 0 basechar 0
AnchorPoint: "top" 0 640 basechar 0
AnchorPoint: "bottom" 0 0 basechar 0
LayerCount: 2
Fore
SplineSet
128 0 m 1,0,-1
 0 0 l 1,1,-1
 0 640 l 1,2,-1
 128 640 l 1,3,-1
 128 0 l 1,0,-1
EndSplineSet
EndChar

StartChar: m
Encoding: 109 109 80
Width: 768
GlyphClass: 1
Flags: W
AnchorPoint: "bottom" 256 0 basechar 0
AnchorPoint: "top" 256 512 basechar 0
LayerCount: 2
Fore
SplineSet
128 0 m 1,0,-1
 0 0 l 1,1,-1
 0 512 l 1,2,-1
 512 512 l 1,3,-1
 512 384 l 1,4,-1
 384 384 l 1,5,-1
 384 0 l 1,6,-1
 256 0 l 1,7,-1
 256 384 l 1,8,-1
 128 384 l 1,9,-1
 128 0 l 1,0,-1
640 0 m 1,10,-1
 512 0 l 1,11,-1
 512 384 l 1,12,-1
 640 384 l 1,13,-1
 640 0 l 1,10,-1
EndSplineSet
EndChar

StartChar: n
Encoding: 110 110 81
Width: 512
GlyphClass: 1
Flags: W
AnchorPoint: "bottom" 128 0 basechar 0
AnchorPoint: "top" 128 512 basechar 0
LayerCount: 2
Fore
SplineSet
128 0 m 1,0,-1
 0 0 l 1,1,-1
 0 512 l 1,2,-1
 256 512 l 1,3,-1
 256 384 l 1,4,-1
 128 384 l 1,5,-1
 128 0 l 1,0,-1
384 0 m 1,6,-1
 256 0 l 1,7,-1
 256 384 l 1,8,-1
 384 384 l 1,9,-1
 384 0 l 1,6,-1
EndSplineSet
EndChar

StartChar: o
Encoding: 111 111 82
Width: 512
GlyphClass: 1
Flags: W
AnchorPoint: "foot" 128 0 basechar 0
AnchorPoint: "bottom" 128 0 basechar 0
AnchorPoint: "top" 128 512 basechar 0
LayerCount: 2
Fore
SplineSet
128 128 m 1,0,-1
 0 128 l 1,1,-1
 0 384 l 1,2,-1
 128 384 l 1,3,-1
 128 128 l 1,0,-1
256 128 m 1,4,-1
 256 0 l 1,5,-1
 128 0 l 1,6,-1
 128 128 l 1,7,-1
 256 128 l 1,4,-1
384 128 m 1,8,-1
 256 128 l 1,9,-1
 256 384 l 1,10,-1
 384 384 l 1,11,-1
 384 128 l 1,8,-1
128 384 m 1,12,-1
 128 512 l 1,13,-1
 256 512 l 1,14,-1
 256 384 l 1,15,-1
 128 384 l 1,12,-1
EndSplineSet
EndChar

StartChar: p
Encoding: 112 112 83
Width: 512
GlyphClass: 1
Flags: W
AnchorPoint: "top" 128 512 basechar 0
AnchorPoint: "bottom" 128 -128 basechar 0
LayerCount: 2
Fore
SplineSet
256 128 m 1,0,-1
 256 0 l 1,1,-1
 128 0 l 1,2,-1
 128 -128 l 1,3,-1
 0 -128 l 1,4,-1
 0 512 l 1,5,-1
 256 512 l 1,6,-1
 256 384 l 1,7,-1
 128 384 l 1,8,-1
 128 128 l 1,9,-1
 256 128 l 1,0,-1
384 128 m 1,10,-1
 256 128 l 1,11,-1
 256 384 l 1,12,-1
 384 384 l 1,13,-1
 384 128 l 1,10,-1
EndSplineSet
EndChar

StartChar: q
Encoding: 113 113 84
Width: 512
GlyphClass: 1
Flags: W
AnchorPoint: "bottom" 128 -128 basechar 0
AnchorPoint: "top" 128 512 basechar 0
LayerCount: 2
Fore
SplineSet
256 -128 m 1,0,-1
 256 0 l 1,1,-1
 128 0 l 1,2,-1
 128 128 l 1,3,-1
 256 128 l 1,4,-1
 256 384 l 1,5,-1
 128 384 l 1,6,-1
 128 512 l 1,7,-1
 384 512 l 1,8,-1
 384 -128 l 1,9,-1
 256 -128 l 1,0,-1
128 128 m 1,10,-1
 0 128 l 1,11,-1
 0 384 l 1,12,-1
 128 384 l 1,13,-1
 128 128 l 1,10,-1
EndSplineSet
EndChar

StartChar: r
Encoding: 114 114 85
Width: 384
GlyphClass: 1
Flags: W
AnchorPoint: "bottom" 0 0 basechar 0
AnchorPoint: "top" 0 512 basechar 0
LayerCount: 2
Fore
SplineSet
128 0 m 1,0,-1
 0 0 l 1,1,-1
 0 512 l 5,2,-1
 256 512 l 5,3,-1
 256 384 l 1,4,-1
 128 384 l 1,5,-1
 128 0 l 1,0,-1
EndSplineSet
EndChar

StartChar: s
Encoding: 115 115 86
Width: 512
GlyphClass: 1
Flags: W
AnchorPoint: "foot" 256 0 basechar 0
AnchorPoint: "bottom" 128 0 basechar 0
AnchorPoint: "top" 128 512 basechar 0
LayerCount: 2
Fore
SplineSet
256 128 m 1,0,-1
 256 0 l 1,1,-1
 0 0 l 1,2,-1
 0 128 l 1,3,-1
 256 128 l 1,0,-1
384 128 m 1,4,-1
 256 128 l 1,5,-1
 256 256 l 1,6,-1
 384 256 l 1,7,-1
 384 128 l 1,4,-1
128 384 m 1,8,-1
 128 512 l 1,9,-1
 384 512 l 1,10,-1
 384 384 l 1,11,-1
 256 384 l 1,12,-1
 256 256 l 1,13,-1
 0 256 l 1,14,-1
 0 384 l 1,15,-1
 128 384 l 1,8,-1
EndSplineSet
EndChar

StartChar: t
Encoding: 116 116 87
Width: 384
GlyphClass: 1
Flags: W
AnchorPoint: "foot" 128 0 basechar 0
AnchorPoint: "bottom" 0 0 basechar 0
AnchorPoint: "top" 0 640 basechar 0
LayerCount: 2
Fore
SplineSet
128 128 m 1,0,-1
 0 128 l 1,1,-1
 0 640 l 1,2,-1
 128 640 l 1,3,-1
 128 512 l 1,4,-1
 256 512 l 1,5,-1
 256 384 l 1,6,-1
 128 384 l 1,7,-1
 128 128 l 1,0,-1
128 0 m 1,8,-1
 128 128 l 1,9,-1
 256 128 l 1,10,-1
 256 0 l 1,11,-1
 128 0 l 1,8,-1
EndSplineSet
EndChar

StartChar: u
Encoding: 117 117 88
Width: 512
GlyphClass: 1
Flags: W
AnchorPoint: "foot" 256 0 basechar 0
AnchorPoint: "bottom" 128 0 basechar 0
AnchorPoint: "top" 128 512 basechar 0
LayerCount: 2
Fore
SplineSet
128 128 m 1,0,-1
 0 128 l 1,1,-1
 0 512 l 1,2,-1
 128 512 l 1,3,-1
 128 128 l 1,0,-1
128 0 m 1,4,-1
 128 128 l 1,5,-1
 256 128 l 1,6,-1
 256 512 l 1,7,-1
 384 512 l 1,8,-1
 384 0 l 1,9,-1
 128 0 l 1,4,-1
EndSplineSet
EndChar

StartChar: v
Encoding: 118 118 89
Width: 512
GlyphClass: 1
Flags: W
AnchorPoint: "bottom" 128 0 basechar 0
AnchorPoint: "top" 128 512 basechar 0
LayerCount: 2
Fore
SplineSet
256 0 m 1,0,-1
 128 0 l 1,1,-1
 128 256 l 1,2,-1
 256 256 l 1,3,-1
 256 0 l 1,0,-1
128 256 m 1,4,-1
 0 256 l 1,5,-1
 0 512 l 1,6,-1
 128 512 l 1,7,-1
 128 256 l 1,4,-1
256 256 m 1,8,-1
 256 512 l 1,9,-1
 384 512 l 1,10,-1
 384 256 l 1,11,-1
 256 256 l 1,8,-1
EndSplineSet
EndChar

StartChar: w
Encoding: 119 119 90
Width: 768
GlyphClass: 1
Flags: W
AnchorPoint: "bottom" 256 0 basechar 0
AnchorPoint: "top" 256 512 basechar 0
LayerCount: 2
Fore
SplineSet
256 0 m 1,0,-1
 128 0 l 1,1,-1
 128 256 l 1,2,-1
 256 256 l 1,3,-1
 256 0 l 1,0,-1
512 0 m 1,4,-1
 384 0 l 1,5,-1
 384 256 l 1,6,-1
 512 256 l 1,7,-1
 512 0 l 1,4,-1
128 256 m 1,8,-1
 0 256 l 1,9,-1
 0 512 l 1,10,-1
 128 512 l 1,11,-1
 128 256 l 1,8,-1
256 256 m 1,12,-1
 256 512 l 1,13,-1
 384 512 l 1,14,-1
 384 256 l 1,15,-1
 256 256 l 1,12,-1
512 256 m 1,16,-1
 512 512 l 1,17,-1
 640 512 l 1,18,-1
 640 256 l 1,19,-1
 512 256 l 1,16,-1
EndSplineSet
EndChar

StartChar: x
Encoding: 120 120 91
Width: 512
GlyphClass: 1
Flags: W
AnchorPoint: "bottom" 128 0 basechar 0
AnchorPoint: "top" 128 512 basechar 0
LayerCount: 2
Fore
SplineSet
128 128 m 1,0,-1
 128 0 l 1,1,-1
 0 0 l 1,2,-1
 0 128 l 1,3,-1
 128 128 l 1,0,-1
256 128 m 1,4,-1
 128 128 l 1,5,-1
 128 384 l 1,6,-1
 256 384 l 1,7,-1
 256 128 l 1,4,-1
256 0 m 1,8,-1
 256 128 l 1,9,-1
 384 128 l 1,10,-1
 384 0 l 1,11,-1
 256 0 l 1,8,-1
0 384 m 1,12,-1
 0 512 l 1,13,-1
 128 512 l 1,14,-1
 128 384 l 1,15,-1
 0 384 l 1,12,-1
256 384 m 1,16,-1
 256 512 l 1,17,-1
 384 512 l 1,18,-1
 384 384 l 1,19,-1
 256 384 l 1,16,-1
EndSplineSet
EndChar

StartChar: y
Encoding: 121 121 92
Width: 512
GlyphClass: 1
Flags: W
AnchorPoint: "bottom" 128 -128 basechar 0
AnchorPoint: "top" 128 512 basechar 0
LayerCount: 2
Fore
SplineSet
0 -128 m 1,0,-1
 0 0 l 1,1,-1
 128 0 l 1,2,-1
 128 -128 l 1,3,-1
 0 -128 l 1,0,-1
128 128 m 1,4,-1
 0 128 l 1,5,-1
 0 512 l 1,6,-1
 128 512 l 1,7,-1
 128 128 l 1,4,-1
256 128 m 1,8,-1
 256 0 l 1,9,-1
 128 0 l 1,10,-1
 128 128 l 1,11,-1
 256 128 l 1,8,-1
384 128 m 1,12,-1
 256 128 l 1,13,-1
 256 512 l 1,14,-1
 384 512 l 1,15,-1
 384 128 l 1,12,-1
EndSplineSet
EndChar

StartChar: z
Encoding: 122 122 93
Width: 512
GlyphClass: 1
Flags: W
AnchorPoint: "bottom" 128 0 basechar 0
AnchorPoint: "top" 128 512 basechar 0
LayerCount: 2
Fore
SplineSet
384 128 m 1,0,-1
 384 0 l 1,1,-1
 0 0 l 1,2,-1
 0 256 l 1,3,-1
 128 256 l 1,4,-1
 128 128 l 1,5,-1
 384 128 l 1,0,-1
0 384 m 1,6,-1
 0 512 l 1,7,-1
 384 512 l 1,8,-1
 384 384 l 1,9,-1
 256 384 l 1,10,-1
 256 256 l 1,11,-1
 128 256 l 1,12,-1
 128 384 l 1,13,-1
 0 384 l 1,6,-1
EndSplineSet
EndChar

StartChar: braceleft
Encoding: 123 123 94
Width: 512
GlyphClass: 1
Flags: W
LayerCount: 2
Fore
SplineSet
256 128 m 1,0,-1
 384 128 l 1,1,-1
 384 0 l 1,2,-1
 128 0 l 1,3,-1
 128 256 l 1,4,-1
 256 256 l 1,5,-1
 256 128 l 1,0,-1
128 384 m 1,6,-1
 128 256 l 1,7,-1
 0 256 l 1,8,-1
 0 384 l 1,9,-1
 128 384 l 1,6,-1
256 384 m 1,10,-1
 128 384 l 1,11,-1
 128 640 l 1,12,-1
 384 640 l 1,13,-1
 384 512 l 1,14,-1
 256 512 l 1,15,-1
 256 384 l 1,10,-1
EndSplineSet
EndChar

StartChar: bar
Encoding: 124 124 95
Width: 256
GlyphClass: 1
Flags: W
LayerCount: 2
Fore
SplineSet
128 0 m 1,0,-1
 0 0 l 1,1,-1
 0 640 l 1,2,-1
 128 640 l 1,3,-1
 128 0 l 1,0,-1
EndSplineSet
EndChar

StartChar: braceright
Encoding: 125 125 96
Width: 512
GlyphClass: 1
Flags: W
LayerCount: 2
Fore
SplineSet
128 128 m 1,0,-1
 128 256 l 1,1,-1
 256 256 l 1,2,-1
 256 0 l 1,3,-1
 0 0 l 1,4,-1
 0 128 l 1,5,-1
 128 128 l 1,0,-1
128 384 m 1,6,-1
 128 512 l 1,7,-1
 0 512 l 1,8,-1
 0 640 l 1,9,-1
 256 640 l 1,10,-1
 256 384 l 1,11,-1
 128 384 l 1,6,-1
256 384 m 1,12,-1
 384 384 l 1,13,-1
 384 256 l 1,14,-1
 256 256 l 1,15,-1
 256 384 l 1,12,-1
EndSplineSet
EndChar

StartChar: asciitilde
Encoding: 126 126 97
Width: 384
GlyphClass: 1
Flags: W
LayerCount: 2
Fore
SplineSet
0 256 m 1,0,-1
 0 384 l 1,1,-1
 256 384 l 1,2,-1
 256 256 l 1,3,-1
 0 256 l 1,0,-1
EndSplineSet
EndChar

StartChar: exclamdown
Encoding: 161 161 99
Width: 256
GlyphClass: 1
Flags: W
LayerCount: 2
Fore
SplineSet
128 0 m 1,0,-1
 0 0 l 1,1,-1
 0 384 l 1,2,-1
 128 384 l 1,3,-1
 128 0 l 1,0,-1
0 512 m 1,4,-1
 0 640 l 1,5,-1
 128 640 l 1,6,-1
 128 512 l 1,7,-1
 0 512 l 1,4,-1
EndSplineSet
EndChar

StartChar: cent
Encoding: 162 162 100
Width: 512
GlyphClass: 1
Flags: W
LayerCount: 2
Fore
SplineSet
256 128 m 1,0,-1
 256 0 l 1,1,-1
 128 0 l 1,2,-1
 128 256 l 1,3,-1
 384 256 l 1,4,-1
 384 128 l 1,5,-1
 256 128 l 1,0,-1
128 384 m 1,6,-1
 128 256 l 1,7,-1
 0 256 l 1,8,-1
 0 384 l 1,9,-1
 128 384 l 1,6,-1
384 384 m 1,10,-1
 128 384 l 1,11,-1
 128 640 l 1,12,-1
 256 640 l 1,13,-1
 256 512 l 1,14,-1
 384 512 l 1,15,-1
 384 384 l 1,10,-1
EndSplineSet
EndChar

StartChar: sterling
Encoding: 163 163 101
Width: 640
GlyphClass: 1
Flags: W
LayerCount: 2
Fore
SplineSet
512 128 m 1,0,-1
 512 0 l 1,1,-1
 0 0 l 1,2,-1
 0 128 l 1,3,-1
 128 128 l 1,4,-1
 128 256 l 1,5,-1
 0 256 l 1,6,-1
 0 384 l 1,7,-1
 128 384 l 1,8,-1
 128 512 l 1,9,-1
 256 512 l 1,10,-1
 256 384 l 1,11,-1
 384 384 l 1,12,-1
 384 256 l 1,13,-1
 256 256 l 1,14,-1
 256 128 l 1,15,-1
 512 128 l 1,0,-1
384 384 m 1,16,-1
 384 512 l 1,17,-1
 512 512 l 1,18,-1
 512 384 l 1,19,-1
 384 384 l 1,16,-1
256 512 m 1,20,-1
 256 640 l 1,21,-1
 384 640 l 1,22,-1
 384 512 l 1,23,-1
 256 512 l 1,20,-1
EndSplineSet
EndChar

StartChar: currency
Encoding: 164 164 102
Width: 640
GlyphClass: 1
Flags: W
LayerCount: 2
Fore
SplineSet
128 128 m 1,0,-1
 128 0 l 1,1,-1
 0 0 l 1,2,-1
 0 128 l 1,3,-1
 128 128 l 1,0,-1
384 128 m 1,4,-1
 512 128 l 1,5,-1
 512 0 l 1,6,-1
 384 0 l 1,7,-1
 384 128 l 1,4,-1
0 384 m 1,8,-1
 0 512 l 1,9,-1
 128 512 l 1,10,-1
 128 384 l 1,11,-1
 0 384 l 1,8,-1
128 384 m 1,12,-1
 384 384 l 1,13,-1
 384 128 l 1,14,-1
 128 128 l 1,15,-1
 128 384 l 1,12,-1
384 384 m 1,16,-1
 384 512 l 1,17,-1
 512 512 l 1,18,-1
 512 384 l 1,19,-1
 384 384 l 1,16,-1
EndSplineSet
EndChar

StartChar: yen
Encoding: 165 165 103
Width: 512
GlyphClass: 1
Flags: W
LayerCount: 2
Fore
SplineSet
0 128 m 1,0,-1
 0 256 l 1,1,-1
 128 256 l 1,2,-1
 128 384 l 1,3,-1
 256 384 l 1,4,-1
 256 256 l 1,5,-1
 384 256 l 1,6,-1
 384 128 l 1,7,-1
 256 128 l 1,8,-1
 256 0 l 1,9,-1
 128 0 l 1,10,-1
 128 128 l 1,11,-1
 0 128 l 1,0,-1
128 384 m 1,12,-1
 0 384 l 1,13,-1
 0 640 l 1,14,-1
 128 640 l 1,15,-1
 128 384 l 1,12,-1
256 384 m 1,16,-1
 256 640 l 1,17,-1
 384 640 l 1,18,-1
 384 384 l 1,19,-1
 256 384 l 1,16,-1
EndSplineSet
EndChar

StartChar: brokenbar
Encoding: 166 166 104
Width: 256
GlyphClass: 1
Flags: W
LayerCount: 2
Fore
SplineSet
128 0 m 1,0,-1
 0 0 l 1,1,-1
 0 256 l 1,2,-1
 128 256 l 1,3,-1
 128 0 l 1,0,-1
128 384 m 1,4,-1
 0 384 l 1,5,-1
 0 640 l 1,6,-1
 128 640 l 1,7,-1
 128 384 l 1,4,-1
EndSplineSet
EndChar

StartChar: section
Encoding: 167 167 105
Width: 512
GlyphClass: 1
Flags: W
LayerCount: 2
Fore
SplineSet
128 128 m 1,0,-1
 128 256 l 1,1,-1
 256 256 l 1,2,-1
 256 384 l 1,3,-1
 384 384 l 1,4,-1
 384 128 l 1,5,-1
 256 128 l 1,6,-1
 256 0 l 1,7,-1
 0 0 l 1,8,-1
 0 128 l 1,9,-1
 128 128 l 1,0,-1
128 384 m 1,10,-1
 128 256 l 1,11,-1
 0 256 l 1,12,-1
 0 512 l 1,13,-1
 128 512 l 1,14,-1
 128 640 l 1,15,-1
 384 640 l 1,16,-1
 384 512 l 1,17,-1
 256 512 l 1,18,-1
 256 384 l 1,19,-1
 128 384 l 1,10,-1
EndSplineSet
EndChar

StartChar: copyright
Encoding: 169 169 107
Width: 512
GlyphClass: 1
Flags: W
LayerCount: 2
Fore
SplineSet
128 128 m 1,0,-1
 128 256 l 1,1,-1
 384 256 l 1,2,-1
 384 128 l 1,3,-1
 128 128 l 1,0,-1
128 256 m 1,4,-1
 0 256 l 1,5,-1
 0 512 l 1,6,-1
 128 512 l 1,7,-1
 128 256 l 1,4,-1
128 512 m 1,8,-1
 128 640 l 1,9,-1
 384 640 l 1,10,-1
 384 512 l 1,11,-1
 128 512 l 1,8,-1
EndSplineSet
EndChar

StartChar: ordfeminine
Encoding: 170 170 108
Width: 512
GlyphClass: 1
Flags: W
LayerCount: 2
Fore
SplineSet
128 128 m 1,0,-1
 128 256 l 1,1,-1
 256 256 l 1,2,-1
 256 512 l 1,3,-1
 128 512 l 1,4,-1
 128 640 l 1,5,-1
 384 640 l 1,6,-1
 384 128 l 1,7,-1
 128 128 l 1,0,-1
128 256 m 1,8,-1
 0 256 l 1,9,-1
 0 512 l 1,10,-1
 128 512 l 1,11,-1
 128 256 l 1,8,-1
EndSplineSet
EndChar

StartChar: guillemotleft
Encoding: 171 171 109
Width: 640
GlyphClass: 1
Flags: W
LayerCount: 2
Fore
SplineSet
128 128 m 1,0,-1
 128 256 l 1,1,-1
 256 256 l 1,2,-1
 256 128 l 1,3,-1
 128 128 l 1,0,-1
384 128 m 1,4,-1
 384 256 l 1,5,-1
 512 256 l 1,6,-1
 512 128 l 1,7,-1
 384 128 l 1,4,-1
128 384 m 1,8,-1
 128 256 l 1,9,-1
 0 256 l 1,10,-1
 0 384 l 1,11,-1
 128 384 l 1,8,-1
256 384 m 1,12,-1
 128 384 l 1,13,-1
 128 512 l 1,14,-1
 256 512 l 1,15,-1
 256 384 l 1,12,-1
384 384 m 1,16,-1
 384 256 l 1,17,-1
 256 256 l 1,18,-1
 256 384 l 1,19,-1
 384 384 l 1,16,-1
512 384 m 1,20,-1
 384 384 l 1,21,-1
 384 512 l 1,22,-1
 512 512 l 1,23,-1
 512 384 l 1,20,-1
EndSplineSet
EndChar

StartChar: logicalnot
Encoding: 172 172 110
Width: 512
GlyphClass: 1
Flags: W
LayerCount: 2
Fore
SplineSet
256 128 m 1,0,-1
 256 256 l 1,1,-1
 0 256 l 1,2,-1
 0 384 l 1,3,-1
 384 384 l 1,4,-1
 384 128 l 1,5,-1
 256 128 l 1,0,-1
EndSplineSet
EndChar

StartChar: registered
Encoding: 174 174 111
Width: 512
GlyphClass: 1
Flags: W
LayerCount: 2
Fore
SplineSet
128 128 m 1,0,-1
 0 128 l 1,1,-1
 0 640 l 1,2,-1
 256 640 l 1,3,-1
 256 512 l 1,4,-1
 128 512 l 1,5,-1
 128 384 l 1,6,-1
 256 384 l 1,7,-1
 256 256 l 1,8,-1
 128 256 l 1,9,-1
 128 128 l 1,0,-1
256 128 m 1,10,-1
 256 256 l 1,11,-1
 384 256 l 1,12,-1
 384 128 l 1,13,-1
 256 128 l 1,10,-1
256 384 m 1,14,-1
 256 512 l 1,15,-1
 384 512 l 1,16,-1
 384 384 l 1,17,-1
 256 384 l 1,14,-1
EndSplineSet
EndChar

StartChar: degree
Encoding: 176 176 112
Width: 512
GlyphClass: 1
Flags: W
LayerCount: 2
Fore
SplineSet
0 384 m 1,0,-1
 0 512 l 1,1,-1
 128 512 l 1,2,-1
 128 384 l 1,3,-1
 0 384 l 1,0,-1
128 384 m 1,4,-1
 256 384 l 1,5,-1
 256 256 l 1,6,-1
 128 256 l 1,7,-1
 128 384 l 1,4,-1
256 384 m 1,8,-1
 256 512 l 1,9,-1
 384 512 l 1,10,-1
 384 384 l 1,11,-1
 256 384 l 1,8,-1
128 512 m 1,12,-1
 128 640 l 1,13,-1
 256 640 l 1,14,-1
 256 512 l 1,15,-1
 128 512 l 1,12,-1
EndSplineSet
EndChar

StartChar: plusminus
Encoding: 177 177 113
Width: 512
GlyphClass: 1
Flags: W
LayerCount: 2
Fore
SplineSet
0 0 m 1,0,-1
 0 128 l 1,1,-1
 384 128 l 1,2,-1
 384 0 l 1,3,-1
 0 0 l 1,0,-1
0 384 m 1,4,-1
 0 512 l 1,5,-1
 128 512 l 1,6,-1
 128 640 l 1,7,-1
 256 640 l 1,8,-1
 256 512 l 1,9,-1
 384 512 l 1,10,-1
 384 384 l 1,11,-1
 256 384 l 1,12,-1
 256 256 l 1,13,-1
 128 256 l 1,14,-1
 128 384 l 1,15,-1
 0 384 l 1,4,-1
EndSplineSet
EndChar

StartChar: twosuperior
Encoding: 178 178 114
Width: 512
GlyphClass: 1
Flags: W
LayerCount: 2
Fore
SplineSet
0 128 m 1,0,-1
 0 256 l 1,1,-1
 128 256 l 1,2,-1
 128 384 l 1,3,-1
 256 384 l 1,4,-1
 256 256 l 1,5,-1
 384 256 l 1,6,-1
 384 128 l 1,7,-1
 0 128 l 1,0,-1
256 384 m 1,8,-1
 256 512 l 1,9,-1
 384 512 l 1,10,-1
 384 384 l 1,11,-1
 256 384 l 1,8,-1
0 512 m 1,12,-1
 0 640 l 1,13,-1
 256 640 l 1,14,-1
 256 512 l 1,15,-1
 0 512 l 1,12,-1
EndSplineSet
EndChar

StartChar: threesuperior
Encoding: 179 179 115
Width: 512
GlyphClass: 1
Flags: W
LayerCount: 2
Fore
SplineSet
0 128 m 1,0,-1
 0 256 l 1,1,-1
 256 256 l 1,2,-1
 256 128 l 1,3,-1
 0 128 l 1,0,-1
128 384 m 1,4,-1
 128 512 l 1,5,-1
 0 512 l 1,6,-1
 0 640 l 1,7,-1
 384 640 l 1,8,-1
 384 512 l 1,9,-1
 256 512 l 1,10,-1
 256 384 l 1,11,-1
 128 384 l 1,4,-1
256 384 m 1,12,-1
 384 384 l 1,13,-1
 384 256 l 1,14,-1
 256 256 l 1,15,-1
 256 384 l 1,12,-1
EndSplineSet
EndChar

StartChar: mu
Encoding: 181 181 117
Width: 512
GlyphClass: 1
Flags: W
LayerCount: 2
Fore
SplineSet
128 -128 m 1,0,-1
 0 -128 l 1,1,-1
 0 384 l 1,2,-1
 128 384 l 1,3,-1
 128 128 l 1,4,-1
 256 128 l 1,5,-1
 256 384 l 1,6,-1
 384 384 l 1,7,-1
 384 0 l 1,8,-1
 128 0 l 1,9,-1
 128 -128 l 1,0,-1
EndSplineSet
EndChar

StartChar: paragraph
Encoding: 182 182 118
Width: 512
GlyphClass: 1
Flags: W
LayerCount: 2
Fore
SplineSet
384 0 m 1,0,-1
 256 0 l 1,1,-1
 256 256 l 1,2,-1
 128 256 l 1,3,-1
 128 384 l 1,4,-1
 0 384 l 1,5,-1
 0 512 l 1,6,-1
 128 512 l 1,7,-1
 128 640 l 1,8,-1
 384 640 l 1,9,-1
 384 0 l 1,0,-1
EndSplineSet
EndChar

StartChar: periodcentered
Encoding: 183 183 119
Width: 256
GlyphClass: 1
Flags: W
LayerCount: 2
Fore
SplineSet
0 256 m 1,0,-1
 0 384 l 1,1,-1
 128 384 l 1,2,-1
 128 256 l 1,3,-1
 0 256 l 1,0,-1
EndSplineSet
EndChar

StartChar: onesuperior
Encoding: 185 185 121
Width: 384
GlyphClass: 1
Flags: W
LayerCount: 2
Fore
SplineSet
256 128 m 1,0,-1
 128 128 l 1,1,-1
 128 384 l 1,2,-1
 0 384 l 1,3,-1
 0 512 l 1,4,-1
 128 512 l 1,5,-1
 128 640 l 1,6,-1
 256 640 l 1,7,-1
 256 128 l 1,0,-1
EndSplineSet
EndChar

StartChar: ordmasculine
Encoding: 186 186 122
Width: 512
GlyphClass: 1
Flags: W
LayerCount: 2
Fore
SplineSet
128 128 m 1,0,-1
 128 256 l 1,1,-1
 256 256 l 1,2,-1
 256 128 l 1,3,-1
 128 128 l 1,0,-1
128 256 m 1,4,-1
 0 256 l 1,5,-1
 0 512 l 1,6,-1
 128 512 l 1,7,-1
 128 256 l 1,4,-1
256 256 m 1,8,-1
 256 512 l 1,9,-1
 384 512 l 1,10,-1
 384 256 l 1,11,-1
 256 256 l 1,8,-1
128 512 m 1,12,-1
 128 640 l 1,13,-1
 256 640 l 1,14,-1
 256 512 l 1,15,-1
 128 512 l 1,12,-1
EndSplineSet
EndChar

StartChar: guillemotright
Encoding: 187 187 123
Width: 640
GlyphClass: 1
Flags: W
LayerCount: 2
Fore
SplineSet
0 128 m 1,0,-1
 0 256 l 1,1,-1
 128 256 l 1,2,-1
 128 128 l 1,3,-1
 0 128 l 1,0,-1
256 128 m 1,4,-1
 256 256 l 1,5,-1
 384 256 l 1,6,-1
 384 128 l 1,7,-1
 256 128 l 1,4,-1
0 384 m 1,8,-1
 0 512 l 1,9,-1
 128 512 l 1,10,-1
 128 384 l 1,11,-1
 0 384 l 1,8,-1
128 384 m 1,12,-1
 256 384 l 1,13,-1
 256 256 l 1,14,-1
 128 256 l 1,15,-1
 128 384 l 1,12,-1
256 384 m 1,16,-1
 256 512 l 1,17,-1
 384 512 l 1,18,-1
 384 384 l 1,19,-1
 256 384 l 1,16,-1
384 384 m 1,20,-1
 512 384 l 1,21,-1
 512 256 l 1,22,-1
 384 256 l 1,23,-1
 384 384 l 1,20,-1
EndSplineSet
EndChar

StartChar: onequarter
Encoding: 188 188 124
Width: 1152
GlyphClass: 1
Flags: W
LayerCount: 2
Fore
SplineSet
896 0 m 1,0,-1
 896 128 l 1,1,-1
 640 128 l 1,2,-1
 640 256 l 1,3,-1
 768 256 l 1,4,-1
 768 384 l 1,5,-1
 896 384 l 1,6,-1
 896 512 l 1,7,-1
 1024 512 l 1,8,-1
 1024 0 l 1,9,-1
 896 0 l 1,0,-1
512 128 m 1,10,-1
 384 128 l 1,11,-1
 384 384 l 1,12,-1
 512 384 l 1,13,-1
 512 128 l 1,10,-1
256 128 m 1,14,-1
 128 128 l 1,15,-1
 128 384 l 1,16,-1
 0 384 l 1,17,-1
 0 512 l 1,18,-1
 128 512 l 1,19,-1
 128 640 l 1,20,-1
 256 640 l 1,21,-1
 256 128 l 1,14,-1
512 384 m 1,22,-1
 512 640 l 1,23,-1
 640 640 l 1,24,-1
 640 384 l 1,25,-1
 512 384 l 1,22,-1
EndSplineSet
EndChar

StartChar: onehalf
Encoding: 189 189 125
Width: 1280
GlyphClass: 1
Flags: W
LayerCount: 2
Fore
SplineSet
1024 128 m 1,0,-1
 1152 128 l 1,1,-1
 1152 0 l 1,2,-1
 768 0 l 1,3,-1
 768 128 l 1,4,-1
 896 128 l 1,5,-1
 896 256 l 1,6,-1
 1024 256 l 1,7,-1
 1024 128 l 1,0,-1
512 128 m 1,8,-1
 384 128 l 1,9,-1
 384 384 l 1,10,-1
 512 384 l 1,11,-1
 512 128 l 1,8,-1
256 128 m 1,12,-1
 128 128 l 1,13,-1
 128 384 l 1,14,-1
 0 384 l 1,15,-1
 0 512 l 1,16,-1
 128 512 l 1,17,-1
 128 640 l 1,18,-1
 256 640 l 1,19,-1
 256 128 l 1,12,-1
512 384 m 1,20,-1
 512 640 l 1,21,-1
 640 640 l 1,22,-1
 640 384 l 1,23,-1
 512 384 l 1,20,-1
768 384 m 1,24,-1
 768 512 l 1,25,-1
 1024 512 l 1,26,-1
 1024 384 l 1,27,-1
 768 384 l 1,24,-1
1024 384 m 1,28,-1
 1152 384 l 1,29,-1
 1152 256 l 1,30,-1
 1024 256 l 1,31,-1
 1024 384 l 1,28,-1
EndSplineSet
EndChar

StartChar: threequarters
Encoding: 190 190 126
Width: 1280
GlyphClass: 1
Flags: W
LayerCount: 2
Fore
SplineSet
640 128 m 1,0,-1
 512 128 l 1,1,-1
 512 384 l 1,2,-1
 640 384 l 1,3,-1
 640 128 l 1,0,-1
0 128 m 1,4,-1
 0 256 l 1,5,-1
 256 256 l 1,6,-1
 256 128 l 1,7,-1
 0 128 l 1,4,-1
768 128 m 1,8,-1
 768 256 l 1,9,-1
 896 256 l 1,10,-1
 896 384 l 1,11,-1
 1024 384 l 1,12,-1
 1024 512 l 1,13,-1
 1152 512 l 1,14,-1
 1152 0 l 1,15,-1
 1024 0 l 1,16,-1
 1024 128 l 1,17,-1
 768 128 l 1,8,-1
768 384 m 1,18,-1
 640 384 l 1,19,-1
 640 640 l 1,20,-1
 768 640 l 1,21,-1
 768 384 l 1,18,-1
128 384 m 1,22,-1
 128 512 l 1,23,-1
 0 512 l 1,24,-1
 0 640 l 1,25,-1
 384 640 l 1,26,-1
 384 512 l 1,27,-1
 256 512 l 1,28,-1
 256 384 l 1,29,-1
 128 384 l 1,22,-1
256 384 m 1,30,-1
 384 384 l 1,31,-1
 384 256 l 1,32,-1
 256 256 l 1,33,-1
 256 384 l 1,30,-1
EndSplineSet
EndChar

StartChar: questiondown
Encoding: 191 191 127
Width: 512
GlyphClass: 1
Flags: W
LayerCount: 2
Fore
SplineSet
0 128 m 1,0,-1
 0 256 l 1,1,-1
 128 256 l 1,2,-1
 128 128 l 1,3,-1
 0 128 l 1,0,-1
128 128 m 1,4,-1
 384 128 l 1,5,-1
 384 0 l 1,6,-1
 128 0 l 1,7,-1
 128 128 l 1,4,-1
128 256 m 1,8,-1
 128 384 l 1,9,-1
 256 384 l 1,10,-1
 256 256 l 1,11,-1
 128 256 l 1,8,-1
128 512 m 1,12,-1
 128 640 l 1,13,-1
 256 640 l 1,14,-1
 256 512 l 1,15,-1
 128 512 l 1,12,-1
EndSplineSet
EndChar

StartChar: AE
Encoding: 198 198 134
Width: 768
GlyphClass: 1
Flags: W
AnchorPoint: "top" 256 640 basechar 0
LayerCount: 2
Fore
SplineSet
640 128 m 1,0,-1
 640 0 l 1,1,-1
 256 0 l 1,2,-1
 256 256 l 1,3,-1
 128 256 l 1,4,-1
 128 0 l 1,5,-1
 0 0 l 1,6,-1
 0 512 l 1,7,-1
 128 512 l 1,8,-1
 128 384 l 1,9,-1
 256 384 l 1,10,-1
 256 512 l 1,11,-1
 128 512 l 1,12,-1
 128 640 l 1,13,-1
 640 640 l 1,14,-1
 640 512 l 1,15,-1
 384 512 l 1,16,-1
 384 384 l 1,17,-1
 640 384 l 1,18,-1
 640 256 l 1,19,-1
 384 256 l 1,20,-1
 384 128 l 1,21,-1
 640 128 l 1,0,-1
EndSplineSet
EndChar

StartChar: Eth
Encoding: 208 208 144
Width: 640
GlyphClass: 1
Flags: W
LayerCount: 2
Fore
SplineSet
512 128 m 1,0,-1
 384 128 l 1,1,-1
 384 512 l 1,2,-1
 512 512 l 1,3,-1
 512 128 l 1,0,-1
128 128 m 1,4,-1
 384 128 l 1,5,-1
 384 0 l 1,6,-1
 0 0 l 1,7,-1
 0 640 l 1,8,-1
 384 640 l 1,9,-1
 384 512 l 1,10,-1
 128 512 l 1,11,-1
 128 384 l 1,12,-1
 256 384 l 1,13,-1
 256 256 l 1,14,-1
 128 256 l 1,15,-1
 128 128 l 1,4,-1
EndSplineSet
EndChar

StartChar: multiply
Encoding: 215 215 151
Width: 512
GlyphClass: 1
Flags: W
LayerCount: 2
Fore
SplineSet
0 128 m 1,0,-1
 0 256 l 1,1,-1
 128 256 l 1,2,-1
 128 128 l 1,3,-1
 0 128 l 1,0,-1
256 128 m 1,4,-1
 256 256 l 1,5,-1
 384 256 l 1,6,-1
 384 128 l 1,7,-1
 256 128 l 1,4,-1
0 384 m 1,8,-1
 0 512 l 1,9,-1
 128 512 l 1,10,-1
 128 384 l 1,11,-1
 0 384 l 1,8,-1
128 384 m 1,12,-1
 256 384 l 1,13,-1
 256 256 l 1,14,-1
 128 256 l 1,15,-1
 128 384 l 1,12,-1
256 384 m 1,16,-1
 256 512 l 1,17,-1
 384 512 l 1,18,-1
 384 384 l 1,19,-1
 256 384 l 1,16,-1
EndSplineSet
EndChar

StartChar: Oslash
Encoding: 216 216 152
Width: 640
GlyphClass: 1
Flags: W
AnchorPoint: "top" 256 640 basechar 0
LayerCount: 2
Fore
SplineSet
128 128 m 1,0,-1
 0 128 l 1,1,-1
 0 512 l 1,2,-1
 128 512 l 1,3,-1
 128 384 l 1,4,-1
 256 384 l 1,5,-1
 256 256 l 1,6,-1
 128 256 l 1,7,-1
 128 128 l 1,0,-1
384 128 m 1,8,-1
 384 0 l 1,9,-1
 128 0 l 1,10,-1
 128 128 l 1,11,-1
 384 128 l 1,8,-1
512 128 m 1,12,-1
 384 128 l 1,13,-1
 384 384 l 1,14,-1
 256 384 l 1,15,-1
 256 512 l 1,16,-1
 128 512 l 1,17,-1
 128 640 l 1,18,-1
 384 640 l 1,19,-1
 384 512 l 1,20,-1
 512 512 l 1,21,-1
 512 128 l 1,12,-1
EndSplineSet
EndChar

StartChar: Thorn
Encoding: 222 222 158
Width: 640
GlyphClass: 1
Flags: W
LayerCount: 2
Fore
SplineSet
128 128 m 1,0,-1
 128 0 l 1,1,-1
 0 0 l 1,2,-1
 0 640 l 1,3,-1
 128 640 l 1,4,-1
 128 512 l 1,5,-1
 384 512 l 1,6,-1
 384 384 l 1,7,-1
 128 384 l 1,8,-1
 128 256 l 1,9,-1
 384 256 l 1,10,-1
 384 128 l 1,11,-1
 128 128 l 1,0,-1
384 384 m 1,12,-1
 512 384 l 1,13,-1
 512 256 l 1,14,-1
 384 256 l 1,15,-1
 384 384 l 1,12,-1
EndSplineSet
EndChar

StartChar: germandbls
Encoding: 223 223 159
Width: 640
GlyphClass: 1
Flags: W
LayerCount: 2
Fore
SplineSet
512 128 m 1,0,-1
 384 128 l 1,1,-1
 384 256 l 1,2,-1
 512 256 l 1,3,-1
 512 128 l 1,0,-1
384 128 m 1,4,-1
 384 0 l 1,5,-1
 256 0 l 1,6,-1
 256 128 l 1,7,-1
 384 128 l 1,4,-1
128 0 m 1,8,-1
 0 0 l 1,9,-1
 0 512 l 1,10,-1
 128 512 l 1,11,-1
 128 0 l 1,8,-1
512 384 m 1,12,-1
 384 384 l 1,13,-1
 384 512 l 1,14,-1
 512 512 l 1,15,-1
 512 384 l 1,12,-1
384 384 m 1,16,-1
 384 256 l 1,17,-1
 256 256 l 1,18,-1
 256 384 l 1,19,-1
 384 384 l 1,16,-1
128 512 m 1,20,-1
 128 640 l 1,21,-1
 384 640 l 1,22,-1
 384 512 l 1,23,-1
 128 512 l 1,20,-1
EndSplineSet
EndChar

StartChar: ae
Encoding: 230 230 166
Width: 768
GlyphClass: 1
Flags: W
AnchorPoint: "top" 256 512 basechar 0
LayerCount: 2
Fore
SplineSet
640 128 m 1,0,-1
 640 0 l 1,1,-1
 128 0 l 1,2,-1
 128 128 l 1,3,-1
 256 128 l 1,4,-1
 256 384 l 1,5,-1
 128 384 l 1,6,-1
 128 512 l 1,7,-1
 512 512 l 1,8,-1
 512 384 l 1,9,-1
 640 384 l 1,10,-1
 640 256 l 1,11,-1
 384 256 l 1,12,-1
 384 128 l 1,13,-1
 640 128 l 1,0,-1
128 128 m 1,14,-1
 0 128 l 1,15,-1
 0 384 l 1,16,-1
 128 384 l 1,17,-1
 128 128 l 1,14,-1
EndSplineSet
EndChar

StartChar: eth
Encoding: 240 240 176
Width: 512
GlyphClass: 1
Flags: W
LayerCount: 2
Fore
SplineSet
0 128 m 1,0,-1
 0 256 l 1,1,-1
 128 256 l 1,2,-1
 128 128 l 1,3,-1
 0 128 l 1,0,-1
128 128 m 1,4,-1
 256 128 l 1,5,-1
 256 0 l 1,6,-1
 128 0 l 1,7,-1
 128 128 l 1,4,-1
256 128 m 1,8,-1
 256 256 l 1,9,-1
 128 256 l 1,10,-1
 128 384 l 1,11,-1
 256 384 l 1,12,-1
 256 512 l 1,13,-1
 384 512 l 1,14,-1
 384 128 l 1,15,-1
 256 128 l 1,8,-1
128 512 m 1,16,-1
 128 640 l 1,17,-1
 256 640 l 1,18,-1
 256 512 l 1,19,-1
 128 512 l 1,16,-1
EndSplineSet
EndChar

StartChar: divide
Encoding: 247 247 183
Width: 512
GlyphClass: 1
Flags: W
LayerCount: 2
Fore
SplineSet
128 0 m 1,0,-1
 128 128 l 1,1,-1
 256 128 l 1,2,-1
 256 0 l 1,3,-1
 128 0 l 1,0,-1
0 256 m 1,4,-1
 0 384 l 1,5,-1
 384 384 l 1,6,-1
 384 256 l 1,7,-1
 0 256 l 1,4,-1
128 512 m 1,8,-1
 128 640 l 1,9,-1
 256 640 l 1,10,-1
 256 512 l 1,11,-1
 128 512 l 1,8,-1
EndSplineSet
EndChar

StartChar: oslash
Encoding: 248 248 184
Width: 512
GlyphClass: 1
Flags: W
AnchorPoint: "top" 128 512 basechar 0
LayerCount: 2
Fore
SplineSet
128 128 m 1,0,-1
 0 128 l 1,1,-1
 0 384 l 1,2,-1
 128 384 l 1,3,-1
 128 512 l 1,4,-1
 256 512 l 1,5,-1
 256 384 l 1,6,-1
 384 384 l 1,7,-1
 384 128 l 1,8,-1
 256 128 l 1,9,-1
 256 256 l 1,10,-1
 128 256 l 1,11,-1
 128 128 l 1,0,-1
256 128 m 1,12,-1
 256 0 l 1,13,-1
 128 0 l 1,14,-1
 128 128 l 1,15,-1
 256 128 l 1,12,-1
EndSplineSet
EndChar

StartChar: thorn
Encoding: 254 254 190
Width: 512
GlyphClass: 1
Flags: W
LayerCount: 2
Fore
SplineSet
256 128 m 1,0,-1
 256 0 l 1,1,-1
 128 0 l 1,2,-1
 128 -128 l 1,3,-1
 0 -128 l 1,4,-1
 0 640 l 1,5,-1
 128 640 l 1,6,-1
 128 512 l 1,7,-1
 256 512 l 1,8,-1
 256 384 l 1,9,-1
 128 384 l 1,10,-1
 128 128 l 1,11,-1
 256 128 l 1,0,-1
384 128 m 1,12,-1
 256 128 l 1,13,-1
 256 384 l 1,14,-1
 384 384 l 1,15,-1
 384 128 l 1,12,-1
EndSplineSet
EndChar

StartChar: Dcroat
Encoding: 272 272 208
Width: 640
GlyphClass: 1
Flags: W
LayerCount: 2
Fore
SplineSet
512 128 m 1,0,-1
 384 128 l 1,1,-1
 384 512 l 1,2,-1
 512 512 l 1,3,-1
 512 128 l 1,0,-1
128 128 m 1,4,-1
 384 128 l 1,5,-1
 384 0 l 1,6,-1
 0 0 l 1,7,-1
 0 640 l 1,8,-1
 384 640 l 1,9,-1
 384 512 l 1,10,-1
 128 512 l 1,11,-1
 128 384 l 1,12,-1
 256 384 l 1,13,-1
 256 256 l 1,14,-1
 128 256 l 1,15,-1
 128 128 l 1,4,-1
EndSplineSet
EndChar

StartChar: dcroat
Encoding: 273 273 209
Width: 512
GlyphClass: 1
Flags: W
LayerCount: 2
Fore
SplineSet
128 128 m 1,0,-1
 0 128 l 1,1,-1
 0 384 l 1,2,-1
 128 384 l 1,3,-1
 128 128 l 1,0,-1
128 0 m 1,4,-1
 128 128 l 1,5,-1
 256 128 l 1,6,-1
 256 384 l 1,7,-1
 128 384 l 1,8,-1
 128 640 l 1,9,-1
 256 640 l 1,10,-1
 256 768 l 1,11,-1
 384 768 l 1,12,-1
 384 640 l 1,13,-1
 512 640 l 1,14,-1
 512 512 l 1,15,-1
 384 512 l 1,16,-1
 384 0 l 1,17,-1
 128 0 l 1,4,-1
EndSplineSet
EndChar

StartChar: Hbar
Encoding: 294 294 230
Width: 896
GlyphClass: 1
Flags: W
LayerCount: 2
Fore
SplineSet
256 0 m 1,0,-1
 128 0 l 1,1,-1
 128 512 l 1,2,-1
 0 512 l 1,3,-1
 0 640 l 1,4,-1
 128 640 l 1,5,-1
 128 768 l 1,6,-1
 256 768 l 1,7,-1
 256 640 l 1,8,-1
 512 640 l 1,9,-1
 512 768 l 1,10,-1
 640 768 l 1,11,-1
 640 640 l 1,12,-1
 768 640 l 1,13,-1
 768 512 l 1,14,-1
 640 512 l 1,15,-1
 640 0 l 1,16,-1
 512 0 l 1,17,-1
 512 256 l 1,18,-1
 256 256 l 1,19,-1
 256 0 l 1,0,-1
512 384 m 1,20,-1
 512 512 l 1,21,-1
 256 512 l 1,22,-1
 256 384 l 1,23,-1
 512 384 l 1,20,-1
EndSplineSet
EndChar

StartChar: hbar
Encoding: 295 295 231
Width: 640
GlyphClass: 1
Flags: W
LayerCount: 2
Fore
SplineSet
256 0 m 1,0,-1
 128 0 l 1,1,-1
 128 512 l 1,2,-1
 0 512 l 1,3,-1
 0 640 l 1,4,-1
 128 640 l 1,5,-1
 128 768 l 1,6,-1
 256 768 l 1,7,-1
 256 640 l 1,8,-1
 384 640 l 1,9,-1
 384 384 l 1,10,-1
 256 384 l 1,11,-1
 256 0 l 1,0,-1
512 0 m 1,12,-1
 384 0 l 1,13,-1
 384 384 l 1,14,-1
 512 384 l 1,15,-1
 512 0 l 1,12,-1
EndSplineSet
EndChar

StartChar: dotlessi
Encoding: 305 305 241
Width: 256
GlyphClass: 1
Flags: W
AnchorPoint: "foot" 0 0 basechar 0
AnchorPoint: "bottom" 0 0 basechar 0
AnchorPoint: "top" 0 512 basechar 0
LayerCount: 2
Fore
SplineSet
128 0 m 1,0,-1
 0 0 l 1,1,-1
 0 512 l 1,2,-1
 128 512 l 1,3,-1
 128 0 l 1,0,-1
EndSplineSet
EndChar

StartChar: IJ
Encoding: 306 306 242
Width: 768
GlyphClass: 1
Flags: W
LayerCount: 2
Fore
SplineSet
640 128 m 1,0,-1
 512 128 l 1,1,-1
 512 640 l 1,2,-1
 640 640 l 1,3,-1
 640 128 l 1,0,-1
384 128 m 1,4,-1
 256 128 l 1,5,-1
 256 256 l 1,6,-1
 384 256 l 1,7,-1
 384 128 l 1,4,-1
512 128 m 1,8,-1
 512 0 l 1,9,-1
 384 0 l 1,10,-1
 384 128 l 1,11,-1
 512 128 l 1,8,-1
128 0 m 1,12,-1
 0 0 l 1,13,-1
 0 640 l 1,14,-1
 128 640 l 1,15,-1
 128 0 l 1,12,-1
EndSplineSet
EndChar

StartChar: ij
Encoding: 307 307 243
Width: 512
GlyphClass: 1
Flags: W
LayerCount: 2
Fore
SplineSet
384 -128 m 1,0,-1
 256 -128 l 1,1,-1
 256 512 l 1,2,-1
 384 512 l 1,3,-1
 384 -128 l 1,0,-1
128 0 m 1,4,-1
 0 0 l 1,5,-1
 0 512 l 1,6,-1
 128 512 l 1,7,-1
 128 0 l 1,4,-1
0 640 m 1,8,-1
 0 768 l 1,9,-1
 128 768 l 1,10,-1
 128 640 l 1,11,-1
 0 640 l 1,8,-1
256 640 m 1,12,-1
 256 768 l 1,13,-1
 384 768 l 1,14,-1
 384 640 l 1,15,-1
 256 640 l 1,12,-1
EndSplineSet
EndChar

StartChar: kgreenlandic
Encoding: 312 312 248
Width: 512
GlyphClass: 1
Flags: W
LayerCount: 2
Fore
SplineSet
128 0 m 1,0,-1
 0 0 l 1,1,-1
 0 512 l 1,2,-1
 128 512 l 1,3,-1
 128 384 l 1,4,-1
 256 384 l 1,5,-1
 256 256 l 1,6,-1
 128 256 l 1,7,-1
 128 0 l 1,0,-1
384 0 m 1,8,-1
 256 0 l 1,9,-1
 256 256 l 1,10,-1
 384 256 l 1,11,-1
 384 0 l 1,8,-1
256 384 m 1,12,-1
 256 512 l 1,13,-1
 384 512 l 1,14,-1
 384 384 l 1,15,-1
 256 384 l 1,12,-1
EndSplineSet
EndChar

StartChar: Lslash
Encoding: 321 321 257
Width: 640
GlyphClass: 1
Flags: W
LayerCount: 2
Fore
SplineSet
512 128 m 1,0,-1
 512 0 l 1,1,-1
 128 0 l 1,2,-1
 128 256 l 1,3,-1
 0 256 l 1,4,-1
 0 384 l 1,5,-1
 128 384 l 1,6,-1
 128 640 l 1,7,-1
 256 640 l 1,8,-1
 256 512 l 1,9,-1
 384 512 l 1,10,-1
 384 384 l 1,11,-1
 256 384 l 1,12,-1
 256 128 l 1,13,-1
 512 128 l 1,0,-1
EndSplineSet
EndChar

StartChar: lslash
Encoding: 322 322 258
Width: 512
GlyphClass: 1
Flags: W
LayerCount: 2
Fore
SplineSet
256 0 m 1,0,-1
 128 0 l 1,1,-1
 128 256 l 1,2,-1
 0 256 l 1,3,-1
 0 384 l 1,4,-1
 128 384 l 1,5,-1
 128 640 l 1,6,-1
 256 640 l 1,7,-1
 256 512 l 1,8,-1
 384 512 l 1,9,-1
 384 384 l 1,10,-1
 256 384 l 1,11,-1
 256 0 l 1,0,-1
EndSplineSet
EndChar

StartChar: Eng
Encoding: 330 330 266
Width: 640
GlyphClass: 1
Flags: W
LayerCount: 2
Fore
SplineSet
256 -128 m 1,0,-1
 256 0 l 1,1,-1
 384 0 l 1,2,-1
 384 -128 l 1,3,-1
 256 -128 l 1,0,-1
128 0 m 1,4,-1
 0 0 l 1,5,-1
 0 640 l 1,6,-1
 128 640 l 1,7,-1
 128 512 l 1,8,-1
 256 512 l 1,9,-1
 256 384 l 1,10,-1
 128 384 l 1,11,-1
 128 0 l 1,4,-1
384 0 m 1,12,-1
 384 256 l 1,13,-1
 256 256 l 1,14,-1
 256 384 l 1,15,-1
 384 384 l 1,16,-1
 384 640 l 1,17,-1
 512 640 l 1,18,-1
 512 0 l 1,19,-1
 384 0 l 1,12,-1
EndSplineSet
EndChar

StartChar: eng
Encoding: 331 331 267
Width: 512
GlyphClass: 1
Flags: W
LayerCount: 2
Fore
SplineSet
256 -128 m 1,0,-1
 128 -128 l 1,1,-1
 128 0 l 1,2,-1
 256 0 l 1,3,-1
 256 -128 l 1,0,-1
128 0 m 1,4,-1
 0 0 l 1,5,-1
 0 512 l 1,6,-1
 256 512 l 1,7,-1
 256 384 l 1,8,-1
 128 384 l 1,9,-1
 128 0 l 1,4,-1
256 0 m 1,10,-1
 256 384 l 1,11,-1
 384 384 l 1,12,-1
 384 0 l 1,13,-1
 256 0 l 1,10,-1
EndSplineSet
EndChar

StartChar: OE
Encoding: 338 338 274
Width: 768
GlyphClass: 1
Flags: W
LayerCount: 2
Fore
SplineSet
640 128 m 1,0,-1
 640 0 l 1,1,-1
 128 0 l 1,2,-1
 128 128 l 1,3,-1
 256 128 l 1,4,-1
 256 512 l 1,5,-1
 128 512 l 1,6,-1
 128 640 l 1,7,-1
 640 640 l 1,8,-1
 640 512 l 1,9,-1
 384 512 l 1,10,-1
 384 384 l 1,11,-1
 640 384 l 1,12,-1
 640 256 l 1,13,-1
 384 256 l 1,14,-1
 384 128 l 1,15,-1
 640 128 l 1,0,-1
128 128 m 1,16,-1
 0 128 l 1,17,-1
 0 512 l 1,18,-1
 128 512 l 1,19,-1
 128 128 l 1,16,-1
EndSplineSet
EndChar

StartChar: oe
Encoding: 339 339 275
Width: 768
GlyphClass: 1
Flags: W
LayerCount: 2
Fore
SplineSet
384 128 m 1,0,-1
 256 128 l 1,1,-1
 256 384 l 1,2,-1
 384 384 l 1,3,-1
 384 512 l 1,4,-1
 512 512 l 1,5,-1
 512 384 l 1,6,-1
 640 384 l 1,7,-1
 640 256 l 1,8,-1
 384 256 l 1,9,-1
 384 128 l 1,0,-1
128 128 m 1,10,-1
 0 128 l 1,11,-1
 0 384 l 1,12,-1
 128 384 l 1,13,-1
 128 128 l 1,10,-1
256 128 m 1,14,-1
 256 0 l 1,15,-1
 128 0 l 1,16,-1
 128 128 l 1,17,-1
 256 128 l 1,14,-1
384 0 m 1,18,-1
 384 128 l 1,19,-1
 640 128 l 1,20,-1
 640 0 l 1,21,-1
 384 0 l 1,18,-1
128 384 m 1,22,-1
 128 512 l 1,23,-1
 256 512 l 1,24,-1
 256 384 l 1,25,-1
 128 384 l 1,22,-1
EndSplineSet
EndChar

StartChar: Tbar
Encoding: 358 358 294
Width: 512
GlyphClass: 1
Flags: W
LayerCount: 2
Fore
SplineSet
256 0 m 1,0,-1
 128 0 l 1,1,-1
 128 256 l 1,2,-1
 0 256 l 1,3,-1
 0 384 l 1,4,-1
 128 384 l 1,5,-1
 128 512 l 1,6,-1
 0 512 l 1,7,-1
 0 640 l 1,8,-1
 384 640 l 1,9,-1
 384 512 l 1,10,-1
 256 512 l 1,11,-1
 256 384 l 1,12,-1
 384 384 l 1,13,-1
 384 256 l 1,14,-1
 256 256 l 1,15,-1
 256 0 l 1,0,-1
EndSplineSet
EndChar

StartChar: tbar
Encoding: 359 359 295
Width: 384
GlyphClass: 1
Flags: W
LayerCount: 2
Fore
SplineSet
128 128 m 1,0,-1
 0 128 l 1,1,-1
 0 768 l 1,2,-1
 128 768 l 1,3,-1
 128 640 l 1,4,-1
 256 640 l 1,5,-1
 256 512 l 1,6,-1
 128 512 l 1,7,-1
 128 384 l 1,8,-1
 256 384 l 1,9,-1
 256 256 l 1,10,-1
 128 256 l 1,11,-1
 128 128 l 1,0,-1
128 0 m 1,12,-1
 128 128 l 1,13,-1
 256 128 l 1,14,-1
 256 0 l 1,15,-1
 128 0 l 1,12,-1
EndSplineSet
EndChar

StartChar: longs
Encoding: 383 383 319
Width: 384
GlyphClass: 1
Flags: W
LayerCount: 2
Fore
SplineSet
128 0 m 1,0,-1
 0 0 l 1,1,-1
 0 512 l 1,2,-1
 128 512 l 1,3,-1
 128 0 l 1,0,-1
128 512 m 1,4,-1
 128 640 l 1,5,-1
 256 640 l 1,6,-1
 256 512 l 1,7,-1
 128 512 l 1,4,-1
EndSplineSet
EndChar

StartChar: uni0180
Encoding: 384 384 320
Width: 640
GlyphClass: 1
Flags: W
LayerCount: 2
Fore
SplineSet
256 128 m 1,0,-1
 384 128 l 1,1,-1
 384 0 l 1,2,-1
 128 0 l 1,3,-1
 128 512 l 1,4,-1
 0 512 l 1,5,-1
 0 640 l 1,6,-1
 128 640 l 1,7,-1
 128 768 l 1,8,-1
 256 768 l 1,9,-1
 256 640 l 1,10,-1
 384 640 l 1,11,-1
 384 384 l 1,12,-1
 256 384 l 1,13,-1
 256 128 l 1,0,-1
384 128 m 1,14,-1
 384 384 l 1,15,-1
 512 384 l 1,16,-1
 512 128 l 1,17,-1
 384 128 l 1,14,-1
EndSplineSet
EndChar

StartChar: uni0181
Encoding: 385 385 321
Width: 768
GlyphClass: 1
Flags: W
LayerCount: 2
Fore
SplineSet
640 128 m 1,0,-1
 512 128 l 1,1,-1
 512 256 l 1,2,-1
 640 256 l 1,3,-1
 640 128 l 1,0,-1
256 128 m 1,4,-1
 512 128 l 1,5,-1
 512 0 l 1,6,-1
 128 0 l 1,7,-1
 128 512 l 1,8,-1
 0 512 l 1,9,-1
 0 640 l 1,10,-1
 512 640 l 1,11,-1
 512 512 l 1,12,-1
 256 512 l 1,13,-1
 256 384 l 1,14,-1
 512 384 l 1,15,-1
 512 256 l 1,16,-1
 256 256 l 1,17,-1
 256 128 l 1,4,-1
640 384 m 1,18,-1
 512 384 l 1,19,-1
 512 512 l 1,20,-1
 640 512 l 1,21,-1
 640 384 l 1,18,-1
EndSplineSet
EndChar

StartChar: uni0186
Encoding: 390 390 322
Width: 512
GlyphClass: 1
Flags: W
LayerCount: 2
Fore
SplineSet
256 128 m 1,0,-1
 256 0 l 1,1,-1
 0 0 l 1,2,-1
 0 128 l 1,3,-1
 256 128 l 1,0,-1
384 128 m 1,4,-1
 256 128 l 1,5,-1
 256 512 l 1,6,-1
 384 512 l 1,7,-1
 384 128 l 1,4,-1
0 512 m 1,8,-1
 0 640 l 1,9,-1
 256 640 l 1,10,-1
 256 512 l 1,11,-1
 0 512 l 1,8,-1
EndSplineSet
EndChar

StartChar: uni0187
Encoding: 391 391 323
Width: 768
GlyphClass: 1
Flags: W
LayerCount: 2
Fore
SplineSet
128 128 m 1,0,-1
 0 128 l 1,1,-1
 0 512 l 1,2,-1
 128 512 l 1,3,-1
 128 128 l 1,0,-1
384 128 m 1,4,-1
 384 0 l 1,5,-1
 128 0 l 1,6,-1
 128 128 l 1,7,-1
 384 128 l 1,4,-1
512 128 m 1,8,-1
 384 128 l 1,9,-1
 384 256 l 1,10,-1
 512 256 l 1,11,-1
 512 128 l 1,8,-1
384 384 m 1,12,-1
 384 512 l 1,13,-1
 512 512 l 1,14,-1
 512 384 l 1,15,-1
 384 384 l 1,12,-1
128 512 m 1,16,-1
 128 640 l 1,17,-1
 384 640 l 1,18,-1
 384 512 l 1,19,-1
 128 512 l 1,16,-1
512 512 m 1,20,-1
 512 640 l 1,21,-1
 640 640 l 1,22,-1
 640 512 l 1,23,-1
 512 512 l 1,20,-1
EndSplineSet
EndChar

StartChar: uni0188
Encoding: 392 392 324
Width: 640
GlyphClass: 1
Flags: W
LayerCount: 2
Fore
SplineSet
128 128 m 1,0,-1
 0 128 l 1,1,-1
 0 384 l 1,2,-1
 128 384 l 1,3,-1
 128 128 l 1,0,-1
128 0 m 1,4,-1
 128 128 l 1,5,-1
 384 128 l 1,6,-1
 384 0 l 1,7,-1
 128 0 l 1,4,-1
128 384 m 1,8,-1
 128 512 l 1,9,-1
 384 512 l 1,10,-1
 384 384 l 1,11,-1
 128 384 l 1,8,-1
384 512 m 1,12,-1
 384 640 l 1,13,-1
 512 640 l 1,14,-1
 512 512 l 1,15,-1
 384 512 l 1,12,-1
EndSplineSet
EndChar

StartChar: uni0189
Encoding: 393 393 325
Width: 640
GlyphClass: 1
Flags: W
LayerCount: 2
Fore
SplineSet
512 128 m 1,0,-1
 384 128 l 1,1,-1
 384 512 l 1,2,-1
 512 512 l 1,3,-1
 512 128 l 1,0,-1
128 128 m 1,4,-1
 384 128 l 1,5,-1
 384 0 l 1,6,-1
 0 0 l 1,7,-1
 0 640 l 1,8,-1
 384 640 l 1,9,-1
 384 512 l 1,10,-1
 128 512 l 1,11,-1
 128 384 l 1,12,-1
 256 384 l 1,13,-1
 256 256 l 1,14,-1
 128 256 l 1,15,-1
 128 128 l 1,4,-1
EndSplineSet
EndChar

StartChar: uni018A
Encoding: 394 394 326
Width: 768
GlyphClass: 1
Flags: W
LayerCount: 2
Fore
SplineSet
640 128 m 1,0,-1
 512 128 l 1,1,-1
 512 512 l 1,2,-1
 640 512 l 1,3,-1
 640 128 l 1,0,-1
256 128 m 1,4,-1
 512 128 l 1,5,-1
 512 0 l 1,6,-1
 128 0 l 1,7,-1
 128 512 l 1,8,-1
 0 512 l 1,9,-1
 0 640 l 1,10,-1
 512 640 l 1,11,-1
 512 512 l 1,12,-1
 256 512 l 1,13,-1
 256 128 l 1,4,-1
EndSplineSet
EndChar

StartChar: uni018E
Encoding: 398 398 327
Width: 640
GlyphClass: 1
Flags: W
LayerCount: 2
Fore
SplineSet
0 0 m 1,0,-1
 0 128 l 1,1,-1
 384 128 l 1,2,-1
 384 256 l 1,3,-1
 128 256 l 1,4,-1
 128 384 l 1,5,-1
 384 384 l 1,6,-1
 384 512 l 1,7,-1
 0 512 l 1,8,-1
 0 640 l 1,9,-1
 512 640 l 1,10,-1
 512 0 l 1,11,-1
 0 0 l 1,0,-1
EndSplineSet
EndChar

StartChar: uni018F
Encoding: 399 399 328
Width: 640
GlyphClass: 1
Flags: W
LayerCount: 2
Fore
SplineSet
128 128 m 1,0,-1
 0 128 l 1,1,-1
 0 384 l 1,2,-1
 384 384 l 1,3,-1
 384 512 l 1,4,-1
 512 512 l 1,5,-1
 512 128 l 1,6,-1
 384 128 l 1,7,-1
 384 256 l 1,8,-1
 128 256 l 1,9,-1
 128 128 l 1,0,-1
384 128 m 1,10,-1
 384 0 l 1,11,-1
 128 0 l 1,12,-1
 128 128 l 1,13,-1
 384 128 l 1,10,-1
128 512 m 1,14,-1
 128 640 l 1,15,-1
 384 640 l 1,16,-1
 384 512 l 1,17,-1
 128 512 l 1,14,-1
EndSplineSet
EndChar

StartChar: uni0190
Encoding: 400 400 329
Width: 640
GlyphClass: 1
Flags: W
LayerCount: 2
Fore
SplineSet
128 128 m 1,0,-1
 0 128 l 1,1,-1
 0 256 l 1,2,-1
 128 256 l 1,3,-1
 128 128 l 1,0,-1
128 0 m 1,4,-1
 128 128 l 1,5,-1
 512 128 l 1,6,-1
 512 0 l 1,7,-1
 128 0 l 1,4,-1
0 384 m 1,8,-1
 0 512 l 1,9,-1
 128 512 l 1,10,-1
 128 384 l 1,11,-1
 0 384 l 1,8,-1
128 384 m 1,12,-1
 384 384 l 1,13,-1
 384 256 l 1,14,-1
 128 256 l 1,15,-1
 128 384 l 1,12,-1
128 512 m 1,16,-1
 128 640 l 1,17,-1
 512 640 l 1,18,-1
 512 512 l 1,19,-1
 128 512 l 1,16,-1
EndSplineSet
EndChar

StartChar: uni0191
Encoding: 401 401 330
Width: 768
GlyphClass: 1
Flags: W
LayerCount: 2
Fore
SplineSet
0 0 m 1,0,-1
 0 128 l 1,1,-1
 128 128 l 1,2,-1
 128 640 l 1,3,-1
 640 640 l 1,4,-1
 640 512 l 1,5,-1
 256 512 l 1,6,-1
 256 384 l 1,7,-1
 512 384 l 1,8,-1
 512 256 l 1,9,-1
 256 256 l 1,10,-1
 256 0 l 1,11,-1
 0 0 l 1,0,-1
EndSplineSet
EndChar

StartChar: florin
Encoding: 402 402 331
Width: 512
GlyphClass: 1
Flags: W
LayerCount: 2
Fore
SplineSet
128 0 m 1,0,-1
 128 -128 l 1,1,-1
 0 -128 l 1,2,-1
 0 0 l 1,3,-1
 128 0 l 1,0,-1
256 0 m 1,4,-1
 128 0 l 1,5,-1
 128 512 l 1,6,-1
 256 512 l 1,7,-1
 256 384 l 1,8,-1
 384 384 l 1,9,-1
 384 256 l 1,10,-1
 256 256 l 1,11,-1
 256 0 l 1,4,-1
256 512 m 1,12,-1
 256 640 l 1,13,-1
 384 640 l 1,14,-1
 384 512 l 1,15,-1
 256 512 l 1,12,-1
EndSplineSet
EndChar

StartChar: uni0193
Encoding: 403 403 332
Width: 768
GlyphClass: 1
Flags: W
LayerCount: 2
Fore
SplineSet
128 0 m 1,0,-1
 128 128 l 1,1,-1
 384 128 l 1,2,-1
 384 256 l 1,3,-1
 256 256 l 1,4,-1
 256 384 l 1,5,-1
 512 384 l 1,6,-1
 512 0 l 1,7,-1
 128 0 l 1,0,-1
128 128 m 1,8,-1
 0 128 l 1,9,-1
 0 512 l 1,10,-1
 128 512 l 1,11,-1
 128 128 l 1,8,-1
512 640 m 1,12,-1
 512 512 l 1,13,-1
 128 512 l 1,14,-1
 128 640 l 1,15,-1
 512 640 l 1,12,-1
640 640 m 1,16,-1
 512 640 l 1,17,-1
 512 768 l 1,18,-1
 640 768 l 1,19,-1
 640 640 l 1,16,-1
EndSplineSet
EndChar

StartChar: uni0194
Encoding: 404 404 333
Width: 512
GlyphClass: 1
Flags: W
LayerCount: 2
Fore
SplineSet
128 -128 m 1,0,-1
 128 0 l 1,1,-1
 256 0 l 1,2,-1
 256 -128 l 1,3,-1
 128 -128 l 1,0,-1
128 128 m 1,4,-1
 128 0 l 1,5,-1
 0 0 l 1,6,-1
 0 128 l 1,7,-1
 128 128 l 1,4,-1
256 128 m 1,8,-1
 128 128 l 1,9,-1
 128 384 l 1,10,-1
 256 384 l 1,11,-1
 256 128 l 1,8,-1
256 0 m 1,12,-1
 256 128 l 1,13,-1
 384 128 l 1,14,-1
 384 0 l 1,15,-1
 256 0 l 1,12,-1
128 384 m 1,16,-1
 0 384 l 1,17,-1
 0 640 l 1,18,-1
 128 640 l 1,19,-1
 128 384 l 1,16,-1
256 384 m 1,20,-1
 256 640 l 1,21,-1
 384 640 l 1,22,-1
 384 384 l 1,23,-1
 256 384 l 1,20,-1
EndSplineSet
EndChar

StartChar: uni0196
Encoding: 406 406 334
Width: 256
GlyphClass: 1
Flags: W
LayerCount: 2
Fore
SplineSet
128 0 m 1,0,-1
 0 0 l 1,1,-1
 0 640 l 1,2,-1
 128 640 l 1,3,-1
 128 0 l 1,0,-1
EndSplineSet
EndChar

StartChar: uni0197
Encoding: 407 407 335
Width: 512
GlyphClass: 1
Flags: W
LayerCount: 2
Fore
SplineSet
256 0 m 1,0,-1
 128 0 l 1,1,-1
 128 256 l 1,2,-1
 0 256 l 1,3,-1
 0 384 l 1,4,-1
 128 384 l 1,5,-1
 128 640 l 1,6,-1
 256 640 l 1,7,-1
 256 384 l 1,8,-1
 384 384 l 1,9,-1
 384 256 l 1,10,-1
 256 256 l 1,11,-1
 256 0 l 1,0,-1
EndSplineSet
EndChar

StartChar: uni0198
Encoding: 408 408 336
Width: 640
GlyphClass: 1
Flags: W
LayerCount: 2
Fore
SplineSet
384 128 m 1,0,-1
 256 128 l 1,1,-1
 256 256 l 1,2,-1
 384 256 l 1,3,-1
 384 128 l 1,0,-1
128 0 m 1,4,-1
 0 0 l 1,5,-1
 0 640 l 1,6,-1
 128 640 l 1,7,-1
 128 384 l 1,8,-1
 256 384 l 1,9,-1
 256 256 l 1,10,-1
 128 256 l 1,11,-1
 128 0 l 1,4,-1
384 0 m 1,12,-1
 384 128 l 1,13,-1
 512 128 l 1,14,-1
 512 0 l 1,15,-1
 384 0 l 1,12,-1
256 384 m 1,16,-1
 256 512 l 1,17,-1
 384 512 l 1,18,-1
 384 384 l 1,19,-1
 256 384 l 1,16,-1
128 640 m 1,20,-1
 128 768 l 1,21,-1
 256 768 l 1,22,-1
 256 640 l 1,23,-1
 128 640 l 1,20,-1
384 512 m 1,24,-1
 384 640 l 1,25,-1
 512 640 l 1,26,-1
 512 512 l 1,27,-1
 384 512 l 1,24,-1
EndSplineSet
EndChar

StartChar: uni0199
Encoding: 409 409 337
Width: 512
GlyphClass: 1
Flags: W
LayerCount: 2
Fore
SplineSet
128 0 m 1,0,-1
 0 0 l 1,1,-1
 0 640 l 1,2,-1
 128 640 l 1,3,-1
 128 384 l 1,4,-1
 256 384 l 1,5,-1
 256 256 l 1,6,-1
 128 256 l 1,7,-1
 128 0 l 1,0,-1
384 0 m 1,8,-1
 256 0 l 1,9,-1
 256 256 l 1,10,-1
 384 256 l 1,11,-1
 384 0 l 1,8,-1
256 384 m 1,12,-1
 256 512 l 1,13,-1
 384 512 l 1,14,-1
 384 384 l 1,15,-1
 256 384 l 1,12,-1
128 640 m 1,16,-1
 128 768 l 1,17,-1
 256 768 l 1,18,-1
 256 640 l 1,19,-1
 128 640 l 1,16,-1
EndSplineSet
EndChar

StartChar: uni019A
Encoding: 410 410 338
Width: 512
GlyphClass: 1
Flags: W
LayerCount: 2
Fore
SplineSet
256 0 m 1,0,-1
 128 0 l 1,1,-1
 128 256 l 1,2,-1
 0 256 l 1,3,-1
 0 384 l 1,4,-1
 128 384 l 1,5,-1
 128 640 l 1,6,-1
 256 640 l 1,7,-1
 256 384 l 1,8,-1
 384 384 l 1,9,-1
 384 256 l 1,10,-1
 256 256 l 1,11,-1
 256 0 l 1,0,-1
EndSplineSet
EndChar

StartChar: uni019B
Encoding: 411 411 339
Width: 640
GlyphClass: 1
Flags: W
LayerCount: 2
Fore
SplineSet
256 0 m 1,0,-1
 128 0 l 1,1,-1
 128 256 l 1,2,-1
 256 256 l 1,3,-1
 256 0 l 1,0,-1
512 0 m 1,4,-1
 384 0 l 1,5,-1
 384 256 l 1,6,-1
 512 256 l 1,7,-1
 512 0 l 1,4,-1
0 384 m 1,8,-1
 0 512 l 1,9,-1
 128 512 l 1,10,-1
 128 640 l 1,11,-1
 256 640 l 1,12,-1
 256 512 l 1,13,-1
 384 512 l 1,14,-1
 384 256 l 1,15,-1
 256 256 l 1,16,-1
 256 384 l 1,17,-1
 0 384 l 1,8,-1
EndSplineSet
EndChar

StartChar: uni019C
Encoding: 412 412 340
Width: 768
GlyphClass: 1
Flags: W
LayerCount: 2
Fore
SplineSet
128 0 m 1,0,-1
 128 128 l 1,1,-1
 256 128 l 1,2,-1
 256 640 l 1,3,-1
 384 640 l 1,4,-1
 384 128 l 1,5,-1
 512 128 l 1,6,-1
 512 640 l 1,7,-1
 640 640 l 1,8,-1
 640 0 l 1,9,-1
 128 0 l 1,0,-1
128 128 m 1,10,-1
 0 128 l 1,11,-1
 0 640 l 1,12,-1
 128 640 l 1,13,-1
 128 128 l 1,10,-1
EndSplineSet
EndChar

StartChar: uni019D
Encoding: 413 413 341
Width: 768
GlyphClass: 1
Flags: W
LayerCount: 2
Fore
SplineSet
0 0 m 1,0,-1
 128 0 l 1,1,-1
 128 -128 l 1,2,-1
 0 -128 l 1,3,-1
 0 0 l 1,0,-1
128 0 m 1,4,-1
 128 640 l 1,5,-1
 256 640 l 1,6,-1
 256 512 l 1,7,-1
 384 512 l 1,8,-1
 384 384 l 1,9,-1
 256 384 l 1,10,-1
 256 0 l 1,11,-1
 128 0 l 1,4,-1
640 0 m 1,12,-1
 512 0 l 1,13,-1
 512 256 l 1,14,-1
 384 256 l 1,15,-1
 384 384 l 1,16,-1
 512 384 l 1,17,-1
 512 640 l 1,18,-1
 640 640 l 1,19,-1
 640 0 l 1,12,-1
EndSplineSet
EndChar

StartChar: uni019E
Encoding: 414 414 342
Width: 512
GlyphClass: 1
Flags: W
LayerCount: 2
Fore
SplineSet
384 -128 m 1,0,-1
 256 -128 l 1,1,-1
 256 384 l 1,2,-1
 384 384 l 1,3,-1
 384 -128 l 1,0,-1
128 0 m 1,4,-1
 0 0 l 1,5,-1
 0 512 l 1,6,-1
 256 512 l 1,7,-1
 256 384 l 1,8,-1
 128 384 l 1,9,-1
 128 0 l 1,4,-1
EndSplineSet
EndChar

StartChar: uni019F
Encoding: 415 415 343
Width: 640
GlyphClass: 1
Flags: W
LayerCount: 2
Fore
SplineSet
128 128 m 1,0,-1
 0 128 l 1,1,-1
 0 512 l 1,2,-1
 128 512 l 1,3,-1
 128 384 l 1,4,-1
 384 384 l 1,5,-1
 384 512 l 1,6,-1
 512 512 l 1,7,-1
 512 128 l 1,8,-1
 384 128 l 1,9,-1
 384 256 l 1,10,-1
 128 256 l 1,11,-1
 128 128 l 1,0,-1
384 128 m 1,12,-1
 384 0 l 1,13,-1
 128 0 l 1,14,-1
 128 128 l 1,15,-1
 384 128 l 1,12,-1
128 512 m 1,16,-1
 128 640 l 1,17,-1
 384 640 l 1,18,-1
 384 512 l 1,19,-1
 128 512 l 1,16,-1
EndSplineSet
EndChar

StartChar: uni01A4
Encoding: 420 420 344
Width: 768
GlyphClass: 1
Flags: W
LayerCount: 2
Fore
SplineSet
256 0 m 1,0,-1
 128 0 l 1,1,-1
 128 640 l 1,2,-1
 512 640 l 1,3,-1
 512 512 l 1,4,-1
 256 512 l 1,5,-1
 256 384 l 1,6,-1
 512 384 l 1,7,-1
 512 256 l 1,8,-1
 256 256 l 1,9,-1
 256 0 l 1,0,-1
640 384 m 1,10,-1
 512 384 l 1,11,-1
 512 512 l 1,12,-1
 640 512 l 1,13,-1
 640 384 l 1,10,-1
0 640 m 1,14,-1
 0 768 l 1,15,-1
 128 768 l 1,16,-1
 128 640 l 1,17,-1
 0 640 l 1,14,-1
EndSplineSet
EndChar

StartChar: uni01A5
Encoding: 421 421 345
Width: 512
GlyphClass: 1
Flags: W
LayerCount: 2
Fore
SplineSet
256 128 m 1,0,-1
 256 0 l 1,1,-1
 128 0 l 1,2,-1
 128 -128 l 1,3,-1
 0 -128 l 1,4,-1
 0 512 l 1,5,-1
 128 512 l 1,6,-1
 128 640 l 1,7,-1
 256 640 l 1,8,-1
 256 384 l 1,9,-1
 128 384 l 1,10,-1
 128 128 l 1,11,-1
 256 128 l 1,0,-1
384 128 m 1,12,-1
 256 128 l 1,13,-1
 256 384 l 1,14,-1
 384 384 l 1,15,-1
 384 128 l 1,12,-1
EndSplineSet
EndChar

StartChar: uni01A9
Encoding: 425 425 346
Width: 640
GlyphClass: 1
Flags: W
LayerCount: 2
Fore
SplineSet
512 128 m 1,0,-1
 512 0 l 1,1,-1
 0 0 l 1,2,-1
 0 128 l 1,3,-1
 128 128 l 1,4,-1
 128 256 l 1,5,-1
 256 256 l 1,6,-1
 256 128 l 1,7,-1
 512 128 l 1,0,-1
128 384 m 1,8,-1
 128 512 l 1,9,-1
 0 512 l 1,10,-1
 0 640 l 1,11,-1
 512 640 l 1,12,-1
 512 512 l 1,13,-1
 256 512 l 1,14,-1
 256 384 l 1,15,-1
 128 384 l 1,8,-1
256 384 m 1,16,-1
 384 384 l 1,17,-1
 384 256 l 1,18,-1
 256 256 l 1,19,-1
 256 384 l 1,16,-1
EndSplineSet
EndChar

StartChar: uni01AC
Encoding: 428 428 347
Width: 640
GlyphClass: 1
Flags: W
LayerCount: 2
Fore
SplineSet
384 0 m 1,0,-1
 256 0 l 1,1,-1
 256 512 l 1,2,-1
 128 512 l 1,3,-1
 128 640 l 1,4,-1
 512 640 l 1,5,-1
 512 512 l 1,6,-1
 384 512 l 1,7,-1
 384 0 l 1,0,-1
0 384 m 1,8,-1
 0 512 l 1,9,-1
 128 512 l 1,10,-1
 128 384 l 1,11,-1
 0 384 l 1,8,-1
EndSplineSet
EndChar

StartChar: uni01AD
Encoding: 429 429 348
Width: 384
GlyphClass: 1
Flags: W
LayerCount: 2
Fore
SplineSet
128 128 m 1,0,-1
 0 128 l 1,1,-1
 0 640 l 1,2,-1
 128 640 l 1,3,-1
 128 512 l 1,4,-1
 256 512 l 1,5,-1
 256 384 l 1,6,-1
 128 384 l 1,7,-1
 128 128 l 1,0,-1
128 0 m 1,8,-1
 128 128 l 1,9,-1
 256 128 l 1,10,-1
 256 0 l 1,11,-1
 128 0 l 1,8,-1
128 640 m 1,12,-1
 128 768 l 1,13,-1
 256 768 l 1,14,-1
 256 640 l 1,15,-1
 128 640 l 1,12,-1
EndSplineSet
EndChar

StartChar: uni01AE
Encoding: 430 430 349
Width: 512
GlyphClass: 1
Flags: W
LayerCount: 2
Fore
SplineSet
256 0 m 1,0,-1
 128 0 l 1,1,-1
 128 512 l 1,2,-1
 0 512 l 1,3,-1
 0 640 l 1,4,-1
 384 640 l 1,5,-1
 384 512 l 1,6,-1
 256 512 l 1,7,-1
 256 0 l 1,0,-1
256 -128 m 1,8,-1
 256 0 l 1,9,-1
 384 0 l 1,10,-1
 384 -128 l 1,11,-1
 256 -128 l 1,8,-1
EndSplineSet
EndChar

StartChar: uni01B1
Encoding: 433 433 350
Width: 768
GlyphClass: 1
Flags: W
LayerCount: 2
Fore
SplineSet
640 128 m 1,0,-1
 512 128 l 1,1,-1
 512 384 l 1,2,-1
 640 384 l 1,3,-1
 640 128 l 1,0,-1
128 128 m 1,4,-1
 0 128 l 1,5,-1
 0 384 l 1,6,-1
 128 384 l 1,7,-1
 128 128 l 1,4,-1
512 128 m 1,8,-1
 512 0 l 1,9,-1
 128 0 l 1,10,-1
 128 128 l 1,11,-1
 512 128 l 1,8,-1
128 384 m 1,12,-1
 128 512 l 1,13,-1
 0 512 l 1,14,-1
 0 640 l 1,15,-1
 256 640 l 1,16,-1
 256 384 l 1,17,-1
 128 384 l 1,12,-1
512 384 m 1,18,-1
 384 384 l 1,19,-1
 384 640 l 1,20,-1
 640 640 l 1,21,-1
 640 512 l 1,22,-1
 512 512 l 1,23,-1
 512 384 l 1,18,-1
EndSplineSet
EndChar

StartChar: uni01B2
Encoding: 434 434 351
Width: 640
GlyphClass: 1
Flags: W
LayerCount: 2
Fore
SplineSet
128 128 m 1,0,-1
 0 128 l 1,1,-1
 0 640 l 1,2,-1
 128 640 l 1,3,-1
 128 128 l 1,0,-1
384 128 m 1,4,-1
 384 0 l 1,5,-1
 128 0 l 1,6,-1
 128 128 l 1,7,-1
 384 128 l 1,4,-1
512 128 m 1,8,-1
 384 128 l 1,9,-1
 384 512 l 1,10,-1
 512 512 l 1,11,-1
 512 128 l 1,8,-1
256 512 m 1,12,-1
 256 640 l 1,13,-1
 384 640 l 1,14,-1
 384 512 l 1,15,-1
 256 512 l 1,12,-1
EndSplineSet
EndChar

StartChar: uni01B3
Encoding: 435 435 352
Width: 640
GlyphClass: 1
Flags: W
LayerCount: 2
Fore
SplineSet
256 0 m 1,0,-1
 128 0 l 1,1,-1
 128 384 l 1,2,-1
 256 384 l 1,3,-1
 256 0 l 1,0,-1
128 384 m 1,4,-1
 0 384 l 1,5,-1
 0 640 l 1,6,-1
 128 640 l 1,7,-1
 128 384 l 1,4,-1
256 384 m 1,8,-1
 256 640 l 1,9,-1
 512 640 l 1,10,-1
 512 512 l 1,11,-1
 384 512 l 1,12,-1
 384 384 l 1,13,-1
 256 384 l 1,8,-1
EndSplineSet
EndChar

StartChar: uni01B4
Encoding: 436 436 353
Width: 640
GlyphClass: 1
Flags: W
LayerCount: 2
Fore
SplineSet
0 -128 m 1,0,-1
 0 0 l 1,1,-1
 128 0 l 1,2,-1
 128 -128 l 1,3,-1
 0 -128 l 1,0,-1
128 128 m 1,4,-1
 0 128 l 1,5,-1
 0 512 l 1,6,-1
 128 512 l 1,7,-1
 128 128 l 1,4,-1
256 128 m 1,8,-1
 256 0 l 1,9,-1
 128 0 l 1,10,-1
 128 128 l 1,11,-1
 256 128 l 1,8,-1
384 128 m 1,12,-1
 256 128 l 1,13,-1
 256 512 l 1,14,-1
 384 512 l 1,15,-1
 384 128 l 1,12,-1
384 512 m 1,16,-1
 384 640 l 1,17,-1
 512 640 l 1,18,-1
 512 512 l 1,19,-1
 384 512 l 1,16,-1
EndSplineSet
EndChar

StartChar: uni01B5
Encoding: 437 437 354
Width: 768
GlyphClass: 1
Flags: W
LayerCount: 2
Fore
SplineSet
512 128 m 1,0,-1
 512 0 l 1,1,-1
 128 0 l 1,2,-1
 128 256 l 1,3,-1
 256 256 l 1,4,-1
 256 128 l 1,5,-1
 512 128 l 1,0,-1
512 384 m 1,6,-1
 384 384 l 1,7,-1
 384 512 l 1,8,-1
 128 512 l 1,9,-1
 128 640 l 1,10,-1
 512 640 l 1,11,-1
 512 384 l 1,6,-1
384 384 m 1,12,-1
 384 256 l 1,13,-1
 256 256 l 1,14,-1
 256 384 l 1,15,-1
 384 384 l 1,12,-1
0 256 m 1,16,-1
 0 384 l 1,17,-1
 128 384 l 1,18,-1
 128 256 l 1,19,-1
 0 256 l 1,16,-1
640 384 m 1,20,-1
 640 256 l 1,21,-1
 512 256 l 1,22,-1
 512 384 l 1,23,-1
 640 384 l 1,20,-1
EndSplineSet
EndChar

StartChar: uni01B6
Encoding: 438 438 355
Width: 768
GlyphClass: 1
Flags: W
LayerCount: 2
Fore
SplineSet
512 128 m 1,0,-1
 512 0 l 1,1,-1
 128 0 l 1,2,-1
 128 256 l 1,3,-1
 256 256 l 1,4,-1
 256 128 l 1,5,-1
 512 128 l 1,0,-1
512 384 m 1,6,-1
 384 384 l 1,7,-1
 384 256 l 1,8,-1
 256 256 l 1,9,-1
 256 384 l 1,10,-1
 128 384 l 1,11,-1
 128 512 l 1,12,-1
 512 512 l 1,13,-1
 512 384 l 1,6,-1
128 384 m 1,14,-1
 128 256 l 1,15,-1
 0 256 l 1,16,-1
 0 384 l 1,17,-1
 128 384 l 1,14,-1
640 384 m 1,18,-1
 640 256 l 1,19,-1
 512 256 l 1,20,-1
 512 384 l 1,21,-1
 640 384 l 1,18,-1
EndSplineSet
EndChar

StartChar: uni01B7
Encoding: 439 439 356
Width: 512
GlyphClass: 1
Flags: W
AnchorPoint: "top" 128 640 basechar 0
LayerCount: 2
Fore
SplineSet
256 0 m 1,0,-1
 256 -128 l 1,1,-1
 0 -128 l 1,2,-1
 0 0 l 1,3,-1
 256 0 l 1,0,-1
384 0 m 1,4,-1
 256 0 l 1,5,-1
 256 256 l 1,6,-1
 384 256 l 1,7,-1
 384 0 l 1,4,-1
256 384 m 1,8,-1
 256 256 l 1,9,-1
 128 256 l 1,10,-1
 128 384 l 1,11,-1
 256 384 l 1,8,-1
384 384 m 1,12,-1
 256 384 l 1,13,-1
 256 512 l 1,14,-1
 0 512 l 1,15,-1
 0 640 l 1,16,-1
 384 640 l 1,17,-1
 384 384 l 1,12,-1
EndSplineSet
EndChar

StartChar: uni01B8
Encoding: 440 440 357
Width: 512
GlyphClass: 1
Flags: W
AnchorPoint: "top" 128 640 basechar 0
LayerCount: 2
Fore
SplineSet
128 0 m 1,0,-1
 0 0 l 1,1,-1
 0 256 l 1,2,-1
 128 256 l 1,3,-1
 128 0 l 1,0,-1
128 -128 m 1,4,-1
 128 0 l 1,5,-1
 384 0 l 1,6,-1
 384 -128 l 1,7,-1
 128 -128 l 1,4,-1
128 384 m 1,8,-1
 0 384 l 1,9,-1
 0 640 l 1,10,-1
 384 640 l 1,11,-1
 384 512 l 1,12,-1
 128 512 l 1,13,-1
 128 384 l 1,8,-1
128 256 m 1,14,-1
 128 384 l 1,15,-1
 256 384 l 1,16,-1
 256 256 l 1,17,-1
 128 256 l 1,14,-1
EndSplineSet
EndChar

StartChar: uni01B9
Encoding: 441 441 358
Width: 512
GlyphClass: 1
Flags: W
LayerCount: 2
Fore
SplineSet
256 128 m 1,0,-1
 128 128 l 1,1,-1
 128 256 l 1,2,-1
 256 256 l 1,3,-1
 256 128 l 1,0,-1
128 128 m 1,4,-1
 128 0 l 1,5,-1
 0 0 l 1,6,-1
 0 128 l 1,7,-1
 128 128 l 1,4,-1
128 0 m 1,8,-1
 384 0 l 1,9,-1
 384 -128 l 1,10,-1
 128 -128 l 1,11,-1
 128 0 l 1,8,-1
128 384 m 1,12,-1
 128 256 l 1,13,-1
 0 256 l 1,14,-1
 0 512 l 1,15,-1
 384 512 l 1,16,-1
 384 384 l 1,17,-1
 128 384 l 1,12,-1
EndSplineSet
EndChar

StartChar: uni01C0
Encoding: 448 448 359
Width: 256
GlyphClass: 1
Flags: W
LayerCount: 2
Fore
SplineSet
128 0 m 1,0,-1
 0 0 l 1,1,-1
 0 640 l 1,2,-1
 128 640 l 1,3,-1
 128 0 l 1,0,-1
EndSplineSet
EndChar

StartChar: uni01C1
Encoding: 449 449 360
Width: 512
GlyphClass: 1
Flags: W
LayerCount: 2
Fore
SplineSet
128 0 m 1,0,-1
 0 0 l 1,1,-1
 0 640 l 1,2,-1
 128 640 l 1,3,-1
 128 0 l 1,0,-1
384 0 m 1,4,-1
 256 0 l 1,5,-1
 256 640 l 1,6,-1
 384 640 l 1,7,-1
 384 0 l 1,4,-1
EndSplineSet
EndChar

StartChar: uni01C2
Encoding: 450 450 361
Width: 512
GlyphClass: 1
Flags: W
LayerCount: 2
Fore
SplineSet
0 128 m 1,0,-1
 0 256 l 1,1,-1
 128 256 l 1,2,-1
 128 384 l 1,3,-1
 0 384 l 1,4,-1
 0 512 l 1,5,-1
 128 512 l 1,6,-1
 128 640 l 1,7,-1
 256 640 l 1,8,-1
 256 512 l 1,9,-1
 384 512 l 1,10,-1
 384 384 l 1,11,-1
 256 384 l 1,12,-1
 256 256 l 1,13,-1
 384 256 l 1,14,-1
 384 128 l 1,15,-1
 256 128 l 1,16,-1
 256 0 l 1,17,-1
 128 0 l 1,18,-1
 128 128 l 1,19,-1
 0 128 l 1,0,-1
EndSplineSet
EndChar

StartChar: uni01C3
Encoding: 451 451 362
Width: 256
GlyphClass: 1
Flags: W
LayerCount: 2
Fore
SplineSet
0 0 m 1,0,-1
 0 128 l 1,1,-1
 128 128 l 1,2,-1
 128 0 l 1,3,-1
 0 0 l 1,0,-1
128 256 m 1,4,-1
 0 256 l 1,5,-1
 0 640 l 1,6,-1
 128 640 l 1,7,-1
 128 256 l 1,4,-1
EndSplineSet
EndChar

StartChar: uni01DD
Encoding: 477 477 379
Width: 512
GlyphClass: 1
Flags: W
LayerCount: 2
Fore
SplineSet
256 128 m 1,0,-1
 256 0 l 1,1,-1
 0 0 l 1,2,-1
 0 128 l 1,3,-1
 256 128 l 1,0,-1
384 128 m 1,4,-1
 256 128 l 1,5,-1
 256 256 l 1,6,-1
 0 256 l 1,7,-1
 0 384 l 1,8,-1
 128 384 l 1,9,-1
 128 512 l 1,10,-1
 256 512 l 1,11,-1
 256 384 l 1,12,-1
 384 384 l 1,13,-1
 384 128 l 1,4,-1
EndSplineSet
EndChar

StartChar: uni01E4
Encoding: 484 484 386
Width: 768
GlyphClass: 1
Flags: W
LayerCount: 2
Fore
SplineSet
512 128 m 1,0,-1
 512 0 l 1,1,-1
 128 0 l 1,2,-1
 128 128 l 1,3,-1
 384 128 l 1,4,-1
 384 256 l 1,5,-1
 256 256 l 1,6,-1
 256 384 l 1,7,-1
 512 384 l 1,8,-1
 512 256 l 1,9,-1
 640 256 l 1,10,-1
 640 128 l 1,11,-1
 512 128 l 1,0,-1
128 128 m 1,12,-1
 0 128 l 1,13,-1
 0 512 l 1,14,-1
 128 512 l 1,15,-1
 128 128 l 1,12,-1
128 512 m 1,16,-1
 128 640 l 1,17,-1
 512 640 l 1,18,-1
 512 512 l 1,19,-1
 128 512 l 1,16,-1
EndSplineSet
EndChar

StartChar: uni01E5
Encoding: 485 485 387
Width: 640
GlyphClass: 1
Flags: W
LayerCount: 2
Fore
SplineSet
384 128 m 1,0,-1
 512 128 l 1,1,-1
 512 0 l 1,2,-1
 256 0 l 1,3,-1
 256 -128 l 1,4,-1
 0 -128 l 1,5,-1
 0 0 l 1,6,-1
 128 0 l 1,7,-1
 128 128 l 1,8,-1
 256 128 l 1,9,-1
 256 384 l 1,10,-1
 128 384 l 1,11,-1
 128 512 l 1,12,-1
 384 512 l 1,13,-1
 384 128 l 1,0,-1
128 128 m 1,14,-1
 0 128 l 1,15,-1
 0 384 l 1,16,-1
 128 384 l 1,17,-1
 128 128 l 1,14,-1
EndSplineSet
EndChar

StartChar: uni0220
Encoding: 544 544 436
Width: 512
GlyphClass: 1
Flags: W
LayerCount: 2
Fore
SplineSet
384 -128 m 1,0,-1
 256 -128 l 1,1,-1
 256 512 l 1,2,-1
 384 512 l 1,3,-1
 384 -128 l 1,0,-1
128 0 m 1,4,-1
 0 0 l 1,5,-1
 0 640 l 1,6,-1
 256 640 l 1,7,-1
 256 512 l 1,8,-1
 128 512 l 1,9,-1
 128 0 l 1,4,-1
EndSplineSet
EndChar

StartChar: uni0222
Encoding: 546 546 437
Width: 640
GlyphClass: 1
Flags: W
LayerCount: 2
Fore
SplineSet
0 128 m 1,0,-1
 0 256 l 1,1,-1
 128 256 l 1,2,-1
 128 128 l 1,3,-1
 0 128 l 1,0,-1
128 128 m 1,4,-1
 384 128 l 1,5,-1
 384 0 l 1,6,-1
 128 0 l 1,7,-1
 128 128 l 1,4,-1
384 128 m 1,8,-1
 384 256 l 1,9,-1
 512 256 l 1,10,-1
 512 128 l 1,11,-1
 384 128 l 1,8,-1
512 384 m 1,12,-1
 384 384 l 1,13,-1
 384 512 l 1,14,-1
 512 512 l 1,15,-1
 512 384 l 1,12,-1
0 384 m 1,16,-1
 0 512 l 1,17,-1
 128 512 l 1,18,-1
 128 384 l 1,19,-1
 0 384 l 1,16,-1
128 384 m 1,20,-1
 384 384 l 1,21,-1
 384 256 l 1,22,-1
 128 256 l 1,23,-1
 128 384 l 1,20,-1
256 512 m 1,24,-1
 256 640 l 1,25,-1
 384 640 l 1,26,-1
 384 512 l 1,27,-1
 256 512 l 1,24,-1
EndSplineSet
EndChar

StartChar: uni0223
Encoding: 547 547 438
Width: 640
GlyphClass: 1
Flags: W
LayerCount: 2
Fore
SplineSet
0 128 m 1,0,-1
 0 256 l 1,1,-1
 128 256 l 1,2,-1
 128 128 l 1,3,-1
 0 128 l 1,0,-1
128 128 m 1,4,-1
 384 128 l 1,5,-1
 384 0 l 1,6,-1
 128 0 l 1,7,-1
 128 128 l 1,4,-1
384 128 m 1,8,-1
 384 256 l 1,9,-1
 512 256 l 1,10,-1
 512 128 l 1,11,-1
 384 128 l 1,8,-1
512 384 m 1,12,-1
 384 384 l 1,13,-1
 384 512 l 1,14,-1
 512 512 l 1,15,-1
 512 384 l 1,12,-1
0 384 m 1,16,-1
 0 512 l 1,17,-1
 128 512 l 1,18,-1
 128 384 l 1,19,-1
 0 384 l 1,16,-1
128 384 m 1,20,-1
 384 384 l 1,21,-1
 384 256 l 1,22,-1
 128 256 l 1,23,-1
 128 384 l 1,20,-1
EndSplineSet
EndChar

StartChar: uni0237
Encoding: 567 567 453
Width: 256
GlyphClass: 1
Flags: W
AnchorPoint: "foot" 0 -128 basechar 0
AnchorPoint: "bottom" 0 -128 basechar 0
AnchorPoint: "top" 0 512 basechar 0
LayerCount: 2
Fore
SplineSet
128 -128 m 1,0,-1
 0 -128 l 1,1,-1
 0 512 l 1,2,-1
 128 512 l 1,3,-1
 128 -128 l 1,0,-1
EndSplineSet
EndChar

StartChar: uni023A
Encoding: 570 570 454
Width: 640
GlyphClass: 1
Flags: W
LayerCount: 2
Fore
SplineSet
256 -128 m 1,0,-1
 128 -128 l 1,1,-1
 128 0 l 1,2,-1
 256 0 l 1,3,-1
 256 -128 l 1,0,-1
128 0 m 1,4,-1
 0 0 l 1,5,-1
 0 512 l 1,6,-1
 128 512 l 1,7,-1
 128 384 l 1,8,-1
 384 384 l 1,9,-1
 384 512 l 1,10,-1
 512 512 l 1,11,-1
 512 0 l 1,12,-1
 384 0 l 1,13,-1
 384 256 l 1,14,-1
 128 256 l 1,15,-1
 128 0 l 1,4,-1
256 640 m 1,16,-1
 256 768 l 1,17,-1
 384 768 l 1,18,-1
 384 512 l 1,19,-1
 128 512 l 1,20,-1
 128 640 l 1,21,-1
 256 640 l 1,16,-1
EndSplineSet
EndChar

StartChar: uni023B
Encoding: 571 571 455
Width: 640
GlyphClass: 1
Flags: W
LayerCount: 2
Fore
SplineSet
512 128 m 1,0,-1
 384 128 l 1,1,-1
 384 256 l 1,2,-1
 512 256 l 1,3,-1
 512 128 l 1,0,-1
128 128 m 1,4,-1
 0 128 l 1,5,-1
 0 512 l 1,6,-1
 128 512 l 1,7,-1
 128 128 l 1,4,-1
384 128 m 1,8,-1
 384 0 l 1,9,-1
 128 0 l 1,10,-1
 128 128 l 1,11,-1
 384 128 l 1,8,-1
128 0 m 1,12,-1
 128 -128 l 1,13,-1
 0 -128 l 1,14,-1
 0 0 l 1,15,-1
 128 0 l 1,12,-1
384 384 m 1,16,-1
 384 512 l 1,17,-1
 512 512 l 1,18,-1
 512 384 l 1,19,-1
 384 384 l 1,16,-1
384 640 m 1,20,-1
 384 512 l 1,21,-1
 128 512 l 1,22,-1
 128 640 l 1,23,-1
 384 640 l 1,20,-1
512 640 m 1,24,-1
 384 640 l 1,25,-1
 384 768 l 1,26,-1
 512 768 l 1,27,-1
 512 640 l 1,24,-1
EndSplineSet
EndChar

StartChar: uni023C
Encoding: 572 572 456
Width: 512
GlyphClass: 1
Flags: W
LayerCount: 2
Fore
SplineSet
384 128 m 1,0,-1
 384 0 l 1,1,-1
 128 0 l 1,2,-1
 128 128 l 1,3,-1
 384 128 l 1,0,-1
128 128 m 1,4,-1
 0 128 l 1,5,-1
 0 384 l 1,6,-1
 128 384 l 1,7,-1
 128 128 l 1,4,-1
128 0 m 1,8,-1
 128 -128 l 1,9,-1
 0 -128 l 1,10,-1
 0 0 l 1,11,-1
 128 0 l 1,8,-1
128 384 m 1,12,-1
 128 512 l 1,13,-1
 256 512 l 1,14,-1
 256 640 l 1,15,-1
 384 640 l 1,16,-1
 384 384 l 1,17,-1
 128 384 l 1,12,-1
EndSplineSet
EndChar

StartChar: uni023D
Encoding: 573 573 457
Width: 640
GlyphClass: 1
Flags: W
LayerCount: 2
Fore
SplineSet
512 128 m 1,0,-1
 512 0 l 1,1,-1
 128 0 l 1,2,-1
 128 256 l 1,3,-1
 0 256 l 1,4,-1
 0 384 l 1,5,-1
 128 384 l 1,6,-1
 128 640 l 1,7,-1
 256 640 l 1,8,-1
 256 384 l 1,9,-1
 384 384 l 1,10,-1
 384 256 l 1,11,-1
 256 256 l 1,12,-1
 256 128 l 1,13,-1
 512 128 l 1,0,-1
EndSplineSet
EndChar

StartChar: uni023E
Encoding: 574 574 458
Width: 512
GlyphClass: 1
Flags: W
LayerCount: 2
Fore
SplineSet
128 0 m 1,0,-1
 128 -128 l 1,1,-1
 0 -128 l 1,2,-1
 0 0 l 1,3,-1
 128 0 l 1,0,-1
256 0 m 1,4,-1
 128 0 l 1,5,-1
 128 512 l 1,6,-1
 0 512 l 1,7,-1
 0 640 l 1,8,-1
 256 640 l 1,9,-1
 256 768 l 1,10,-1
 384 768 l 1,11,-1
 384 512 l 1,12,-1
 256 512 l 1,13,-1
 256 0 l 1,4,-1
EndSplineSet
EndChar

StartChar: uni0241
Encoding: 577 577 459
Width: 640
GlyphClass: 1
Flags: W
LayerCount: 2
Fore
SplineSet
256 128 m 1,0,-1
 256 0 l 1,1,-1
 128 0 l 1,2,-1
 128 128 l 1,3,-1
 256 128 l 1,0,-1
384 128 m 1,4,-1
 256 128 l 1,5,-1
 256 256 l 1,6,-1
 384 256 l 1,7,-1
 384 128 l 1,4,-1
384 256 m 1,8,-1
 384 640 l 1,9,-1
 512 640 l 1,10,-1
 512 256 l 1,11,-1
 384 256 l 1,8,-1
128 640 m 1,12,-1
 128 512 l 1,13,-1
 0 512 l 1,14,-1
 0 640 l 1,15,-1
 128 640 l 1,12,-1
384 640 m 1,16,-1
 128 640 l 1,17,-1
 128 768 l 1,18,-1
 384 768 l 1,19,-1
 384 640 l 1,16,-1
EndSplineSet
EndChar

StartChar: uni0242
Encoding: 578 578 460
Width: 640
GlyphClass: 1
Flags: W
LayerCount: 2
Fore
SplineSet
256 128 m 1,0,-1
 256 256 l 1,1,-1
 384 256 l 1,2,-1
 384 128 l 1,3,-1
 512 128 l 1,4,-1
 512 0 l 1,5,-1
 128 0 l 1,6,-1
 128 128 l 1,7,-1
 256 128 l 1,0,-1
0 384 m 1,8,-1
 0 512 l 1,9,-1
 128 512 l 1,10,-1
 128 384 l 1,11,-1
 0 384 l 1,8,-1
384 256 m 1,12,-1
 384 512 l 1,13,-1
 512 512 l 1,14,-1
 512 256 l 1,15,-1
 384 256 l 1,12,-1
128 512 m 1,16,-1
 128 640 l 1,17,-1
 384 640 l 1,18,-1
 384 512 l 1,19,-1
 128 512 l 1,16,-1
EndSplineSet
EndChar

StartChar: uni0243
Encoding: 579 579 461
Width: 768
GlyphClass: 1
Flags: W
LayerCount: 2
Fore
SplineSet
512 128 m 1,0,-1
 512 0 l 1,1,-1
 128 0 l 1,2,-1
 128 128 l 1,3,-1
 0 128 l 1,4,-1
 0 256 l 1,5,-1
 128 256 l 1,6,-1
 128 640 l 1,7,-1
 512 640 l 1,8,-1
 512 512 l 1,9,-1
 256 512 l 1,10,-1
 256 384 l 1,11,-1
 512 384 l 1,12,-1
 512 256 l 1,13,-1
 256 256 l 1,14,-1
 256 128 l 1,15,-1
 512 128 l 1,0,-1
640 128 m 1,16,-1
 512 128 l 1,17,-1
 512 256 l 1,18,-1
 640 256 l 1,19,-1
 640 128 l 1,16,-1
512 384 m 1,20,-1
 512 512 l 1,21,-1
 640 512 l 1,22,-1
 640 384 l 1,23,-1
 512 384 l 1,20,-1
EndSplineSet
EndChar

StartChar: uni0244
Encoding: 580 580 462
Width: 896
GlyphClass: 1
Flags: W
LayerCount: 2
Fore
SplineSet
128 128 m 1,0,-1
 128 256 l 1,1,-1
 0 256 l 1,2,-1
 0 384 l 1,3,-1
 128 384 l 1,4,-1
 128 640 l 1,5,-1
 256 640 l 1,6,-1
 256 384 l 1,7,-1
 512 384 l 1,8,-1
 512 640 l 1,9,-1
 640 640 l 1,10,-1
 640 384 l 1,11,-1
 768 384 l 1,12,-1
 768 256 l 1,13,-1
 640 256 l 1,14,-1
 640 128 l 1,15,-1
 512 128 l 1,16,-1
 512 256 l 1,17,-1
 256 256 l 1,18,-1
 256 128 l 1,19,-1
 128 128 l 1,0,-1
256 128 m 1,20,-1
 512 128 l 1,21,-1
 512 0 l 1,22,-1
 256 0 l 1,23,-1
 256 128 l 1,20,-1
EndSplineSet
EndChar

StartChar: uni0245
Encoding: 581 581 463
Width: 512
GlyphClass: 1
Flags: W
LayerCount: 2
Fore
SplineSet
128 0 m 1,0,-1
 0 0 l 1,1,-1
 0 384 l 1,2,-1
 128 384 l 1,3,-1
 128 0 l 1,0,-1
384 0 m 1,4,-1
 256 0 l 1,5,-1
 256 384 l 1,6,-1
 384 384 l 1,7,-1
 384 0 l 1,4,-1
128 384 m 1,8,-1
 128 640 l 1,9,-1
 256 640 l 1,10,-1
 256 384 l 1,11,-1
 128 384 l 1,8,-1
EndSplineSet
EndChar

StartChar: uni0246
Encoding: 582 582 464
Width: 640
GlyphClass: 1
Flags: W
LayerCount: 2
Fore
SplineSet
128 0 m 1,0,-1
 0 0 l 1,1,-1
 0 640 l 1,2,-1
 256 640 l 1,3,-1
 256 768 l 1,4,-1
 384 768 l 1,5,-1
 384 640 l 1,6,-1
 512 640 l 1,7,-1
 512 512 l 1,8,-1
 128 512 l 1,9,-1
 128 384 l 1,10,-1
 384 384 l 1,11,-1
 384 256 l 1,12,-1
 128 256 l 1,13,-1
 128 128 l 1,14,-1
 512 128 l 1,15,-1
 512 0 l 1,16,-1
 256 0 l 1,17,-1
 256 -128 l 1,18,-1
 128 -128 l 1,19,-1
 128 0 l 1,0,-1
EndSplineSet
EndChar

StartChar: uni0247
Encoding: 583 583 465
Width: 512
GlyphClass: 1
Flags: W
LayerCount: 2
Fore
SplineSet
384 128 m 1,0,-1
 384 0 l 1,1,-1
 128 0 l 1,2,-1
 128 128 l 1,3,-1
 384 128 l 1,0,-1
128 128 m 1,4,-1
 0 128 l 1,5,-1
 0 384 l 1,6,-1
 128 384 l 1,7,-1
 128 512 l 1,8,-1
 256 512 l 1,9,-1
 256 384 l 1,10,-1
 384 384 l 1,11,-1
 384 256 l 1,12,-1
 128 256 l 1,13,-1
 128 128 l 1,4,-1
128 0 m 1,14,-1
 128 -128 l 1,15,-1
 0 -128 l 1,16,-1
 0 0 l 1,17,-1
 128 0 l 1,14,-1
256 512 m 1,18,-1
 256 640 l 1,19,-1
 384 640 l 1,20,-1
 384 512 l 1,21,-1
 256 512 l 1,18,-1
EndSplineSet
EndChar

StartChar: uni0248
Encoding: 584 584 466
Width: 640
GlyphClass: 1
Flags: W
LayerCount: 2
Fore
SplineSet
0 128 m 1,0,-1
 0 256 l 1,1,-1
 128 256 l 1,2,-1
 128 128 l 1,3,-1
 0 128 l 1,0,-1
128 128 m 1,4,-1
 256 128 l 1,5,-1
 256 0 l 1,6,-1
 128 0 l 1,7,-1
 128 128 l 1,4,-1
256 128 m 1,8,-1
 256 640 l 1,9,-1
 384 640 l 1,10,-1
 384 384 l 1,11,-1
 512 384 l 1,12,-1
 512 256 l 1,13,-1
 384 256 l 1,14,-1
 384 128 l 1,15,-1
 256 128 l 1,8,-1
EndSplineSet
EndChar

StartChar: uni0249
Encoding: 585 585 467
Width: 512
GlyphClass: 1
Flags: W
LayerCount: 2
Fore
SplineSet
256 -128 m 1,0,-1
 128 -128 l 1,1,-1
 128 256 l 1,2,-1
 0 256 l 1,3,-1
 0 384 l 1,4,-1
 128 384 l 1,5,-1
 128 512 l 1,6,-1
 256 512 l 1,7,-1
 256 384 l 1,8,-1
 384 384 l 1,9,-1
 384 256 l 1,10,-1
 256 256 l 1,11,-1
 256 -128 l 1,0,-1
128 640 m 1,12,-1
 128 768 l 1,13,-1
 256 768 l 1,14,-1
 256 640 l 1,15,-1
 128 640 l 1,12,-1
EndSplineSet
EndChar

StartChar: uni024A
Encoding: 586 586 468
Width: 768
GlyphClass: 1
Flags: W
LayerCount: 2
Fore
SplineSet
512 -128 m 1,0,-1
 512 0 l 1,1,-1
 640 0 l 1,2,-1
 640 -128 l 1,3,-1
 512 -128 l 1,0,-1
384 128 m 1,4,-1
 256 128 l 1,5,-1
 256 256 l 1,6,-1
 384 256 l 1,7,-1
 384 128 l 1,4,-1
128 128 m 1,8,-1
 0 128 l 1,9,-1
 0 512 l 1,10,-1
 128 512 l 1,11,-1
 128 128 l 1,8,-1
256 128 m 1,12,-1
 256 0 l 1,13,-1
 128 0 l 1,14,-1
 128 128 l 1,15,-1
 256 128 l 1,12,-1
384 0 m 1,16,-1
 384 128 l 1,17,-1
 512 128 l 1,18,-1
 512 0 l 1,19,-1
 384 0 l 1,16,-1
384 256 m 1,20,-1
 384 512 l 1,21,-1
 128 512 l 1,22,-1
 128 640 l 1,23,-1
 512 640 l 1,24,-1
 512 256 l 1,25,-1
 384 256 l 1,20,-1
EndSplineSet
EndChar

StartChar: uni024B
Encoding: 587 587 469
Width: 640
GlyphClass: 1
Flags: W
LayerCount: 2
Fore
SplineSet
512 -128 m 1,0,-1
 512 -256 l 1,1,-1
 384 -256 l 1,2,-1
 384 -128 l 1,3,-1
 512 -128 l 1,0,-1
128 128 m 1,4,-1
 0 128 l 1,5,-1
 0 384 l 1,6,-1
 128 384 l 1,7,-1
 128 128 l 1,4,-1
256 128 m 1,8,-1
 256 384 l 1,9,-1
 128 384 l 1,10,-1
 128 512 l 1,11,-1
 384 512 l 1,12,-1
 384 -128 l 1,13,-1
 256 -128 l 1,14,-1
 256 0 l 1,15,-1
 128 0 l 1,16,-1
 128 128 l 1,17,-1
 256 128 l 1,8,-1
EndSplineSet
EndChar

StartChar: uni024C
Encoding: 588 588 470
Width: 768
GlyphClass: 1
Flags: W
LayerCount: 2
Fore
SplineSet
256 0 m 1,0,-1
 128 0 l 1,1,-1
 128 256 l 1,2,-1
 0 256 l 1,3,-1
 0 384 l 1,4,-1
 128 384 l 1,5,-1
 128 640 l 1,6,-1
 512 640 l 1,7,-1
 512 512 l 1,8,-1
 256 512 l 1,9,-1
 256 384 l 1,10,-1
 512 384 l 1,11,-1
 512 256 l 1,12,-1
 256 256 l 1,13,-1
 256 0 l 1,0,-1
640 0 m 1,14,-1
 512 0 l 1,15,-1
 512 256 l 1,16,-1
 640 256 l 1,17,-1
 640 0 l 1,14,-1
640 384 m 1,18,-1
 512 384 l 1,19,-1
 512 512 l 1,20,-1
 640 512 l 1,21,-1
 640 384 l 1,18,-1
EndSplineSet
EndChar

StartChar: uni024D
Encoding: 589 589 471
Width: 512
GlyphClass: 1
Flags: W
LayerCount: 2
Fore
SplineSet
256 0 m 1,0,-1
 128 0 l 1,1,-1
 128 256 l 1,2,-1
 0 256 l 1,3,-1
 0 384 l 1,4,-1
 128 384 l 1,5,-1
 128 512 l 1,6,-1
 384 512 l 1,7,-1
 384 384 l 1,8,-1
 256 384 l 1,9,-1
 256 0 l 1,0,-1
EndSplineSet
EndChar

StartChar: uni024E
Encoding: 590 590 472
Width: 768
GlyphClass: 1
Flags: W
LayerCount: 2
Fore
SplineSet
384 0 m 1,0,-1
 256 0 l 1,1,-1
 256 384 l 1,2,-1
 384 384 l 1,3,-1
 384 0 l 1,0,-1
0 384 m 1,4,-1
 0 512 l 1,5,-1
 128 512 l 1,6,-1
 128 640 l 1,7,-1
 256 640 l 1,8,-1
 256 384 l 1,9,-1
 0 384 l 1,4,-1
384 384 m 1,10,-1
 384 640 l 1,11,-1
 512 640 l 1,12,-1
 512 512 l 1,13,-1
 640 512 l 1,14,-1
 640 384 l 1,15,-1
 384 384 l 1,10,-1
EndSplineSet
EndChar

StartChar: uni024F
Encoding: 591 591 473
Width: 768
GlyphClass: 1
Flags: W
LayerCount: 2
Fore
SplineSet
512 128 m 1,0,-1
 384 128 l 1,1,-1
 384 512 l 1,2,-1
 512 512 l 1,3,-1
 512 384 l 1,4,-1
 640 384 l 1,5,-1
 640 256 l 1,6,-1
 512 256 l 1,7,-1
 512 128 l 1,0,-1
128 128 m 1,8,-1
 128 256 l 1,9,-1
 0 256 l 1,10,-1
 0 384 l 1,11,-1
 128 384 l 1,12,-1
 128 512 l 1,13,-1
 256 512 l 1,14,-1
 256 128 l 1,15,-1
 128 128 l 1,8,-1
256 128 m 1,16,-1
 384 128 l 1,17,-1
 384 0 l 1,18,-1
 256 0 l 1,19,-1
 256 128 l 1,16,-1
256 0 m 1,20,-1
 256 -128 l 1,21,-1
 128 -128 l 1,22,-1
 128 0 l 1,23,-1
 256 0 l 1,20,-1
EndSplineSet
EndChar

StartChar: uni0251
Encoding: 593 593 474
Width: 512
GlyphClass: 1
Flags: W
LayerCount: 2
Fore
SplineSet
128 128 m 1,0,-1
 0 128 l 1,1,-1
 0 384 l 1,2,-1
 128 384 l 1,3,-1
 128 128 l 1,0,-1
128 0 m 1,4,-1
 128 128 l 1,5,-1
 256 128 l 1,6,-1
 256 384 l 1,7,-1
 128 384 l 1,8,-1
 128 512 l 1,9,-1
 384 512 l 1,10,-1
 384 0 l 1,11,-1
 128 0 l 1,4,-1
EndSplineSet
EndChar

StartChar: uni0253
Encoding: 595 595 475
Width: 512
GlyphClass: 1
Flags: W
LayerCount: 2
Fore
SplineSet
128 128 m 1,0,-1
 256 128 l 1,1,-1
 256 0 l 1,2,-1
 0 0 l 1,3,-1
 0 640 l 1,4,-1
 128 640 l 1,5,-1
 128 512 l 1,6,-1
 256 512 l 1,7,-1
 256 384 l 1,8,-1
 128 384 l 1,9,-1
 128 128 l 1,0,-1
256 128 m 1,10,-1
 256 384 l 1,11,-1
 384 384 l 1,12,-1
 384 128 l 1,13,-1
 256 128 l 1,10,-1
128 640 m 1,14,-1
 128 768 l 1,15,-1
 256 768 l 1,16,-1
 256 640 l 1,17,-1
 128 640 l 1,14,-1
EndSplineSet
EndChar

StartChar: uni0254
Encoding: 596 596 476
Width: 384
GlyphClass: 1
Flags: W
LayerCount: 2
Fore
SplineSet
128 128 m 1,0,-1
 128 0 l 1,1,-1
 0 0 l 1,2,-1
 0 128 l 1,3,-1
 128 128 l 1,0,-1
256 128 m 1,4,-1
 128 128 l 1,5,-1
 128 384 l 1,6,-1
 256 384 l 1,7,-1
 256 128 l 1,4,-1
0 384 m 1,8,-1
 0 512 l 1,9,-1
 128 512 l 1,10,-1
 128 384 l 1,11,-1
 0 384 l 1,8,-1
EndSplineSet
EndChar

StartChar: uni0256
Encoding: 598 598 477
Width: 640
GlyphClass: 1
Flags: W
LayerCount: 2
Fore
SplineSet
512 -128 m 1,0,-1
 384 -128 l 1,1,-1
 384 0 l 1,2,-1
 512 0 l 1,3,-1
 512 -128 l 1,0,-1
128 128 m 1,4,-1
 0 128 l 1,5,-1
 0 384 l 1,6,-1
 128 384 l 1,7,-1
 128 128 l 1,4,-1
256 128 m 1,8,-1
 256 384 l 1,9,-1
 128 384 l 1,10,-1
 128 512 l 1,11,-1
 256 512 l 1,12,-1
 256 640 l 1,13,-1
 384 640 l 1,14,-1
 384 0 l 1,15,-1
 128 0 l 1,16,-1
 128 128 l 1,17,-1
 256 128 l 1,8,-1
EndSplineSet
EndChar

StartChar: uni0257
Encoding: 599 599 478
Width: 640
GlyphClass: 1
Flags: W
LayerCount: 2
Fore
SplineSet
128 128 m 1,0,-1
 0 128 l 1,1,-1
 0 384 l 1,2,-1
 128 384 l 1,3,-1
 128 128 l 1,0,-1
128 0 m 1,4,-1
 128 128 l 1,5,-1
 256 128 l 1,6,-1
 256 384 l 1,7,-1
 128 384 l 1,8,-1
 128 512 l 1,9,-1
 256 512 l 1,10,-1
 256 640 l 1,11,-1
 384 640 l 1,12,-1
 384 0 l 1,13,-1
 128 0 l 1,4,-1
384 640 m 1,14,-1
 384 768 l 1,15,-1
 512 768 l 1,16,-1
 512 640 l 1,17,-1
 384 640 l 1,14,-1
EndSplineSet
EndChar

StartChar: uni0259
Encoding: 601 601 479
Width: 512
GlyphClass: 1
Flags: W
LayerCount: 2
Fore
SplineSet
0 128 m 1,0,-1
 0 256 l 1,1,-1
 256 256 l 1,2,-1
 256 384 l 1,3,-1
 384 384 l 1,4,-1
 384 128 l 1,5,-1
 256 128 l 1,6,-1
 256 0 l 1,7,-1
 128 0 l 1,8,-1
 128 128 l 1,9,-1
 0 128 l 1,0,-1
0 384 m 1,10,-1
 0 512 l 1,11,-1
 256 512 l 1,12,-1
 256 384 l 1,13,-1
 0 384 l 1,10,-1
EndSplineSet
EndChar

StartChar: uni025B
Encoding: 603 603 480
Width: 384
GlyphClass: 1
Flags: W
LayerCount: 2
Fore
SplineSet
128 128 m 1,0,-1
 0 128 l 1,1,-1
 0 384 l 1,2,-1
 128 384 l 1,3,-1
 128 512 l 1,4,-1
 256 512 l 1,5,-1
 256 256 l 1,6,-1
 128 256 l 1,7,-1
 128 128 l 1,0,-1
128 0 m 1,8,-1
 128 128 l 1,9,-1
 256 128 l 1,10,-1
 256 0 l 1,11,-1
 128 0 l 1,8,-1
EndSplineSet
EndChar

StartChar: uni0260
Encoding: 608 608 481
Width: 640
GlyphClass: 1
Flags: W
LayerCount: 2
Fore
SplineSet
0 0 m 1,0,-1
 128 0 l 1,1,-1
 128 128 l 1,2,-1
 256 128 l 1,3,-1
 256 384 l 1,4,-1
 128 384 l 1,5,-1
 128 512 l 1,6,-1
 256 512 l 1,7,-1
 256 640 l 1,8,-1
 512 640 l 1,9,-1
 512 512 l 1,10,-1
 384 512 l 1,11,-1
 384 0 l 1,12,-1
 256 0 l 1,13,-1
 256 -128 l 1,14,-1
 0 -128 l 1,15,-1
 0 0 l 1,0,-1
128 128 m 1,16,-1
 0 128 l 1,17,-1
 0 384 l 1,18,-1
 128 384 l 1,19,-1
 128 128 l 1,16,-1
EndSplineSet
EndChar

StartChar: uni0263
Encoding: 611 611 482
Width: 512
GlyphClass: 1
Flags: W
LayerCount: 2
Fore
SplineSet
128 -128 m 1,0,-1
 128 0 l 1,1,-1
 256 0 l 1,2,-1
 256 -128 l 1,3,-1
 128 -128 l 1,0,-1
128 128 m 1,4,-1
 128 0 l 1,5,-1
 0 0 l 1,6,-1
 0 128 l 1,7,-1
 128 128 l 1,4,-1
256 128 m 1,8,-1
 128 128 l 1,9,-1
 128 256 l 1,10,-1
 256 256 l 1,11,-1
 256 128 l 1,8,-1
256 0 m 1,12,-1
 256 128 l 1,13,-1
 384 128 l 1,14,-1
 384 0 l 1,15,-1
 256 0 l 1,12,-1
128 256 m 1,16,-1
 0 256 l 1,17,-1
 0 512 l 1,18,-1
 128 512 l 1,19,-1
 128 256 l 1,16,-1
256 256 m 1,20,-1
 256 512 l 1,21,-1
 384 512 l 1,22,-1
 384 256 l 1,23,-1
 256 256 l 1,20,-1
EndSplineSet
EndChar

StartChar: uni0265
Encoding: 613 613 483
Width: 512
GlyphClass: 1
Flags: W
LayerCount: 2
Fore
SplineSet
256 -128 m 1,0,-1
 256 0 l 1,1,-1
 128 0 l 1,2,-1
 128 128 l 1,3,-1
 256 128 l 1,4,-1
 256 512 l 1,5,-1
 384 512 l 1,6,-1
 384 -128 l 1,7,-1
 256 -128 l 1,0,-1
128 128 m 1,8,-1
 0 128 l 1,9,-1
 0 512 l 1,10,-1
 128 512 l 1,11,-1
 128 128 l 1,8,-1
EndSplineSet
EndChar

StartChar: uni0266
Encoding: 614 614 484
Width: 512
GlyphClass: 1
Flags: W
LayerCount: 2
Fore
SplineSet
128 0 m 1,0,-1
 0 0 l 1,1,-1
 0 640 l 1,2,-1
 128 640 l 1,3,-1
 128 512 l 1,4,-1
 256 512 l 1,5,-1
 256 384 l 1,6,-1
 128 384 l 1,7,-1
 128 0 l 1,0,-1
384 0 m 1,8,-1
 256 0 l 1,9,-1
 256 384 l 1,10,-1
 384 384 l 1,11,-1
 384 0 l 1,8,-1
128 640 m 1,12,-1
 128 768 l 1,13,-1
 256 768 l 1,14,-1
 256 640 l 1,15,-1
 128 640 l 1,12,-1
EndSplineSet
EndChar

StartChar: uni0268
Encoding: 616 616 485
Width: 512
GlyphClass: 1
Flags: W
LayerCount: 2
Fore
SplineSet
256 0 m 1,0,-1
 128 0 l 1,1,-1
 128 256 l 1,2,-1
 0 256 l 1,3,-1
 0 384 l 1,4,-1
 128 384 l 1,5,-1
 128 512 l 1,6,-1
 256 512 l 1,7,-1
 256 384 l 1,8,-1
 384 384 l 1,9,-1
 384 256 l 1,10,-1
 256 256 l 1,11,-1
 256 0 l 1,0,-1
128 640 m 1,12,-1
 128 768 l 1,13,-1
 256 768 l 1,14,-1
 256 640 l 1,15,-1
 128 640 l 1,12,-1
EndSplineSet
EndChar

StartChar: uni0269
Encoding: 617 617 486
Width: 256
GlyphClass: 1
Flags: W
LayerCount: 2
Fore
SplineSet
128 0 m 1,0,-1
 0 0 l 1,1,-1
 0 512 l 1,2,-1
 128 512 l 1,3,-1
 128 0 l 1,0,-1
EndSplineSet
EndChar

StartChar: uni026A
Encoding: 618 618 487
Width: 256
GlyphClass: 1
Flags: W
LayerCount: 2
Fore
SplineSet
128 0 m 1,0,-1
 0 0 l 1,1,-1
 0 512 l 1,2,-1
 128 512 l 1,3,-1
 128 0 l 1,0,-1
EndSplineSet
EndChar

StartChar: uni026B
Encoding: 619 619 488
Width: 384
GlyphClass: 1
Flags: W
LayerCount: 2
Fore
SplineSet
128 0 m 1,0,-1
 0 0 l 1,1,-1
 0 640 l 1,2,-1
 128 640 l 1,3,-1
 128 384 l 1,4,-1
 256 384 l 1,5,-1
 256 256 l 1,6,-1
 128 256 l 1,7,-1
 128 0 l 1,0,-1
EndSplineSet
EndChar

StartChar: uni026C
Encoding: 620 620 489
Width: 512
GlyphClass: 1
Flags: W
LayerCount: 2
Fore
SplineSet
256 0 m 1,0,-1
 128 0 l 1,1,-1
 128 384 l 1,2,-1
 0 384 l 1,3,-1
 0 512 l 1,4,-1
 128 512 l 1,5,-1
 128 640 l 1,6,-1
 256 640 l 1,7,-1
 256 384 l 1,8,-1
 384 384 l 1,9,-1
 384 256 l 1,10,-1
 256 256 l 1,11,-1
 256 0 l 1,0,-1
EndSplineSet
EndChar

StartChar: uni026F
Encoding: 623 623 490
Width: 768
GlyphClass: 1
Flags: W
LayerCount: 2
Fore
SplineSet
128 0 m 1,0,-1
 128 128 l 1,1,-1
 256 128 l 1,2,-1
 256 512 l 1,3,-1
 384 512 l 1,4,-1
 384 128 l 1,5,-1
 512 128 l 1,6,-1
 512 512 l 1,7,-1
 640 512 l 1,8,-1
 640 0 l 1,9,-1
 128 0 l 1,0,-1
128 128 m 1,10,-1
 0 128 l 1,11,-1
 0 512 l 1,12,-1
 128 512 l 1,13,-1
 128 128 l 1,10,-1
EndSplineSet
EndChar

StartChar: uni0272
Encoding: 626 626 491
Width: 640
GlyphClass: 1
Flags: W
LayerCount: 2
Fore
SplineSet
0 0 m 1,0,-1
 128 0 l 1,1,-1
 128 -128 l 1,2,-1
 0 -128 l 1,3,-1
 0 0 l 1,0,-1
128 0 m 1,4,-1
 128 512 l 1,5,-1
 384 512 l 1,6,-1
 384 384 l 1,7,-1
 256 384 l 1,8,-1
 256 0 l 1,9,-1
 128 0 l 1,4,-1
512 0 m 1,10,-1
 384 0 l 1,11,-1
 384 384 l 1,12,-1
 512 384 l 1,13,-1
 512 0 l 1,10,-1
EndSplineSet
EndChar

StartChar: uni0275
Encoding: 629 629 492
Width: 512
GlyphClass: 1
Flags: W
LayerCount: 2
Fore
SplineSet
128 128 m 1,0,-1
 0 128 l 1,1,-1
 0 384 l 1,2,-1
 128 384 l 1,3,-1
 128 512 l 1,4,-1
 256 512 l 1,5,-1
 256 384 l 1,6,-1
 384 384 l 1,7,-1
 384 128 l 1,8,-1
 256 128 l 1,9,-1
 256 256 l 1,10,-1
 128 256 l 1,11,-1
 128 128 l 1,0,-1
256 128 m 1,12,-1
 256 0 l 1,13,-1
 128 0 l 1,14,-1
 128 128 l 1,15,-1
 256 128 l 1,12,-1
EndSplineSet
EndChar

StartChar: uni027D
Encoding: 637 637 493
Width: 384
GlyphClass: 1
Flags: W
LayerCount: 2
Fore
SplineSet
128 0 m 1,0,-1
 0 0 l 1,1,-1
 0 512 l 1,2,-1
 256 512 l 1,3,-1
 256 384 l 1,4,-1
 128 384 l 1,5,-1
 128 0 l 1,0,-1
128 -128 m 1,6,-1
 128 0 l 1,7,-1
 256 0 l 1,8,-1
 256 -128 l 1,9,-1
 128 -128 l 1,6,-1
EndSplineSet
EndChar

StartChar: uni027E
Encoding: 638 638 494
Width: 384
GlyphClass: 1
Flags: W
LayerCount: 2
Fore
SplineSet
128 0 m 1,0,-1
 0 0 l 1,1,-1
 0 384 l 1,2,-1
 128 384 l 1,3,-1
 128 0 l 1,0,-1
128 384 m 1,4,-1
 128 512 l 1,5,-1
 256 512 l 1,6,-1
 256 384 l 1,7,-1
 128 384 l 1,4,-1
EndSplineSet
EndChar

StartChar: uni0283
Encoding: 643 643 495
Width: 512
GlyphClass: 1
Flags: W
LayerCount: 2
Fore
SplineSet
128 0 m 1,0,-1
 128 -128 l 1,1,-1
 0 -128 l 1,2,-1
 0 0 l 1,3,-1
 128 0 l 1,0,-1
256 0 m 1,4,-1
 128 0 l 1,5,-1
 128 640 l 1,6,-1
 256 640 l 1,7,-1
 256 0 l 1,4,-1
256 640 m 1,8,-1
 256 768 l 1,9,-1
 384 768 l 1,10,-1
 384 640 l 1,11,-1
 256 640 l 1,8,-1
EndSplineSet
EndChar

StartChar: uni0288
Encoding: 648 648 496
Width: 384
GlyphClass: 1
Flags: W
LayerCount: 2
Fore
SplineSet
128 0 m 1,0,-1
 0 0 l 1,1,-1
 0 640 l 1,2,-1
 128 640 l 1,3,-1
 128 512 l 1,4,-1
 256 512 l 1,5,-1
 256 384 l 1,6,-1
 128 384 l 1,7,-1
 128 0 l 1,0,-1
128 -128 m 1,8,-1
 128 0 l 1,9,-1
 256 0 l 1,10,-1
 256 -128 l 1,11,-1
 128 -128 l 1,8,-1
EndSplineSet
EndChar

StartChar: uni0289
Encoding: 649 649 497
Width: 768
GlyphClass: 1
Flags: W
LayerCount: 2
Fore
SplineSet
128 128 m 1,0,-1
 128 256 l 1,1,-1
 0 256 l 1,2,-1
 0 384 l 1,3,-1
 128 384 l 1,4,-1
 128 512 l 1,5,-1
 256 512 l 1,6,-1
 256 128 l 1,7,-1
 128 128 l 1,0,-1
256 128 m 1,8,-1
 384 128 l 1,9,-1
 384 512 l 1,10,-1
 512 512 l 1,11,-1
 512 384 l 1,12,-1
 640 384 l 1,13,-1
 640 256 l 1,14,-1
 512 256 l 1,15,-1
 512 0 l 1,16,-1
 256 0 l 1,17,-1
 256 128 l 1,8,-1
EndSplineSet
EndChar

StartChar: uni028A
Encoding: 650 650 498
Width: 768
GlyphClass: 1
Flags: W
LayerCount: 2
Fore
SplineSet
640 128 m 1,0,-1
 512 128 l 1,1,-1
 512 256 l 1,2,-1
 640 256 l 1,3,-1
 640 128 l 1,0,-1
128 128 m 1,4,-1
 0 128 l 1,5,-1
 0 256 l 1,6,-1
 128 256 l 1,7,-1
 128 128 l 1,4,-1
512 128 m 1,8,-1
 512 0 l 1,9,-1
 128 0 l 1,10,-1
 128 128 l 1,11,-1
 512 128 l 1,8,-1
512 384 m 1,12,-1
 512 256 l 1,13,-1
 384 256 l 1,14,-1
 384 512 l 1,15,-1
 640 512 l 1,16,-1
 640 384 l 1,17,-1
 512 384 l 1,12,-1
0 384 m 1,18,-1
 0 512 l 1,19,-1
 256 512 l 1,20,-1
 256 256 l 1,21,-1
 128 256 l 1,22,-1
 128 384 l 1,23,-1
 0 384 l 1,18,-1
EndSplineSet
EndChar

StartChar: uni028B
Encoding: 651 651 499
Width: 640
GlyphClass: 1
Flags: W
LayerCount: 2
Fore
SplineSet
128 128 m 1,0,-1
 0 128 l 1,1,-1
 0 512 l 1,2,-1
 128 512 l 1,3,-1
 128 128 l 1,0,-1
384 128 m 1,4,-1
 384 0 l 1,5,-1
 128 0 l 1,6,-1
 128 128 l 1,7,-1
 384 128 l 1,4,-1
512 128 m 1,8,-1
 384 128 l 1,9,-1
 384 384 l 1,10,-1
 512 384 l 1,11,-1
 512 128 l 1,8,-1
256 384 m 1,12,-1
 256 512 l 1,13,-1
 384 512 l 1,14,-1
 384 384 l 1,15,-1
 256 384 l 1,12,-1
EndSplineSet
EndChar

StartChar: uni028C
Encoding: 652 652 500
Width: 512
GlyphClass: 1
Flags: W
LayerCount: 2
Fore
SplineSet
128 0 m 1,0,-1
 0 0 l 1,1,-1
 0 256 l 1,2,-1
 128 256 l 1,3,-1
 128 0 l 1,0,-1
384 0 m 1,4,-1
 256 0 l 1,5,-1
 256 256 l 1,6,-1
 384 256 l 1,7,-1
 384 0 l 1,4,-1
128 256 m 1,8,-1
 128 512 l 1,9,-1
 256 512 l 1,10,-1
 256 256 l 1,11,-1
 128 256 l 1,8,-1
EndSplineSet
EndChar

StartChar: uni0292
Encoding: 658 658 501
Width: 512
GlyphClass: 1
Flags: W
AnchorPoint: "top" 128 512 basechar 0
LayerCount: 2
Fore
SplineSet
0 -128 m 1,0,-1
 0 0 l 1,1,-1
 256 0 l 1,2,-1
 256 -128 l 1,3,-1
 0 -128 l 1,0,-1
128 128 m 1,4,-1
 128 256 l 1,5,-1
 256 256 l 1,6,-1
 256 128 l 1,7,-1
 128 128 l 1,4,-1
256 128 m 1,8,-1
 384 128 l 1,9,-1
 384 0 l 1,10,-1
 256 0 l 1,11,-1
 256 128 l 1,8,-1
0 384 m 1,12,-1
 0 512 l 1,13,-1
 384 512 l 1,14,-1
 384 256 l 1,15,-1
 256 256 l 1,16,-1
 256 384 l 1,17,-1
 0 384 l 1,12,-1
EndSplineSet
EndChar

StartChar: uni0294
Encoding: 660 660 502
Width: 512
GlyphClass: 1
Flags: W
LayerCount: 2
Fore
SplineSet
256 0 m 1,0,-1
 128 0 l 1,1,-1
 128 256 l 1,2,-1
 256 256 l 1,3,-1
 256 0 l 1,0,-1
0 384 m 1,4,-1
 0 512 l 1,5,-1
 128 512 l 1,6,-1
 128 384 l 1,7,-1
 0 384 l 1,4,-1
256 256 m 1,8,-1
 256 512 l 1,9,-1
 384 512 l 1,10,-1
 384 256 l 1,11,-1
 256 256 l 1,8,-1
128 512 m 1,12,-1
 128 640 l 1,13,-1
 256 640 l 1,14,-1
 256 512 l 1,15,-1
 128 512 l 1,12,-1
EndSplineSet
EndChar

StartChar: uni0295
Encoding: 661 661 503
Width: 512
GlyphClass: 1
Flags: W
LayerCount: 2
Fore
SplineSet
256 0 m 1,0,-1
 128 0 l 1,1,-1
 128 256 l 1,2,-1
 256 256 l 1,3,-1
 256 0 l 1,0,-1
256 384 m 1,4,-1
 256 512 l 1,5,-1
 384 512 l 1,6,-1
 384 384 l 1,7,-1
 256 384 l 1,4,-1
128 256 m 1,8,-1
 0 256 l 1,9,-1
 0 512 l 1,10,-1
 128 512 l 1,11,-1
 128 256 l 1,8,-1
128 512 m 1,12,-1
 128 640 l 1,13,-1
 256 640 l 1,14,-1
 256 512 l 1,15,-1
 128 512 l 1,12,-1
EndSplineSet
EndChar

StartChar: uni0298
Encoding: 664 664 504
Width: 768
GlyphClass: 1
Flags: W
LayerCount: 2
Fore
SplineSet
640 128 m 1,0,-1
 512 128 l 1,1,-1
 512 512 l 1,2,-1
 640 512 l 1,3,-1
 640 128 l 1,0,-1
128 128 m 1,4,-1
 0 128 l 1,5,-1
 0 512 l 1,6,-1
 128 512 l 1,7,-1
 128 128 l 1,4,-1
512 128 m 1,8,-1
 512 0 l 1,9,-1
 128 0 l 1,10,-1
 128 128 l 1,11,-1
 512 128 l 1,8,-1
256 256 m 1,12,-1
 256 384 l 1,13,-1
 384 384 l 1,14,-1
 384 256 l 1,15,-1
 256 256 l 1,12,-1
128 512 m 1,16,-1
 128 640 l 1,17,-1
 512 640 l 1,18,-1
 512 512 l 1,19,-1
 128 512 l 1,16,-1
EndSplineSet
EndChar

StartChar: uni029D
Encoding: 669 669 505
Width: 512
GlyphClass: 1
Flags: W
LayerCount: 2
Fore
SplineSet
128 -128 m 1,0,-1
 128 0 l 1,1,-1
 256 0 l 1,2,-1
 256 128 l 1,3,-1
 128 128 l 1,4,-1
 128 256 l 1,5,-1
 256 256 l 1,6,-1
 256 512 l 1,7,-1
 384 512 l 1,8,-1
 384 -128 l 1,9,-1
 128 -128 l 1,0,-1
128 128 m 1,10,-1
 128 0 l 1,11,-1
 0 0 l 1,12,-1
 0 128 l 1,13,-1
 128 128 l 1,10,-1
256 640 m 1,14,-1
 256 768 l 1,15,-1
 384 768 l 1,16,-1
 384 640 l 1,17,-1
 256 640 l 1,14,-1
EndSplineSet
EndChar

StartChar: uni02B0
Encoding: 688 688 506
Width: 512
GlyphClass: 1
Flags: W
AnchorPoint: "bottom" 128 512 mark 0
LayerCount: 2
Fore
SplineSet
128 128 m 1,0,-1
 128 0 l 1,1,-1
 0 0 l 1,2,-1
 0 384 l 1,3,-1
 128 384 l 1,4,-1
 128 256 l 1,5,-1
 256 256 l 1,6,-1
 256 128 l 1,7,-1
 128 128 l 1,0,-1
256 128 m 1,8,-1
 384 128 l 1,9,-1
 384 0 l 1,10,-1
 256 0 l 1,11,-1
 256 128 l 1,8,-1
EndSplineSet
EndChar

StartChar: uni02B7
Encoding: 695 695 507
Width: 768
GlyphClass: 1
Flags: W
AnchorPoint: "bottom" 256 512 mark 0
LayerCount: 2
Fore
SplineSet
640 128 m 1,0,-1
 512 128 l 1,1,-1
 512 384 l 1,2,-1
 640 384 l 1,3,-1
 640 128 l 1,0,-1
384 128 m 1,4,-1
 512 128 l 1,5,-1
 512 0 l 1,6,-1
 128 0 l 1,7,-1
 128 128 l 1,8,-1
 256 128 l 1,9,-1
 256 384 l 1,10,-1
 384 384 l 1,11,-1
 384 128 l 1,4,-1
128 128 m 1,12,-1
 0 128 l 1,13,-1
 0 384 l 1,14,-1
 128 384 l 1,15,-1
 128 128 l 1,12,-1
EndSplineSet
EndChar

StartChar: uni02BB
Encoding: 699 699 508
Width: 256
GlyphClass: 1
Flags: W
AnchorPoint: "bottom" 0 768 mark 0
LayerCount: 2
Fore
SplineSet
128 384 m 1,0,-1
 0 384 l 1,1,-1
 0 640 l 1,2,-1
 128 640 l 1,3,-1
 128 384 l 1,0,-1
EndSplineSet
EndChar

StartChar: uni02BC
Encoding: 700 700 509
Width: 256
GlyphClass: 1
Flags: W
AnchorPoint: "bottom" 0 768 mark 0
LayerCount: 2
Fore
SplineSet
128 384 m 1,0,-1
 0 384 l 1,1,-1
 0 640 l 1,2,-1
 128 640 l 1,3,-1
 128 384 l 1,0,-1
EndSplineSet
EndChar

StartChar: uni02BD
Encoding: 701 701 510
Width: 256
GlyphClass: 1
Flags: W
AnchorPoint: "bottom" 0 768 mark 0
LayerCount: 2
Fore
SplineSet
128 384 m 1,0,-1
 0 384 l 1,1,-1
 0 640 l 1,2,-1
 128 640 l 1,3,-1
 128 384 l 1,0,-1
EndSplineSet
EndChar

StartChar: uni02BE
Encoding: 702 702 511
Width: 256
GlyphClass: 1
Flags: W
AnchorPoint: "bottom" 0 768 mark 0
LayerCount: 2
Fore
SplineSet
128 384 m 1,0,-1
 0 384 l 1,1,-1
 0 640 l 1,2,-1
 128 640 l 1,3,-1
 128 384 l 1,0,-1
EndSplineSet
EndChar

StartChar: uni02BF
Encoding: 703 703 512
Width: 256
GlyphClass: 1
Flags: W
AnchorPoint: "bottom" 0 768 mark 0
LayerCount: 2
Fore
SplineSet
128 384 m 1,0,-1
 0 384 l 1,1,-1
 0 640 l 1,2,-1
 128 640 l 1,3,-1
 128 384 l 1,0,-1
EndSplineSet
EndChar

StartChar: uni02C0
Encoding: 704 704 513
Width: 512
GlyphClass: 1
Flags: W
LayerCount: 2
Fore
SplineSet
256 0 m 1,0,-1
 128 0 l 1,1,-1
 128 256 l 1,2,-1
 256 256 l 1,3,-1
 256 0 l 1,0,-1
0 384 m 1,4,-1
 0 512 l 1,5,-1
 128 512 l 1,6,-1
 128 384 l 1,7,-1
 0 384 l 1,4,-1
256 256 m 1,8,-1
 256 512 l 1,9,-1
 384 512 l 1,10,-1
 384 256 l 1,11,-1
 256 256 l 1,8,-1
128 512 m 1,12,-1
 128 640 l 1,13,-1
 256 640 l 1,14,-1
 256 512 l 1,15,-1
 128 512 l 1,12,-1
EndSplineSet
EndChar

StartChar: circumflex
Encoding: 710 710 514
Width: 512
GlyphClass: 1
Flags: W
AnchorPoint: "top" 128 256 mark 0
LayerCount: 2
Fore
SplineSet
0 384 m 1,0,-1
 0 512 l 1,1,-1
 128 512 l 1,2,-1
 128 384 l 1,3,-1
 0 384 l 1,0,-1
256 384 m 1,4,-1
 256 512 l 1,5,-1
 384 512 l 1,6,-1
 384 384 l 1,7,-1
 256 384 l 1,4,-1
128 512 m 1,8,-1
 128 640 l 1,9,-1
 256 640 l 1,10,-1
 256 512 l 1,11,-1
 128 512 l 1,8,-1
EndSplineSet
EndChar

StartChar: caron
Encoding: 711 711 515
Width: 512
GlyphClass: 1
Flags: W
AnchorPoint: "top" 128 256 mark 0
LayerCount: 2
Fore
SplineSet
128 384 m 1,0,-1
 128 512 l 1,1,-1
 256 512 l 1,2,-1
 256 384 l 1,3,-1
 128 384 l 1,0,-1
0 512 m 1,4,-1
 0 640 l 1,5,-1
 128 640 l 1,6,-1
 128 512 l 1,7,-1
 0 512 l 1,4,-1
256 512 m 1,8,-1
 256 640 l 1,9,-1
 384 640 l 1,10,-1
 384 512 l 1,11,-1
 256 512 l 1,8,-1
EndSplineSet
EndChar

StartChar: macron
Encoding: 713 713 516
AltUni2: 0000af.ffffffff.0
Width: 512
GlyphClass: 1
Flags: W
AnchorPoint: "top" 128 384 mark 0
LayerCount: 2
Fore
SplineSet
0 512 m 1,0,-1
 0 640 l 1,1,-1
 384 640 l 1,2,-1
 384 512 l 1,3,-1
 0 512 l 1,0,-1
EndSplineSet
EndChar

StartChar: uni02CA
Encoding: 714 714 517
Width: 384
GlyphClass: 1
Flags: W
AnchorPoint: "top" 0 256 mark 0
LayerCount: 2
Fore
SplineSet
0 384 m 1,0,-1
 0 512 l 1,1,-1
 128 512 l 1,2,-1
 128 384 l 1,3,-1
 0 384 l 1,0,-1
128 512 m 1,4,-1
 128 640 l 1,5,-1
 256 640 l 1,6,-1
 256 512 l 1,7,-1
 128 512 l 1,4,-1
EndSplineSet
EndChar

StartChar: uni02CB
Encoding: 715 715 518
Width: 384
GlyphClass: 1
Flags: W
AnchorPoint: "top" 128 256 mark 0
LayerCount: 2
Fore
SplineSet
128 384 m 1,0,-1
 128 512 l 1,1,-1
 256 512 l 1,2,-1
 256 384 l 1,3,-1
 128 384 l 1,0,-1
0 512 m 1,4,-1
 0 640 l 1,5,-1
 128 640 l 1,6,-1
 128 512 l 1,7,-1
 0 512 l 1,4,-1
EndSplineSet
EndChar

StartChar: uni02D7
Encoding: 727 727 519
Width: 512
GlyphClass: 1
Flags: W
LayerCount: 2
Fore
SplineSet
0 256 m 1,0,-1
 0 384 l 1,1,-1
 384 384 l 1,2,-1
 384 256 l 1,3,-1
 0 256 l 1,0,-1
EndSplineSet
EndChar

StartChar: breve
Encoding: 728 728 520
Width: 512
GlyphClass: 1
Flags: W
AnchorPoint: "top" 128 256 mark 0
LayerCount: 2
Fore
SplineSet
128 384 m 1,0,-1
 128 512 l 1,1,-1
 256 512 l 1,2,-1
 256 384 l 1,3,-1
 128 384 l 1,0,-1
0 512 m 1,4,-1
 0 640 l 1,5,-1
 128 640 l 1,6,-1
 128 512 l 1,7,-1
 0 512 l 1,4,-1
256 512 m 1,8,-1
 256 640 l 1,9,-1
 384 640 l 1,10,-1
 384 512 l 1,11,-1
 256 512 l 1,8,-1
EndSplineSet
EndChar

StartChar: dotaccent
Encoding: 729 729 521
Width: 256
GlyphClass: 1
Flags: W
AnchorPoint: "top" 0 384 mark 0
LayerCount: 2
Fore
SplineSet
0 512 m 1,0,-1
 0 640 l 1,1,-1
 128 640 l 1,2,-1
 128 512 l 1,3,-1
 0 512 l 1,0,-1
EndSplineSet
EndChar

StartChar: ring
Encoding: 730 730 522
Width: 512
GlyphClass: 1
Flags: W
AnchorPoint: "top" 128 256 mark 0
LayerCount: 2
Fore
SplineSet
0 384 m 1,0,-1
 0 512 l 1,1,-1
 128 512 l 1,2,-1
 128 384 l 1,3,-1
 0 384 l 1,0,-1
128 384 m 1,4,-1
 256 384 l 1,5,-1
 256 256 l 1,6,-1
 128 256 l 5,7,-1
 128 384 l 1,4,-1
256 384 m 1,8,-1
 256 512 l 1,9,-1
 384 512 l 1,10,-1
 384 384 l 1,11,-1
 256 384 l 1,8,-1
128 512 m 1,12,-1
 128 640 l 1,13,-1
 256 640 l 1,14,-1
 256 512 l 1,15,-1
 128 512 l 1,12,-1
EndSplineSet
EndChar

StartChar: ogonek
Encoding: 731 731 523
Width: 256
GlyphClass: 1
Flags: W
AnchorPoint: "foot" 128 0 mark 0
LayerCount: 2
Fore
SplineSet
0 -128 m 1,0,-1
 0 0 l 1,1,-1
 128 0 l 1,2,-1
 128 -128 l 1,3,-1
 0 -128 l 1,0,-1
EndSplineSet
EndChar

StartChar: tilde
Encoding: 732 732 524
Width: 384
GlyphClass: 1
Flags: W
AnchorPoint: "top" 0 384 mark 0
LayerCount: 2
Fore
SplineSet
0 512 m 1,0,-1
 0 640 l 1,1,-1
 256 640 l 1,2,-1
 256 512 l 1,3,-1
 0 512 l 1,0,-1
EndSplineSet
EndChar

StartChar: hungarumlaut
Encoding: 733 733 525
Width: 640
GlyphClass: 1
Flags: W
AnchorPoint: "top" 128 256 mark 0
LayerCount: 2
Fore
SplineSet
0 384 m 1,0,-1
 0 512 l 1,1,-1
 128 512 l 1,2,-1
 128 384 l 1,3,-1
 0 384 l 1,0,-1
256 384 m 1,4,-1
 256 512 l 1,5,-1
 384 512 l 1,6,-1
 384 384 l 1,7,-1
 256 384 l 1,4,-1
128 512 m 1,8,-1
 128 640 l 1,9,-1
 256 640 l 1,10,-1
 256 512 l 1,11,-1
 128 512 l 1,8,-1
384 512 m 1,12,-1
 384 640 l 1,13,-1
 512 640 l 1,14,-1
 512 512 l 1,15,-1
 384 512 l 1,12,-1
EndSplineSet
EndChar

StartChar: uni02EE
Encoding: 750 750 526
Width: 512
GlyphClass: 1
Flags: W
AnchorPoint: "top" 128 256 basechar 0
LayerCount: 2
Fore
SplineSet
128 384 m 1,0,-1
 0 384 l 1,1,-1
 0 640 l 1,2,-1
 128 640 l 1,3,-1
 128 384 l 1,0,-1
384 384 m 1,4,-1
 256 384 l 1,5,-1
 256 640 l 1,6,-1
 384 640 l 1,7,-1
 384 384 l 1,4,-1
EndSplineSet
EndChar

StartChar: gravecomb
Encoding: 768 768 527
Width: 384
GlyphClass: 1
Flags: W
AnchorPoint: "top" 128 256 mark 0
LayerCount: 2
Fore
SplineSet
128 384 m 1,0,-1
 128 512 l 1,1,-1
 256 512 l 1,2,-1
 256 384 l 1,3,-1
 128 384 l 1,0,-1
0 512 m 1,4,-1
 0 640 l 1,5,-1
 128 640 l 1,6,-1
 128 512 l 1,7,-1
 0 512 l 1,4,-1
EndSplineSet
EndChar

StartChar: acutecomb
Encoding: 769 769 528
Width: 384
GlyphClass: 1
Flags: W
AnchorPoint: "top" 0 256 mark 0
LayerCount: 2
Fore
SplineSet
0 384 m 1,0,-1
 0 512 l 1,1,-1
 128 512 l 1,2,-1
 128 384 l 1,3,-1
 0 384 l 1,0,-1
128 512 m 1,4,-1
 128 640 l 1,5,-1
 256 640 l 1,6,-1
 256 512 l 1,7,-1
 128 512 l 1,4,-1
EndSplineSet
EndChar

StartChar: uni0302
Encoding: 770 770 529
Width: 512
GlyphClass: 1
Flags: W
AnchorPoint: "top" 128 256 mark 0
LayerCount: 2
Fore
SplineSet
0 384 m 1,0,-1
 0 512 l 1,1,-1
 128 512 l 1,2,-1
 128 384 l 1,3,-1
 0 384 l 1,0,-1
256 384 m 1,4,-1
 256 512 l 1,5,-1
 384 512 l 1,6,-1
 384 384 l 1,7,-1
 256 384 l 1,4,-1
128 512 m 1,8,-1
 128 640 l 1,9,-1
 256 640 l 1,10,-1
 256 512 l 1,11,-1
 128 512 l 1,8,-1
EndSplineSet
EndChar

StartChar: tildecomb
Encoding: 771 771 530
Width: 384
GlyphClass: 1
Flags: W
AnchorPoint: "top" 0 384 mark 0
LayerCount: 2
Fore
SplineSet
0 512 m 1,0,-1
 0 640 l 1,1,-1
 256 640 l 1,2,-1
 256 512 l 1,3,-1
 0 512 l 1,0,-1
EndSplineSet
EndChar

StartChar: uni0304
Encoding: 772 772 531
Width: 512
GlyphClass: 1
Flags: W
AnchorPoint: "top" 128 384 mark 0
LayerCount: 2
Fore
SplineSet
0 512 m 1,0,-1
 0 640 l 1,1,-1
 384 640 l 1,2,-1
 384 512 l 1,3,-1
 0 512 l 1,0,-1
EndSplineSet
EndChar

StartChar: uni0306
Encoding: 774 774 532
Width: 512
GlyphClass: 1
Flags: W
AnchorPoint: "top" 128 256 mark 0
LayerCount: 2
Fore
SplineSet
128 384 m 1,0,-1
 128 512 l 1,1,-1
 256 512 l 1,2,-1
 256 384 l 1,3,-1
 128 384 l 1,0,-1
0 512 m 1,4,-1
 0 640 l 1,5,-1
 128 640 l 1,6,-1
 128 512 l 1,7,-1
 0 512 l 1,4,-1
256 512 m 1,8,-1
 256 640 l 1,9,-1
 384 640 l 1,10,-1
 384 512 l 1,11,-1
 256 512 l 1,8,-1
EndSplineSet
EndChar

StartChar: uni0307
Encoding: 775 775 533
Width: 256
GlyphClass: 1
Flags: W
AnchorPoint: "top" 0 384 mark 0
LayerCount: 2
Fore
SplineSet
0 512 m 1,0,-1
 0 640 l 1,1,-1
 128 640 l 1,2,-1
 128 512 l 1,3,-1
 0 512 l 1,0,-1
EndSplineSet
EndChar

StartChar: uni0308
Encoding: 776 776 534
Width: 512
GlyphClass: 1
Flags: W
AnchorPoint: "top" 128 384 mark 0
LayerCount: 2
Fore
SplineSet
0 512 m 1,0,-1
 0 640 l 1,1,-1
 128 640 l 1,2,-1
 128 512 l 1,3,-1
 0 512 l 1,0,-1
256 512 m 1,4,-1
 256 640 l 1,5,-1
 384 640 l 1,6,-1
 384 512 l 1,7,-1
 256 512 l 1,4,-1
EndSplineSet
EndChar

StartChar: uni030A
Encoding: 778 778 535
Width: 512
GlyphClass: 1
Flags: W
AnchorPoint: "top" 128 256 mark 0
LayerCount: 2
Fore
SplineSet
128 256 m 5,0,-1
 128 384 l 5,1,-1
 256 384 l 5,2,-1
 256 256 l 5,3,-1
 128 256 l 5,0,-1
128 512 m 5,4,-1
 128 384 l 5,5,-1
 0 384 l 5,6,-1
 0 512 l 5,7,-1
 128 512 l 5,4,-1
256 512 m 5,8,-1
 128 512 l 5,9,-1
 128 640 l 5,10,-1
 256 640 l 5,11,-1
 256 512 l 5,8,-1
256 384 m 5,12,-1
 256 512 l 5,13,-1
 384 512 l 5,14,-1
 384 384 l 5,15,-1
 256 384 l 5,12,-1
EndSplineSet
EndChar

StartChar: uni030B
Encoding: 779 779 536
Width: 640
GlyphClass: 1
Flags: W
AnchorPoint: "top" 128 256 mark 0
LayerCount: 2
Fore
SplineSet
0 384 m 1,0,-1
 0 512 l 1,1,-1
 128 512 l 1,2,-1
 128 384 l 1,3,-1
 0 384 l 1,0,-1
256 384 m 1,4,-1
 256 512 l 1,5,-1
 384 512 l 1,6,-1
 384 384 l 1,7,-1
 256 384 l 1,4,-1
128 512 m 1,8,-1
 128 640 l 1,9,-1
 256 640 l 1,10,-1
 256 512 l 1,11,-1
 128 512 l 1,8,-1
384 512 m 1,12,-1
 384 640 l 1,13,-1
 512 640 l 1,14,-1
 512 512 l 1,15,-1
 384 512 l 1,12,-1
EndSplineSet
EndChar

StartChar: uni030C
Encoding: 780 780 537
Width: 512
GlyphClass: 1
Flags: W
AnchorPoint: "top" 128 256 mark 0
LayerCount: 2
Fore
SplineSet
128 384 m 1,0,-1
 128 512 l 1,1,-1
 256 512 l 1,2,-1
 256 384 l 1,3,-1
 128 384 l 1,0,-1
0 512 m 1,4,-1
 0 640 l 1,5,-1
 128 640 l 1,6,-1
 128 512 l 1,7,-1
 0 512 l 1,4,-1
256 512 m 1,8,-1
 256 640 l 1,9,-1
 384 640 l 1,10,-1
 384 512 l 1,11,-1
 256 512 l 1,8,-1
EndSplineSet
EndChar

StartChar: uni030D
Encoding: 781 781 538
Width: 256
GlyphClass: 1
Flags: W
AnchorPoint: "top" 0 256 mark 0
LayerCount: 2
Fore
SplineSet
128 384 m 1,0,-1
 0 384 l 1,1,-1
 0 640 l 1,2,-1
 128 640 l 1,3,-1
 128 384 l 1,0,-1
EndSplineSet
EndChar

StartChar: uni030F
Encoding: 783 783 539
Width: 512
GlyphClass: 1
Flags: W
AnchorPoint: "top" 128 256 mark 0
LayerCount: 2
Fore
SplineSet
0 384 m 1,0,-1
 0 512 l 1,1,-1
 128 512 l 1,2,-1
 128 384 l 1,3,-1
 0 384 l 1,0,-1
256 384 m 1,4,-1
 256 512 l 1,5,-1
 384 512 l 1,6,-1
 384 384 l 1,7,-1
 256 384 l 1,4,-1
0 640 m 1,8,-1
 0 512 l 1,9,-1
 -128 512 l 1,10,-1
 -128 640 l 1,11,-1
 0 640 l 1,8,-1
128 512 m 1,12,-1
 128 640 l 1,13,-1
 256 640 l 1,14,-1
 256 512 l 1,15,-1
 128 512 l 1,12,-1
EndSplineSet
EndChar

StartChar: uni0310
Encoding: 784 784 540
Width: 512
GlyphClass: 1
Flags: W
AnchorPoint: "top" 128 256 mark 0
LayerCount: 2
Fore
SplineSet
128 384 m 1,0,-1
 128 512 l 1,1,-1
 256 512 l 1,2,-1
 256 384 l 1,3,-1
 128 384 l 1,0,-1
0 512 m 1,4,-1
 0 640 l 1,5,-1
 128 640 l 1,6,-1
 128 512 l 1,7,-1
 0 512 l 1,4,-1
256 512 m 1,8,-1
 256 640 l 1,9,-1
 384 640 l 1,10,-1
 384 512 l 1,11,-1
 256 512 l 1,8,-1
128 768 m 1,12,-1
 128 896 l 1,13,-1
 256 896 l 1,14,-1
 256 768 l 1,15,-1
 128 768 l 1,12,-1
EndSplineSet
EndChar

StartChar: uni0311
Encoding: 785 785 541
Width: 512
GlyphClass: 1
Flags: W
AnchorPoint: "top" 128 256 mark 0
LayerCount: 2
Fore
SplineSet
0 384 m 1,0,-1
 0 512 l 1,1,-1
 128 512 l 1,2,-1
 128 384 l 1,3,-1
 0 384 l 1,0,-1
256 384 m 1,4,-1
 256 512 l 1,5,-1
 384 512 l 1,6,-1
 384 384 l 1,7,-1
 256 384 l 1,4,-1
128 512 m 1,8,-1
 128 640 l 1,9,-1
 256 640 l 1,10,-1
 256 512 l 1,11,-1
 128 512 l 1,8,-1
EndSplineSet
EndChar

StartChar: uni0313
Encoding: 787 787 542
Width: 256
GlyphClass: 1
Flags: W
AnchorPoint: "top" 0 256 mark 0
LayerCount: 2
Fore
SplineSet
128 384 m 1,0,-1
 0 384 l 1,1,-1
 0 640 l 1,2,-1
 128 640 l 1,3,-1
 128 384 l 1,0,-1
EndSplineSet
EndChar

StartChar: uni0325
Encoding: 805 805 543
Width: 512
GlyphClass: 1
Flags: W
AnchorPoint: "bottom" 128 384 mark 0
LayerCount: 2
Fore
SplineSet
128 0 m 1,0,-1
 128 128 l 1,1,-1
 256 128 l 1,2,-1
 256 0 l 1,3,-1
 128 0 l 1,0,-1
128 256 m 1,4,-1
 128 128 l 1,5,-1
 0 128 l 1,6,-1
 0 256 l 1,7,-1
 128 256 l 1,4,-1
256 256 m 1,8,-1
 128 256 l 1,9,-1
 128 384 l 1,10,-1
 256 384 l 1,11,-1
 256 256 l 1,8,-1
256 128 m 1,12,-1
 256 256 l 1,13,-1
 384 256 l 1,14,-1
 384 128 l 1,15,-1
 256 128 l 1,12,-1
EndSplineSet
EndChar

StartChar: uni0326
Encoding: 806 806 544
Width: 256
GlyphClass: 1
Flags: W
AnchorPoint: "bottom" 0 256 mark 0
LayerCount: 2
Fore
SplineSet
0 0 m 1,0,-1
 0 128 l 1,1,-1
 128 128 l 1,2,-1
 128 0 l 1,3,-1
 0 0 l 1,0,-1
EndSplineSet
EndChar

StartChar: uni0327
Encoding: 807 807 545
Width: 256
GlyphClass: 1
Flags: W
AnchorPoint: "bottom" 0 128 mark 0
LayerCount: 2
Fore
SplineSet
0 0 m 5,0,-1
 0 128 l 5,1,-1
 128 128 l 5,2,-1
 128 0 l 5,3,-1
 0 0 l 5,0,-1
EndSplineSet
EndChar

StartChar: uni0328
Encoding: 808 808 546
Width: 256
GlyphClass: 1
Flags: W
AnchorPoint: "bottom" 0 256 mark 0
LayerCount: 2
Fore
SplineSet
0 0 m 5,0,-1
 0 128 l 5,1,-1
 128 128 l 5,2,-1
 128 0 l 5,3,-1
 0 0 l 5,0,-1
EndSplineSet
EndChar

StartChar: uni0329
Encoding: 809 809 547
Width: 256
GlyphClass: 1
Flags: W
AnchorPoint: "bottom" 0 384 mark 0
LayerCount: 2
Fore
SplineSet
0 256 m 5,0,-1
 128 256 l 5,1,-1
 128 0 l 5,2,-1
 0 0 l 5,3,-1
 0 256 l 5,0,-1
EndSplineSet
EndChar

StartChar: uni032D
Encoding: 813 813 548
Width: 512
GlyphClass: 1
Flags: W
AnchorPoint: "bottom" 128 384 mark 0
LayerCount: 2
Fore
SplineSet
128 128 m 1,0,-1
 128 256 l 1,1,-1
 256 256 l 1,2,-1
 256 128 l 1,3,-1
 128 128 l 1,0,-1
256 128 m 1,4,-1
 384 128 l 1,5,-1
 384 0 l 1,6,-1
 256 0 l 1,7,-1
 256 128 l 1,4,-1
0 0 m 1,8,-1
 0 128 l 1,9,-1
 128 128 l 1,10,-1
 128 0 l 1,11,-1
 0 0 l 1,8,-1
EndSplineSet
EndChar

StartChar: uni032F
Encoding: 815 815 549
Width: 512
GlyphClass: 1
Flags: W
AnchorPoint: "bottom" 128 384 mark 0
LayerCount: 2
Fore
SplineSet
128 128 m 5,0,-1
 128 256 l 5,1,-1
 256 256 l 5,2,-1
 256 128 l 5,3,-1
 128 128 l 5,0,-1
256 128 m 5,4,-1
 384 128 l 5,5,-1
 384 0 l 5,6,-1
 256 0 l 5,7,-1
 256 128 l 5,4,-1
0 0 m 5,8,-1
 0 128 l 5,9,-1
 128 128 l 5,10,-1
 128 0 l 5,11,-1
 0 0 l 5,8,-1
EndSplineSet
EndChar

StartChar: uni0330
Encoding: 816 816 550
Width: 384
GlyphClass: 1
Flags: W
AnchorPoint: "bottom" 0 256 mark 0
LayerCount: 2
Fore
SplineSet
0 0 m 1,0,-1
 0 128 l 1,1,-1
 256 128 l 1,2,-1
 256 0 l 1,3,-1
 0 0 l 1,0,-1
EndSplineSet
EndChar

StartChar: uni0331
Encoding: 817 817 551
Width: 512
GlyphClass: 1
Flags: W
AnchorPoint: "bottom" 128 256 mark 0
LayerCount: 2
Fore
SplineSet
0 0 m 1,0,-1
 0 128 l 1,1,-1
 384 128 l 1,2,-1
 384 0 l 1,3,-1
 0 0 l 1,0,-1
EndSplineSet
EndChar

StartChar: uni0334
Encoding: 820 820 552
Width: 384
GlyphClass: 1
Flags: W
LayerCount: 2
Fore
SplineSet
0 256 m 1,0,-1
 0 384 l 1,1,-1
 256 384 l 1,2,-1
 256 256 l 1,3,-1
 0 256 l 1,0,-1
EndSplineSet
EndChar

StartChar: uni0358
Encoding: 856 856 553
Width: 256
GlyphClass: 1
Flags: W
LayerCount: 2
Fore
SplineSet
0 512 m 1,0,-1
 0 640 l 1,1,-1
 128 640 l 1,2,-1
 128 512 l 1,3,-1
 0 512 l 1,0,-1
EndSplineSet
EndChar

StartChar: Omega
Encoding: 937 937 554
Width: 768
GlyphClass: 1
Flags: W
LayerCount: 2
Fore
SplineSet
512 128 m 1,0,-1
 640 128 l 1,1,-1
 640 0 l 1,2,-1
 384 0 l 1,3,-1
 384 256 l 1,4,-1
 512 256 l 1,5,-1
 512 128 l 1,0,-1
128 128 m 1,6,-1
 128 256 l 1,7,-1
 256 256 l 1,8,-1
 256 0 l 1,9,-1
 0 0 l 1,10,-1
 0 128 l 1,11,-1
 128 128 l 1,6,-1
128 256 m 1,12,-1
 0 256 l 1,13,-1
 0 512 l 1,14,-1
 128 512 l 1,15,-1
 128 256 l 1,12,-1
512 256 m 1,16,-1
 512 512 l 1,17,-1
 640 512 l 1,18,-1
 640 256 l 1,19,-1
 512 256 l 1,16,-1
128 512 m 1,20,-1
 128 640 l 1,21,-1
 512 640 l 1,22,-1
 512 512 l 1,23,-1
 128 512 l 1,20,-1
EndSplineSet
EndChar

StartChar: pi
Encoding: 960 960 555
Width: 512
GlyphClass: 1
Flags: W
LayerCount: 2
Fore
SplineSet
128 0 m 1,0,-1
 0 0 l 1,1,-1
 0 512 l 1,2,-1
 384 512 l 1,3,-1
 384 0 l 1,4,-1
 256 0 l 1,5,-1
 256 384 l 1,6,-1
 128 384 l 1,7,-1
 128 0 l 1,0,-1
EndSplineSet
EndChar

StartChar: uni0E3F
Encoding: 3647 3647 556
Width: 640
GlyphClass: 1
Flags: W
LayerCount: 2
Fore
SplineSet
256 -128 m 1,0,-1
 128 -128 l 1,1,-1
 128 0 l 1,2,-1
 0 0 l 1,3,-1
 0 640 l 1,4,-1
 128 640 l 1,5,-1
 128 768 l 1,6,-1
 256 768 l 1,7,-1
 256 640 l 1,8,-1
 384 640 l 1,9,-1
 384 512 l 1,10,-1
 128 512 l 1,11,-1
 128 384 l 1,12,-1
 384 384 l 1,13,-1
 384 256 l 1,14,-1
 128 256 l 1,15,-1
 128 128 l 1,16,-1
 384 128 l 1,17,-1
 384 0 l 1,18,-1
 256 0 l 1,19,-1
 256 -128 l 1,0,-1
512 128 m 1,20,-1
 384 128 l 1,21,-1
 384 256 l 1,22,-1
 512 256 l 1,23,-1
 512 128 l 1,20,-1
512 384 m 1,24,-1
 384 384 l 1,25,-1
 384 512 l 1,26,-1
 512 512 l 1,27,-1
 512 384 l 1,24,-1
EndSplineSet
EndChar

StartChar: uni1D58
Encoding: 7512 7512 557
Width: 512
GlyphClass: 1
Flags: W
LayerCount: 2
Fore
SplineSet
256 0 m 1,0,-1
 384 0 l 1,1,-1
 384 -384 l 1,2,-1
 128 -384 l 1,3,-1
 128 -256 l 1,4,-1
 256 -256 l 1,5,-1
 256 0 l 1,0,-1
0 0 m 1,6,-1
 128 0 l 1,7,-1
 128 -256 l 1,8,-1
 0 -256 l 1,9,-1
 0 0 l 1,6,-1
EndSplineSet
EndChar

StartChar: uni1D5B
Encoding: 7515 7515 558
Width: 512
GlyphClass: 1
Flags: W
LayerCount: 2
Fore
SplineSet
256 -256 m 1,0,-1
 256 0 l 1,1,-1
 384 0 l 1,2,-1
 384 -256 l 1,3,-1
 256 -256 l 1,0,-1
0 0 m 1,4,-1
 128 0 l 1,5,-1
 128 -256 l 1,6,-1
 0 -256 l 1,7,-1
 0 0 l 1,4,-1
128 -256 m 1,8,-1
 256 -256 l 1,9,-1
 256 -384 l 1,10,-1
 128 -384 l 1,11,-1
 128 -256 l 1,8,-1
EndSplineSet
EndChar

StartChar: uni1D7D
Encoding: 7549 7549 559
Width: 640
GlyphClass: 1
Flags: W
LayerCount: 2
Fore
SplineSet
512 128 m 1,0,-1
 384 128 l 1,1,-1
 384 256 l 1,2,-1
 256 256 l 1,3,-1
 256 128 l 1,4,-1
 384 128 l 1,5,-1
 384 0 l 1,6,-1
 256 0 l 1,7,-1
 256 -128 l 1,8,-1
 128 -128 l 1,9,-1
 128 256 l 1,10,-1
 0 256 l 1,11,-1
 0 384 l 1,12,-1
 128 384 l 1,13,-1
 128 512 l 1,14,-1
 384 512 l 1,15,-1
 384 384 l 1,16,-1
 512 384 l 1,17,-1
 512 128 l 1,0,-1
EndSplineSet
EndChar

StartChar: uni1DBB
Encoding: 7611 7611 560
Width: 512
GlyphClass: 1
Flags: W
LayerCount: 2
Fore
SplineSet
384 0 m 1,0,-1
 384 -128 l 1,1,-1
 256 -128 l 1,2,-1
 256 -256 l 1,3,-1
 384 -256 l 1,4,-1
 384 -384 l 1,5,-1
 0 -384 l 1,6,-1
 0 -256 l 1,7,-1
 128 -256 l 1,8,-1
 128 -128 l 1,9,-1
 0 -128 l 1,10,-1
 0 0 l 1,11,-1
 384 0 l 1,0,-1
EndSplineSet
EndChar

StartChar: uni1DC4
Encoding: 7620 7620 561
Width: 640
GlyphClass: 1
Flags: W
AnchorPoint: "top" 128 384 mark 0
LayerCount: 2
Fore
SplineSet
384 640 m 1,0,-1
 384 512 l 1,1,-1
 0 512 l 1,2,-1
 0 640 l 1,3,-1
 384 640 l 1,0,-1
512 640 m 1,4,-1
 384 640 l 1,5,-1
 384 768 l 1,6,-1
 512 768 l 1,7,-1
 512 640 l 1,4,-1
EndSplineSet
EndChar

StartChar: uni1DC5
Encoding: 7621 7621 562
Width: 640
GlyphClass: 1
Flags: W
AnchorPoint: "top" 256 384 mark 0
LayerCount: 2
Fore
SplineSet
0 640 m 1,0,-1
 0 768 l 1,1,-1
 128 768 l 1,2,-1
 128 640 l 1,3,-1
 0 640 l 1,0,-1
128 640 m 1,4,-1
 512 640 l 1,5,-1
 512 512 l 1,6,-1
 128 512 l 1,7,-1
 128 640 l 1,4,-1
EndSplineSet
EndChar

StartChar: uni1DC6
Encoding: 7622 7622 563
Width: 640
GlyphClass: 1
Flags: W
AnchorPoint: "top" 128 384 mark 0
LayerCount: 2
Fore
SplineSet
384 384 m 1,0,-1
 384 512 l 1,1,-1
 512 512 l 1,2,-1
 512 384 l 1,3,-1
 384 384 l 1,0,-1
0 512 m 1,4,-1
 0 640 l 1,5,-1
 384 640 l 1,6,-1
 384 512 l 1,7,-1
 0 512 l 1,4,-1
EndSplineSet
EndChar

StartChar: uni1DC7
Encoding: 7623 7623 564
Width: 640
GlyphClass: 1
Flags: W
AnchorPoint: "top" 256 384 mark 0
LayerCount: 2
Fore
SplineSet
0 384 m 1,0,-1
 0 512 l 1,1,-1
 128 512 l 1,2,-1
 128 384 l 1,3,-1
 0 384 l 1,0,-1
128 512 m 1,4,-1
 128 640 l 1,5,-1
 512 640 l 1,6,-1
 512 512 l 1,7,-1
 128 512 l 1,4,-1
EndSplineSet
EndChar

StartChar: uni1DCA
Encoding: 7626 7626 565
Width: 384
GlyphClass: 1
Flags: W
AnchorPoint: "foot" 0 128 mark 0
LayerCount: 2
Fore
SplineSet
128 -128 m 1,0,-1
 128 -384 l 1,1,-1
 0 -384 l 1,2,-1
 0 0 l 1,3,-1
 256 0 l 1,4,-1
 256 -128 l 1,5,-1
 128 -128 l 1,0,-1
EndSplineSet
EndChar

StartChar: uni1E9E
Encoding: 7838 7838 716
Width: 640
GlyphClass: 1
Flags: W
LayerCount: 2
Fore
SplineSet
512 128 m 1,0,-1
 384 128 l 1,1,-1
 384 256 l 1,2,-1
 512 256 l 1,3,-1
 512 128 l 1,0,-1
384 128 m 1,4,-1
 384 0 l 1,5,-1
 256 0 l 1,6,-1
 256 128 l 1,7,-1
 384 128 l 1,4,-1
128 0 m 1,8,-1
 0 0 l 1,9,-1
 0 512 l 1,10,-1
 128 512 l 1,11,-1
 128 0 l 1,8,-1
512 384 m 1,12,-1
 384 384 l 1,13,-1
 384 512 l 1,14,-1
 128 512 l 1,15,-1
 128 640 l 1,16,-1
 512 640 l 1,17,-1
 512 384 l 1,12,-1
384 384 m 1,18,-1
 384 256 l 1,19,-1
 256 256 l 1,20,-1
 256 384 l 1,21,-1
 384 384 l 1,18,-1
EndSplineSet
EndChar

StartChar: endash
Encoding: 8211 8211 737
Width: 512
GlyphClass: 1
Flags: W
LayerCount: 2
Fore
SplineSet
0 256 m 1,0,-1
 0 384 l 1,1,-1
 384 384 l 1,2,-1
 384 256 l 1,3,-1
 0 256 l 1,0,-1
EndSplineSet
EndChar

StartChar: emdash
Encoding: 8212 8212 738
Width: 768
GlyphClass: 1
Flags: W
LayerCount: 2
Fore
SplineSet
640 384 m 1,0,-1
 640 256 l 1,1,-1
 0 256 l 1,2,-1
 0 384 l 1,3,-1
 640 384 l 1,0,-1
EndSplineSet
EndChar

StartChar: afii00208
Encoding: 8213 8213 739
Width: 640
GlyphClass: 1
Flags: W
LayerCount: 2
Fore
SplineSet
0 256 m 1,0,-1
 0 384 l 1,1,-1
 512 384 l 1,2,-1
 512 256 l 1,3,-1
 0 256 l 1,0,-1
EndSplineSet
EndChar

StartChar: uni2016
Encoding: 8214 8214 740
Width: 512
GlyphClass: 1
Flags: W
LayerCount: 2
Fore
SplineSet
128 0 m 1,0,-1
 0 0 l 1,1,-1
 0 640 l 1,2,-1
 128 640 l 1,3,-1
 128 0 l 1,0,-1
384 0 m 1,4,-1
 256 0 l 1,5,-1
 256 640 l 1,6,-1
 384 640 l 1,7,-1
 384 0 l 1,4,-1
EndSplineSet
EndChar

StartChar: quoteleft
Encoding: 8216 8216 741
Width: 256
GlyphClass: 1
Flags: W
LayerCount: 2
Fore
SplineSet
128 512 m 1,0,-1
 0 512 l 1,1,-1
 0 768 l 1,2,-1
 128 768 l 1,3,-1
 128 512 l 1,0,-1
EndSplineSet
EndChar

StartChar: quoteright
Encoding: 8217 8217 742
Width: 256
GlyphClass: 1
Flags: W
LayerCount: 2
Fore
SplineSet
128 512 m 1,0,-1
 0 512 l 1,1,-1
 0 768 l 1,2,-1
 128 768 l 1,3,-1
 128 512 l 1,0,-1
EndSplineSet
EndChar

StartChar: quotesinglbase
Encoding: 8218 8218 743
Width: 256
GlyphClass: 1
Flags: W
LayerCount: 2
Fore
SplineSet
0 128 m 1,0,-1
 128 128 l 1,1,-1
 128 -128 l 1,2,-1
 0 -128 l 1,3,-1
 0 128 l 1,0,-1
EndSplineSet
EndChar

StartChar: quotereversed
Encoding: 8219 8219 744
Width: 256
GlyphClass: 1
Flags: W
LayerCount: 2
Fore
SplineSet
128 512 m 1,0,-1
 0 512 l 1,1,-1
 0 768 l 1,2,-1
 128 768 l 1,3,-1
 128 512 l 1,0,-1
EndSplineSet
EndChar

StartChar: quotedblleft
Encoding: 8220 8220 745
Width: 512
GlyphClass: 1
Flags: W
LayerCount: 2
Fore
SplineSet
128 512 m 1,0,-1
 0 512 l 1,1,-1
 0 768 l 1,2,-1
 128 768 l 1,3,-1
 128 512 l 1,0,-1
384 512 m 1,4,-1
 256 512 l 1,5,-1
 256 768 l 1,6,-1
 384 768 l 1,7,-1
 384 512 l 1,4,-1
EndSplineSet
EndChar

StartChar: quotedblright
Encoding: 8221 8221 746
Width: 512
GlyphClass: 1
Flags: W
LayerCount: 2
Fore
SplineSet
128 512 m 1,0,-1
 0 512 l 1,1,-1
 0 768 l 1,2,-1
 128 768 l 1,3,-1
 128 512 l 1,0,-1
384 512 m 1,4,-1
 256 512 l 1,5,-1
 256 768 l 1,6,-1
 384 768 l 1,7,-1
 384 512 l 1,4,-1
EndSplineSet
EndChar

StartChar: quotedblbase
Encoding: 8222 8222 747
Width: 512
GlyphClass: 1
Flags: W
LayerCount: 2
Fore
SplineSet
384 -128 m 1,0,-1
 256 -128 l 1,1,-1
 256 128 l 1,2,-1
 384 128 l 1,3,-1
 384 -128 l 1,0,-1
0 128 m 1,4,-1
 128 128 l 1,5,-1
 128 -128 l 1,6,-1
 0 -128 l 1,7,-1
 0 128 l 1,4,-1
EndSplineSet
EndChar

StartChar: uni201F
Encoding: 8223 8223 748
Width: 512
GlyphClass: 1
Flags: W
LayerCount: 2
Fore
SplineSet
128 512 m 1,0,-1
 0 512 l 1,1,-1
 0 768 l 1,2,-1
 128 768 l 1,3,-1
 128 512 l 1,0,-1
384 512 m 1,4,-1
 256 512 l 1,5,-1
 256 768 l 1,6,-1
 384 768 l 1,7,-1
 384 512 l 1,4,-1
EndSplineSet
EndChar

StartChar: dagger
Encoding: 8224 8224 749
Width: 512
GlyphClass: 1
Flags: W
LayerCount: 2
Fore
SplineSet
256 0 m 1,0,-1
 128 0 l 1,1,-1
 128 384 l 1,2,-1
 0 384 l 1,3,-1
 0 512 l 1,4,-1
 128 512 l 1,5,-1
 128 640 l 1,6,-1
 256 640 l 1,7,-1
 256 512 l 1,8,-1
 384 512 l 1,9,-1
 384 384 l 1,10,-1
 256 384 l 1,11,-1
 256 0 l 1,0,-1
EndSplineSet
EndChar

StartChar: daggerdbl
Encoding: 8225 8225 750
Width: 512
GlyphClass: 1
Flags: W
LayerCount: 2
Fore
SplineSet
0 128 m 1,0,-1
 0 256 l 1,1,-1
 128 256 l 1,2,-1
 128 384 l 1,3,-1
 0 384 l 1,4,-1
 0 512 l 1,5,-1
 128 512 l 1,6,-1
 128 640 l 1,7,-1
 256 640 l 1,8,-1
 256 512 l 1,9,-1
 384 512 l 1,10,-1
 384 384 l 1,11,-1
 256 384 l 1,12,-1
 256 256 l 1,13,-1
 384 256 l 1,14,-1
 384 128 l 1,15,-1
 256 128 l 1,16,-1
 256 0 l 1,17,-1
 128 0 l 1,18,-1
 128 128 l 1,19,-1
 0 128 l 1,0,-1
EndSplineSet
EndChar

StartChar: bullet
Encoding: 8226 8226 751
Width: 384
GlyphClass: 1
Flags: W
LayerCount: 2
Fore
SplineSet
0 256 m 1,0,-1
 0 512 l 1,1,-1
 256 512 l 1,2,-1
 256 256 l 1,3,-1
 0 256 l 1,0,-1
EndSplineSet
EndChar

StartChar: uni2023
Encoding: 8227 8227 752
Width: 384
GlyphClass: 1
Flags: W
LayerCount: 2
Fore
SplineSet
128 128 m 1,0,-1
 0 128 l 1,1,-1
 0 512 l 1,2,-1
 128 512 l 1,3,-1
 128 384 l 1,4,-1
 256 384 l 1,5,-1
 256 256 l 1,6,-1
 128 256 l 1,7,-1
 128 128 l 1,0,-1
EndSplineSet
EndChar

StartChar: uni2024
Encoding: 8228 8228 753
Width: 256
GlyphClass: 1
Flags: W
LayerCount: 2
Fore
SplineSet
0 0 m 1,0,-1
 0 128 l 1,1,-1
 128 128 l 1,2,-1
 128 0 l 1,3,-1
 0 0 l 1,0,-1
EndSplineSet
EndChar

StartChar: uni2025
Encoding: 8229 8229 754
Width: 512
GlyphClass: 1
Flags: W
LayerCount: 2
Fore
SplineSet
0 0 m 1,0,-1
 0 128 l 1,1,-1
 128 128 l 1,2,-1
 128 0 l 1,3,-1
 0 0 l 1,0,-1
256 0 m 1,4,-1
 256 128 l 1,5,-1
 384 128 l 1,6,-1
 384 0 l 1,7,-1
 256 0 l 1,4,-1
EndSplineSet
EndChar

StartChar: ellipsis
Encoding: 8230 8230 755
Width: 768
GlyphClass: 1
Flags: W
LayerCount: 2
Fore
SplineSet
0 0 m 1,0,-1
 0 128 l 1,1,-1
 128 128 l 1,2,-1
 128 0 l 1,3,-1
 0 0 l 1,0,-1
384 128 m 1,4,-1
 384 0 l 1,5,-1
 256 0 l 1,6,-1
 256 128 l 1,7,-1
 384 128 l 1,4,-1
512 0 m 1,8,-1
 512 128 l 1,9,-1
 640 128 l 1,10,-1
 640 0 l 1,11,-1
 512 0 l 1,8,-1
EndSplineSet
EndChar

StartChar: perthousand
Encoding: 8240 8240 756
Width: 896
GlyphClass: 1
Flags: W
LayerCount: 2
Fore
SplineSet
0 128 m 1,0,-1
 0 256 l 1,1,-1
 128 256 l 1,2,-1
 128 128 l 1,3,-1
 0 128 l 1,0,-1
384 128 m 1,4,-1
 384 256 l 1,5,-1
 512 256 l 1,6,-1
 512 128 l 1,7,-1
 384 128 l 1,4,-1
640 128 m 1,8,-1
 640 256 l 1,9,-1
 768 256 l 1,10,-1
 768 128 l 1,11,-1
 640 128 l 1,8,-1
128 256 m 1,12,-1
 128 384 l 1,13,-1
 256 384 l 1,14,-1
 256 256 l 1,15,-1
 128 256 l 1,12,-1
256 384 m 1,16,-1
 256 512 l 1,17,-1
 384 512 l 1,18,-1
 384 384 l 1,19,-1
 256 384 l 1,16,-1
128 640 m 1,20,-1
 128 512 l 1,21,-1
 0 512 l 1,22,-1
 0 640 l 1,23,-1
 128 640 l 1,20,-1
384 512 m 1,24,-1
 384 640 l 1,25,-1
 512 640 l 1,26,-1
 512 512 l 1,27,-1
 384 512 l 1,24,-1
EndSplineSet
EndChar

StartChar: uni2031
Encoding: 8241 8241 757
Width: 1152
GlyphClass: 1
Flags: W
LayerCount: 2
Fore
SplineSet
0 128 m 1,0,-1
 0 256 l 1,1,-1
 128 256 l 1,2,-1
 128 128 l 1,3,-1
 0 128 l 1,0,-1
384 128 m 1,4,-1
 384 256 l 1,5,-1
 512 256 l 1,6,-1
 512 128 l 1,7,-1
 384 128 l 1,4,-1
640 128 m 1,8,-1
 640 256 l 1,9,-1
 768 256 l 1,10,-1
 768 128 l 1,11,-1
 640 128 l 1,8,-1
896 128 m 1,12,-1
 896 256 l 1,13,-1
 1024 256 l 1,14,-1
 1024 128 l 1,15,-1
 896 128 l 1,12,-1
128 256 m 1,16,-1
 128 384 l 1,17,-1
 256 384 l 1,18,-1
 256 256 l 1,19,-1
 128 256 l 1,16,-1
256 384 m 1,20,-1
 256 512 l 1,21,-1
 384 512 l 1,22,-1
 384 384 l 1,23,-1
 256 384 l 1,20,-1
128 640 m 1,24,-1
 128 512 l 1,25,-1
 0 512 l 1,26,-1
 0 640 l 1,27,-1
 128 640 l 1,24,-1
384 512 m 1,28,-1
 384 640 l 1,29,-1
 512 640 l 1,30,-1
 512 512 l 1,31,-1
 384 512 l 1,28,-1
EndSplineSet
EndChar

StartChar: minute
Encoding: 8242 8242 758
Width: 256
GlyphClass: 1
Flags: W
LayerCount: 2
Fore
SplineSet
128 512 m 1,0,-1
 0 512 l 1,1,-1
 0 768 l 1,2,-1
 128 768 l 1,3,-1
 128 512 l 1,0,-1
EndSplineSet
EndChar

StartChar: second
Encoding: 8243 8243 759
Width: 512
GlyphClass: 1
Flags: W
LayerCount: 2
Fore
SplineSet
128 512 m 1,0,-1
 0 512 l 1,1,-1
 0 768 l 1,2,-1
 128 768 l 1,3,-1
 128 512 l 1,0,-1
384 512 m 1,4,-1
 256 512 l 1,5,-1
 256 768 l 1,6,-1
 384 768 l 1,7,-1
 384 512 l 1,4,-1
EndSplineSet
EndChar

StartChar: uni2034
Encoding: 8244 8244 760
Width: 768
GlyphClass: 1
Flags: W
LayerCount: 2
Fore
SplineSet
128 512 m 1,0,-1
 0 512 l 1,1,-1
 0 768 l 1,2,-1
 128 768 l 1,3,-1
 128 512 l 1,0,-1
384 512 m 1,4,-1
 256 512 l 1,5,-1
 256 768 l 1,6,-1
 384 768 l 1,7,-1
 384 512 l 1,4,-1
640 512 m 1,8,-1
 512 512 l 1,9,-1
 512 768 l 1,10,-1
 640 768 l 1,11,-1
 640 512 l 1,8,-1
EndSplineSet
EndChar

StartChar: uni2035
Encoding: 8245 8245 761
Width: 256
GlyphClass: 1
Flags: W
LayerCount: 2
Fore
SplineSet
128 512 m 1,0,-1
 0 512 l 1,1,-1
 0 768 l 1,2,-1
 128 768 l 1,3,-1
 128 512 l 1,0,-1
EndSplineSet
EndChar

StartChar: uni2036
Encoding: 8246 8246 762
Width: 512
GlyphClass: 1
Flags: W
LayerCount: 2
Fore
SplineSet
128 512 m 1,0,-1
 0 512 l 1,1,-1
 0 768 l 1,2,-1
 128 768 l 1,3,-1
 128 512 l 1,0,-1
384 512 m 1,4,-1
 256 512 l 1,5,-1
 256 768 l 1,6,-1
 384 768 l 1,7,-1
 384 512 l 1,4,-1
EndSplineSet
EndChar

StartChar: uni2037
Encoding: 8247 8247 763
Width: 768
GlyphClass: 1
Flags: W
LayerCount: 2
Fore
SplineSet
128 512 m 1,0,-1
 0 512 l 1,1,-1
 0 768 l 1,2,-1
 128 768 l 1,3,-1
 128 512 l 1,0,-1
384 512 m 1,4,-1
 256 512 l 1,5,-1
 256 768 l 1,6,-1
 384 768 l 1,7,-1
 384 512 l 1,4,-1
640 512 m 1,8,-1
 512 512 l 1,9,-1
 512 768 l 1,10,-1
 640 768 l 1,11,-1
 640 512 l 1,8,-1
EndSplineSet
EndChar

StartChar: guilsinglleft
Encoding: 8249 8249 764
Width: 384
GlyphClass: 1
Flags: W
LayerCount: 2
Fore
SplineSet
128 128 m 1,0,-1
 128 256 l 1,1,-1
 256 256 l 1,2,-1
 256 128 l 1,3,-1
 128 128 l 1,0,-1
128 384 m 1,4,-1
 128 256 l 1,5,-1
 0 256 l 1,6,-1
 0 384 l 1,7,-1
 128 384 l 1,4,-1
256 384 m 1,8,-1
 128 384 l 1,9,-1
 128 512 l 1,10,-1
 256 512 l 1,11,-1
 256 384 l 1,8,-1
EndSplineSet
EndChar

StartChar: guilsinglright
Encoding: 8250 8250 765
Width: 384
GlyphClass: 1
Flags: W
LayerCount: 2
Fore
SplineSet
0 128 m 1,0,-1
 0 256 l 1,1,-1
 128 256 l 1,2,-1
 128 128 l 1,3,-1
 0 128 l 1,0,-1
0 384 m 1,4,-1
 0 512 l 1,5,-1
 128 512 l 1,6,-1
 128 384 l 1,7,-1
 0 384 l 1,4,-1
128 384 m 1,8,-1
 256 384 l 1,9,-1
 256 256 l 1,10,-1
 128 256 l 1,11,-1
 128 384 l 1,8,-1
EndSplineSet
EndChar

StartChar: fraction
Encoding: 8260 8260 766
Width: 384
GlyphClass: 1
Flags: W
LayerCount: 2
Fore
SplineSet
128 0 m 1,0,-1
 0 0 l 1,1,-1
 0 384 l 1,2,-1
 128 384 l 1,3,-1
 128 0 l 1,0,-1
128 384 m 1,4,-1
 128 640 l 1,5,-1
 256 640 l 1,6,-1
 256 384 l 1,7,-1
 128 384 l 1,4,-1
EndSplineSet
EndChar

StartChar: uni2074
Encoding: 8308 8308 767
Width: 512
GlyphClass: 1
Flags: W
LayerCount: 2
Fore
SplineSet
256 128 m 1,0,-1
 256 256 l 1,1,-1
 0 256 l 1,2,-1
 0 384 l 1,3,-1
 128 384 l 1,4,-1
 128 512 l 1,5,-1
 256 512 l 1,6,-1
 256 640 l 1,7,-1
 384 640 l 1,8,-1
 384 128 l 1,9,-1
 256 128 l 1,0,-1
EndSplineSet
EndChar

StartChar: uni2075
Encoding: 8309 8309 768
Width: 512
GlyphClass: 1
Flags: W
LayerCount: 2
Fore
SplineSet
0 128 m 1,0,-1
 0 256 l 1,1,-1
 256 256 l 1,2,-1
 256 128 l 1,3,-1
 0 128 l 1,0,-1
256 384 m 1,4,-1
 384 384 l 1,5,-1
 384 256 l 1,6,-1
 256 256 l 1,7,-1
 256 384 l 1,4,-1
0 384 m 1,8,-1
 0 640 l 1,9,-1
 384 640 l 1,10,-1
 384 512 l 1,11,-1
 256 512 l 1,12,-1
 256 384 l 1,13,-1
 0 384 l 1,8,-1
EndSplineSet
EndChar

StartChar: uni2076
Encoding: 8310 8310 769
Width: 512
GlyphClass: 1
Flags: W
LayerCount: 2
Fore
SplineSet
128 128 m 1,0,-1
 128 256 l 1,1,-1
 256 256 l 1,2,-1
 256 128 l 1,3,-1
 128 128 l 1,0,-1
128 384 m 1,4,-1
 128 256 l 1,5,-1
 0 256 l 1,6,-1
 0 512 l 1,7,-1
 128 512 l 1,8,-1
 128 640 l 1,9,-1
 384 640 l 1,10,-1
 384 512 l 1,11,-1
 256 512 l 1,12,-1
 256 384 l 1,13,-1
 128 384 l 1,4,-1
256 384 m 1,14,-1
 384 384 l 1,15,-1
 384 256 l 1,16,-1
 256 256 l 1,17,-1
 256 384 l 1,14,-1
EndSplineSet
EndChar

StartChar: uni2077
Encoding: 8311 8311 770
Width: 512
GlyphClass: 1
Flags: W
LayerCount: 2
Fore
SplineSet
256 128 m 1,0,-1
 128 128 l 1,1,-1
 128 384 l 1,2,-1
 256 384 l 1,3,-1
 256 128 l 1,0,-1
256 384 m 1,4,-1
 256 512 l 1,5,-1
 0 512 l 1,6,-1
 0 640 l 1,7,-1
 384 640 l 1,8,-1
 384 384 l 1,9,-1
 256 384 l 1,4,-1
EndSplineSet
EndChar

StartChar: uni2078
Encoding: 8312 8312 771
Width: 512
GlyphClass: 1
Flags: W
LayerCount: 2
Fore
SplineSet
128 128 m 1,0,-1
 128 256 l 1,1,-1
 256 256 l 1,2,-1
 256 128 l 1,3,-1
 128 128 l 1,0,-1
128 384 m 1,4,-1
 128 256 l 1,5,-1
 0 256 l 1,6,-1
 0 512 l 1,7,-1
 128 512 l 1,8,-1
 128 640 l 1,9,-1
 256 640 l 1,10,-1
 256 512 l 1,11,-1
 384 512 l 1,12,-1
 384 256 l 1,13,-1
 256 256 l 1,14,-1
 256 384 l 1,15,-1
 128 384 l 1,4,-1
EndSplineSet
EndChar

StartChar: uni2079
Encoding: 8313 8313 772
Width: 512
GlyphClass: 1
Flags: W
LayerCount: 2
Fore
SplineSet
0 128 m 1,0,-1
 0 256 l 1,1,-1
 128 256 l 1,2,-1
 128 384 l 1,3,-1
 256 384 l 1,4,-1
 256 512 l 1,5,-1
 384 512 l 1,6,-1
 384 256 l 1,7,-1
 256 256 l 1,8,-1
 256 128 l 1,9,-1
 0 128 l 1,0,-1
0 384 m 1,10,-1
 0 512 l 1,11,-1
 128 512 l 1,12,-1
 128 384 l 1,13,-1
 0 384 l 1,10,-1
128 512 m 1,14,-1
 128 640 l 1,15,-1
 256 640 l 1,16,-1
 256 512 l 1,17,-1
 128 512 l 1,14,-1
EndSplineSet
EndChar

StartChar: nsuperior
Encoding: 8319 8319 773
Width: 512
GlyphClass: 1
Flags: W
LayerCount: 2
Fore
SplineSet
128 256 m 1,0,-1
 0 256 l 1,1,-1
 0 640 l 1,2,-1
 256 640 l 1,3,-1
 256 512 l 1,4,-1
 128 512 l 1,5,-1
 128 256 l 1,0,-1
384 256 m 1,6,-1
 256 256 l 1,7,-1
 256 512 l 1,8,-1
 384 512 l 1,9,-1
 384 256 l 1,6,-1
EndSplineSet
EndChar

StartChar: uni2081
Encoding: 8321 8321 774
Width: 384
GlyphClass: 1
Flags: W
LayerCount: 2
Fore
SplineSet
256 0 m 1,0,-1
 128 0 l 1,1,-1
 128 256 l 1,2,-1
 0 256 l 1,3,-1
 0 384 l 1,4,-1
 128 384 l 1,5,-1
 128 512 l 1,6,-1
 256 512 l 1,7,-1
 256 0 l 1,0,-1
EndSplineSet
EndChar

StartChar: uni2082
Encoding: 8322 8322 775
Width: 512
GlyphClass: 1
Flags: W
LayerCount: 2
Fore
SplineSet
128 128 m 1,0,-1
 128 256 l 1,1,-1
 256 256 l 1,2,-1
 256 128 l 1,3,-1
 384 128 l 1,4,-1
 384 0 l 1,5,-1
 0 0 l 1,6,-1
 0 128 l 1,7,-1
 128 128 l 1,0,-1
0 384 m 1,8,-1
 0 512 l 1,9,-1
 256 512 l 1,10,-1
 256 384 l 1,11,-1
 0 384 l 1,8,-1
256 384 m 1,12,-1
 384 384 l 1,13,-1
 384 256 l 1,14,-1
 256 256 l 1,15,-1
 256 384 l 1,12,-1
EndSplineSet
EndChar

StartChar: uni2083
Encoding: 8323 8323 776
Width: 512
GlyphClass: 1
Flags: W
LayerCount: 2
Fore
SplineSet
256 128 m 1,0,-1
 256 0 l 1,1,-1
 0 0 l 1,2,-1
 0 128 l 1,3,-1
 256 128 l 1,0,-1
384 128 m 1,4,-1
 256 128 l 1,5,-1
 256 256 l 1,6,-1
 384 256 l 1,7,-1
 384 128 l 1,4,-1
0 384 m 1,8,-1
 0 512 l 1,9,-1
 384 512 l 1,10,-1
 384 384 l 1,11,-1
 256 384 l 1,12,-1
 256 256 l 1,13,-1
 128 256 l 1,14,-1
 128 384 l 1,15,-1
 0 384 l 1,8,-1
EndSplineSet
EndChar

StartChar: uni2084
Encoding: 8324 8324 777
Width: 512
GlyphClass: 1
Flags: W
LayerCount: 2
Fore
SplineSet
0 128 m 1,0,-1
 0 256 l 1,1,-1
 128 256 l 1,2,-1
 128 384 l 1,3,-1
 256 384 l 1,4,-1
 256 512 l 1,5,-1
 384 512 l 1,6,-1
 384 0 l 1,7,-1
 256 0 l 1,8,-1
 256 128 l 1,9,-1
 0 128 l 1,0,-1
EndSplineSet
EndChar

StartChar: uni2085
Encoding: 8325 8325 778
Width: 512
GlyphClass: 1
Flags: W
LayerCount: 2
Fore
SplineSet
256 128 m 1,0,-1
 256 0 l 1,1,-1
 0 0 l 1,2,-1
 0 128 l 1,3,-1
 256 128 l 1,0,-1
384 128 m 1,4,-1
 256 128 l 1,5,-1
 256 256 l 1,6,-1
 384 256 l 1,7,-1
 384 128 l 1,4,-1
256 384 m 1,8,-1
 256 256 l 1,9,-1
 0 256 l 1,10,-1
 0 512 l 1,11,-1
 384 512 l 1,12,-1
 384 384 l 1,13,-1
 256 384 l 1,8,-1
EndSplineSet
EndChar

StartChar: uni2086
Encoding: 8326 8326 779
Width: 512
GlyphClass: 1
Flags: W
LayerCount: 2
Fore
SplineSet
128 128 m 1,0,-1
 0 128 l 1,1,-1
 0 384 l 1,2,-1
 128 384 l 1,3,-1
 128 512 l 1,4,-1
 384 512 l 1,5,-1
 384 384 l 1,6,-1
 256 384 l 1,7,-1
 256 256 l 1,8,-1
 128 256 l 1,9,-1
 128 128 l 1,0,-1
256 128 m 1,10,-1
 256 0 l 1,11,-1
 128 0 l 1,12,-1
 128 128 l 1,13,-1
 256 128 l 1,10,-1
384 128 m 1,14,-1
 256 128 l 1,15,-1
 256 256 l 1,16,-1
 384 256 l 1,17,-1
 384 128 l 1,14,-1
EndSplineSet
EndChar

StartChar: uni2087
Encoding: 8327 8327 780
Width: 512
GlyphClass: 1
Flags: W
LayerCount: 2
Fore
SplineSet
256 0 m 1,0,-1
 128 0 l 1,1,-1
 128 256 l 1,2,-1
 256 256 l 1,3,-1
 256 0 l 1,0,-1
0 384 m 1,4,-1
 0 512 l 1,5,-1
 384 512 l 1,6,-1
 384 256 l 1,7,-1
 256 256 l 1,8,-1
 256 384 l 1,9,-1
 0 384 l 1,4,-1
EndSplineSet
EndChar

StartChar: uni2088
Encoding: 8328 8328 781
Width: 512
GlyphClass: 1
Flags: W
LayerCount: 2
Fore
SplineSet
128 128 m 1,0,-1
 0 128 l 1,1,-1
 0 384 l 1,2,-1
 128 384 l 1,3,-1
 128 512 l 1,4,-1
 256 512 l 1,5,-1
 256 384 l 1,6,-1
 384 384 l 1,7,-1
 384 128 l 1,8,-1
 256 128 l 1,9,-1
 256 256 l 1,10,-1
 128 256 l 1,11,-1
 128 128 l 1,0,-1
256 128 m 1,12,-1
 256 0 l 1,13,-1
 128 0 l 1,14,-1
 128 128 l 1,15,-1
 256 128 l 1,12,-1
EndSplineSet
EndChar

StartChar: uni2089
Encoding: 8329 8329 782
Width: 512
GlyphClass: 1
Flags: W
LayerCount: 2
Fore
SplineSet
128 128 m 1,0,-1
 128 256 l 1,1,-1
 256 256 l 1,2,-1
 256 384 l 1,3,-1
 384 384 l 1,4,-1
 384 128 l 1,5,-1
 256 128 l 1,6,-1
 256 0 l 1,7,-1
 0 0 l 1,8,-1
 0 128 l 1,9,-1
 128 128 l 1,0,-1
128 384 m 1,10,-1
 128 256 l 1,11,-1
 0 256 l 1,12,-1
 0 384 l 1,13,-1
 128 384 l 1,10,-1
256 384 m 1,14,-1
 128 384 l 1,15,-1
 128 512 l 1,16,-1
 256 512 l 1,17,-1
 256 384 l 1,14,-1
EndSplineSet
EndChar

StartChar: uni20A1
Encoding: 8353 8353 783
Width: 640
GlyphClass: 1
Flags: W
LayerCount: 2
Fore
SplineSet
512 128 m 1,0,-1
 384 128 l 1,1,-1
 384 256 l 1,2,-1
 512 256 l 1,3,-1
 512 128 l 1,0,-1
128 128 m 1,4,-1
 0 128 l 1,5,-1
 0 512 l 1,6,-1
 128 512 l 1,7,-1
 128 128 l 1,4,-1
384 128 m 1,8,-1
 384 -128 l 1,9,-1
 128 -128 l 1,10,-1
 128 128 l 1,11,-1
 384 128 l 1,8,-1
384 384 m 1,12,-1
 384 512 l 1,13,-1
 512 512 l 1,14,-1
 512 384 l 1,15,-1
 384 384 l 1,12,-1
128 512 m 1,16,-1
 128 768 l 1,17,-1
 384 768 l 1,18,-1
 384 512 l 1,19,-1
 128 512 l 1,16,-1
EndSplineSet
EndChar

StartChar: uni20A6
Encoding: 8358 8358 784
Width: 896
GlyphClass: 1
Flags: W
LayerCount: 2
Fore
SplineSet
256 0 m 1,0,-1
 128 0 l 1,1,-1
 128 256 l 1,2,-1
 0 256 l 1,3,-1
 0 384 l 1,4,-1
 128 384 l 1,5,-1
 128 640 l 1,6,-1
 256 640 l 1,7,-1
 256 512 l 1,8,-1
 384 512 l 1,9,-1
 384 384 l 1,10,-1
 256 384 l 1,11,-1
 256 0 l 1,0,-1
640 0 m 1,12,-1
 512 0 l 1,13,-1
 512 256 l 1,14,-1
 384 256 l 1,15,-1
 384 384 l 1,16,-1
 512 384 l 1,17,-1
 512 640 l 1,18,-1
 640 640 l 1,19,-1
 640 384 l 1,20,-1
 768 384 l 1,21,-1
 768 256 l 1,22,-1
 640 256 l 1,23,-1
 640 0 l 1,12,-1
EndSplineSet
EndChar

StartChar: uni20A8
Encoding: 8360 8360 785
Width: 1152
GlyphClass: 1
Flags: W
LayerCount: 2
Fore
SplineSet
128 0 m 1,0,-1
 0 0 l 1,1,-1
 0 640 l 1,2,-1
 384 640 l 1,3,-1
 384 512 l 1,4,-1
 128 512 l 1,5,-1
 128 384 l 1,6,-1
 384 384 l 1,7,-1
 384 256 l 1,8,-1
 128 256 l 1,9,-1
 128 0 l 1,0,-1
896 128 m 1,10,-1
 896 0 l 1,11,-1
 640 0 l 1,12,-1
 640 128 l 1,13,-1
 896 128 l 1,10,-1
1024 128 m 1,14,-1
 896 128 l 1,15,-1
 896 256 l 1,16,-1
 1024 256 l 1,17,-1
 1024 128 l 1,14,-1
512 0 m 1,18,-1
 384 0 l 1,19,-1
 384 256 l 1,20,-1
 512 256 l 1,21,-1
 512 0 l 1,18,-1
768 384 m 1,22,-1
 768 512 l 1,23,-1
 1024 512 l 1,24,-1
 1024 384 l 1,25,-1
 896 384 l 1,26,-1
 896 256 l 1,27,-1
 640 256 l 1,28,-1
 640 384 l 1,29,-1
 768 384 l 1,22,-1
512 384 m 1,30,-1
 384 384 l 1,31,-1
 384 512 l 1,32,-1
 512 512 l 1,33,-1
 512 384 l 1,30,-1
EndSplineSet
EndChar

StartChar: uni20A9
Encoding: 8361 8361 786
Width: 1024
GlyphClass: 1
Flags: W
LayerCount: 2
Fore
SplineSet
256 0 m 1,0,-1
 256 128 l 1,1,-1
 0 128 l 1,2,-1
 0 256 l 1,3,-1
 128 256 l 1,4,-1
 128 384 l 1,5,-1
 0 384 l 1,6,-1
 0 512 l 1,7,-1
 128 512 l 1,8,-1
 128 640 l 1,9,-1
 256 640 l 1,10,-1
 256 256 l 1,11,-1
 384 256 l 1,12,-1
 384 0 l 1,13,-1
 256 0 l 1,0,-1
640 128 m 1,14,-1
 640 0 l 1,15,-1
 512 0 l 1,16,-1
 512 256 l 1,17,-1
 640 256 l 1,18,-1
 640 640 l 1,19,-1
 768 640 l 1,20,-1
 768 512 l 1,21,-1
 896 512 l 1,22,-1
 896 384 l 1,23,-1
 768 384 l 1,24,-1
 768 256 l 1,25,-1
 896 256 l 1,26,-1
 896 128 l 1,27,-1
 640 128 l 1,14,-1
384 256 m 1,28,-1
 384 640 l 1,29,-1
 512 640 l 1,30,-1
 512 256 l 1,31,-1
 384 256 l 1,28,-1
EndSplineSet
EndChar

StartChar: uni20AA
Encoding: 8362 8362 787
Width: 1024
GlyphClass: 1
Flags: W
LayerCount: 2
Fore
SplineSet
128 0 m 1,0,-1
 0 0 l 1,1,-1
 0 640 l 1,2,-1
 512 640 l 1,3,-1
 512 512 l 1,4,-1
 128 512 l 1,5,-1
 128 0 l 1,0,-1
768 128 m 1,6,-1
 768 0 l 1,7,-1
 256 0 l 1,8,-1
 256 384 l 1,9,-1
 384 384 l 1,10,-1
 384 128 l 1,11,-1
 768 128 l 1,6,-1
896 128 m 1,12,-1
 768 128 l 1,13,-1
 768 640 l 1,14,-1
 896 640 l 1,15,-1
 896 128 l 1,12,-1
512 256 m 1,16,-1
 512 512 l 1,17,-1
 640 512 l 1,18,-1
 640 256 l 1,19,-1
 512 256 l 1,16,-1
EndSplineSet
EndChar

StartChar: uni20AB
Encoding: 8363 8363 788
Width: 640
GlyphClass: 1
Flags: W
LayerCount: 2
Fore
SplineSet
128 0 m 1,0,-1
 128 128 l 1,1,-1
 256 128 l 1,2,-1
 256 384 l 1,3,-1
 128 384 l 1,4,-1
 128 512 l 1,5,-1
 256 512 l 1,6,-1
 256 768 l 1,7,-1
 384 768 l 1,8,-1
 384 640 l 1,9,-1
 512 640 l 1,10,-1
 512 512 l 1,11,-1
 384 512 l 1,12,-1
 384 0 l 1,13,-1
 128 0 l 1,0,-1
128 128 m 1,14,-1
 0 128 l 1,15,-1
 0 384 l 1,16,-1
 128 384 l 1,17,-1
 128 128 l 1,14,-1
384 -256 m 1,18,-1
 0 -256 l 1,19,-1
 0 -128 l 1,20,-1
 384 -128 l 1,21,-1
 384 -256 l 1,18,-1
EndSplineSet
EndChar

StartChar: Euro
Encoding: 8364 8364 789
Width: 640
GlyphClass: 1
Flags: W
LayerCount: 2
Fore
SplineSet
128 128 m 1,0,-1
 0 128 l 1,1,-1
 0 512 l 1,2,-1
 128 512 l 1,3,-1
 128 384 l 1,4,-1
 256 384 l 1,5,-1
 256 256 l 1,6,-1
 128 256 l 1,7,-1
 128 128 l 1,0,-1
384 128 m 1,8,-1
 384 0 l 1,9,-1
 128 0 l 1,10,-1
 128 128 l 1,11,-1
 384 128 l 1,8,-1
512 128 m 1,12,-1
 384 128 l 1,13,-1
 384 256 l 1,14,-1
 512 256 l 1,15,-1
 512 128 l 1,12,-1
512 384 m 1,16,-1
 384 384 l 1,17,-1
 384 512 l 1,18,-1
 512 512 l 1,19,-1
 512 384 l 1,16,-1
128 512 m 1,20,-1
 128 640 l 1,21,-1
 384 640 l 1,22,-1
 384 512 l 1,23,-1
 128 512 l 1,20,-1
EndSplineSet
EndChar

StartChar: uni20AD
Encoding: 8365 8365 790
Width: 768
GlyphClass: 1
Flags: W
LayerCount: 2
Fore
SplineSet
512 128 m 1,0,-1
 384 128 l 1,1,-1
 384 256 l 1,2,-1
 256 256 l 1,3,-1
 256 0 l 1,4,-1
 128 0 l 1,5,-1
 128 256 l 1,6,-1
 0 256 l 1,7,-1
 0 384 l 1,8,-1
 128 384 l 1,9,-1
 128 640 l 1,10,-1
 256 640 l 1,11,-1
 256 384 l 1,12,-1
 384 384 l 1,13,-1
 384 512 l 1,14,-1
 512 512 l 1,15,-1
 512 384 l 1,16,-1
 640 384 l 1,17,-1
 640 256 l 1,18,-1
 512 256 l 1,19,-1
 512 128 l 1,0,-1
512 0 m 1,20,-1
 512 128 l 1,21,-1
 640 128 l 1,22,-1
 640 0 l 1,23,-1
 512 0 l 1,20,-1
512 512 m 1,24,-1
 512 640 l 1,25,-1
 640 640 l 1,26,-1
 640 512 l 1,27,-1
 512 512 l 1,24,-1
EndSplineSet
EndChar

StartChar: uni20AE
Encoding: 8366 8366 791
Width: 512
GlyphClass: 1
Flags: W
LayerCount: 2
Fore
SplineSet
256 0 m 1,0,-1
 128 0 l 1,1,-1
 128 256 l 1,2,-1
 0 256 l 1,3,-1
 0 384 l 1,4,-1
 128 384 l 1,5,-1
 128 512 l 1,6,-1
 0 512 l 1,7,-1
 0 640 l 1,8,-1
 384 640 l 1,9,-1
 384 512 l 1,10,-1
 256 512 l 1,11,-1
 256 384 l 1,12,-1
 384 384 l 1,13,-1
 384 256 l 1,14,-1
 256 256 l 1,15,-1
 256 0 l 1,0,-1
EndSplineSet
EndChar

StartChar: uni20B1
Encoding: 8369 8369 792
Width: 768
GlyphClass: 1
Flags: W
LayerCount: 2
Fore
SplineSet
256 0 m 1,0,-1
 128 0 l 1,1,-1
 128 384 l 1,2,-1
 0 384 l 1,3,-1
 0 512 l 1,4,-1
 128 512 l 1,5,-1
 128 640 l 1,6,-1
 512 640 l 1,7,-1
 512 512 l 1,8,-1
 256 512 l 1,9,-1
 256 384 l 1,10,-1
 512 384 l 1,11,-1
 512 256 l 1,12,-1
 256 256 l 1,13,-1
 256 0 l 1,0,-1
512 384 m 1,14,-1
 512 512 l 1,15,-1
 640 512 l 1,16,-1
 640 384 l 1,17,-1
 512 384 l 1,14,-1
EndSplineSet
EndChar

StartChar: uni20B2
Encoding: 8370 8370 793
Width: 640
GlyphClass: 1
Flags: W
LayerCount: 2
Fore
SplineSet
256 -128 m 1,0,-1
 256 0 l 1,1,-1
 128 0 l 1,2,-1
 128 128 l 1,3,-1
 384 128 l 1,4,-1
 384 256 l 1,5,-1
 256 256 l 1,6,-1
 256 384 l 1,7,-1
 512 384 l 1,8,-1
 512 0 l 1,9,-1
 384 0 l 1,10,-1
 384 -128 l 1,11,-1
 256 -128 l 1,0,-1
128 128 m 1,12,-1
 0 128 l 1,13,-1
 0 512 l 1,14,-1
 128 512 l 1,15,-1
 128 128 l 1,12,-1
256 640 m 1,16,-1
 256 768 l 1,17,-1
 384 768 l 1,18,-1
 384 640 l 1,19,-1
 512 640 l 1,20,-1
 512 512 l 1,21,-1
 128 512 l 1,22,-1
 128 640 l 1,23,-1
 256 640 l 1,16,-1
EndSplineSet
EndChar

StartChar: uni20B4
Encoding: 8372 8372 794
Width: 512
GlyphClass: 1
Flags: W
LayerCount: 2
Fore
SplineSet
128 128 m 1,0,-1
 0 128 l 1,1,-1
 0 384 l 1,2,-1
 256 384 l 1,3,-1
 256 512 l 1,4,-1
 384 512 l 1,5,-1
 384 256 l 1,6,-1
 128 256 l 1,7,-1
 128 128 l 1,0,-1
128 0 m 1,8,-1
 128 128 l 1,9,-1
 384 128 l 1,10,-1
 384 0 l 1,11,-1
 128 0 l 1,8,-1
0 512 m 1,12,-1
 0 640 l 1,13,-1
 256 640 l 1,14,-1
 256 512 l 1,15,-1
 0 512 l 1,12,-1
EndSplineSet
EndChar

StartChar: uni20B5
Encoding: 8373 8373 795
Width: 640
GlyphClass: 1
Flags: W
LayerCount: 2
Fore
SplineSet
512 128 m 1,0,-1
 384 128 l 1,1,-1
 384 256 l 1,2,-1
 512 256 l 1,3,-1
 512 128 l 1,0,-1
128 128 m 1,4,-1
 0 128 l 1,5,-1
 0 512 l 1,6,-1
 128 512 l 1,7,-1
 128 128 l 1,4,-1
384 128 m 1,8,-1
 384 -128 l 1,9,-1
 256 -128 l 1,10,-1
 256 0 l 1,11,-1
 128 0 l 1,12,-1
 128 128 l 1,13,-1
 384 128 l 1,8,-1
384 384 m 1,14,-1
 384 512 l 1,15,-1
 512 512 l 1,16,-1
 512 384 l 1,17,-1
 384 384 l 1,14,-1
256 640 m 1,18,-1
 256 768 l 1,19,-1
 384 768 l 1,20,-1
 384 512 l 1,21,-1
 128 512 l 1,22,-1
 128 640 l 1,23,-1
 256 640 l 1,18,-1
EndSplineSet
EndChar

StartChar: uni20B8
Encoding: 8376 8376 796
Width: 512
GlyphClass: 1
Flags: W
LayerCount: 2
Fore
SplineSet
256 0 m 1,0,-1
 128 0 l 1,1,-1
 128 256 l 1,2,-1
 0 256 l 1,3,-1
 0 384 l 1,4,-1
 384 384 l 1,5,-1
 384 256 l 1,6,-1
 256 256 l 1,7,-1
 256 0 l 1,0,-1
0 512 m 1,8,-1
 0 640 l 1,9,-1
 384 640 l 1,10,-1
 384 512 l 1,11,-1
 0 512 l 1,8,-1
EndSplineSet
EndChar

StartChar: uni20B9
Encoding: 8377 8377 797
Width: 512
GlyphClass: 1
Flags: W
LayerCount: 2
Fore
SplineSet
384 0 m 1,0,-1
 256 0 l 1,1,-1
 256 256 l 1,2,-1
 384 256 l 1,3,-1
 384 0 l 1,0,-1
256 384 m 1,4,-1
 256 256 l 1,5,-1
 0 256 l 1,6,-1
 0 384 l 1,7,-1
 256 384 l 1,4,-1
384 384 m 1,8,-1
 256 384 l 1,9,-1
 256 512 l 1,10,-1
 384 512 l 1,11,-1
 384 384 l 1,8,-1
0 512 m 1,12,-1
 0 640 l 1,13,-1
 256 640 l 1,14,-1
 256 512 l 1,15,-1
 0 512 l 1,12,-1
EndSplineSet
EndChar

StartChar: uni20BA
Encoding: 8378 8378 798
Width: 640
GlyphClass: 1
Flags: W
LayerCount: 2
Fore
SplineSet
256 128 m 1,0,-1
 384 128 l 1,1,-1
 384 0 l 1,2,-1
 128 0 l 1,3,-1
 128 256 l 1,4,-1
 0 256 l 1,5,-1
 0 384 l 1,6,-1
 128 384 l 1,7,-1
 128 640 l 1,8,-1
 256 640 l 1,9,-1
 256 512 l 1,10,-1
 384 512 l 1,11,-1
 384 384 l 1,12,-1
 256 384 l 1,13,-1
 256 128 l 1,0,-1
384 128 m 1,14,-1
 384 256 l 1,15,-1
 512 256 l 1,16,-1
 512 128 l 1,17,-1
 384 128 l 1,14,-1
EndSplineSet
EndChar

StartChar: uni20BC
Encoding: 8380 8380 799
Width: 768
GlyphClass: 1
Flags: W
LayerCount: 2
Fore
SplineSet
128 0 m 1,0,-1
 0 0 l 1,1,-1
 0 384 l 1,2,-1
 128 384 l 1,3,-1
 128 0 l 1,0,-1
384 0 m 1,4,-1
 256 0 l 1,5,-1
 256 384 l 1,6,-1
 128 384 l 1,7,-1
 128 512 l 1,8,-1
 256 512 l 1,9,-1
 256 640 l 1,10,-1
 384 640 l 1,11,-1
 384 512 l 1,12,-1
 512 512 l 1,13,-1
 512 384 l 1,14,-1
 384 384 l 1,15,-1
 384 0 l 1,4,-1
640 0 m 1,16,-1
 512 0 l 1,17,-1
 512 384 l 1,18,-1
 640 384 l 1,19,-1
 640 0 l 1,16,-1
EndSplineSet
EndChar

StartChar: uni20BD
Encoding: 8381 8381 800
Width: 640
GlyphClass: 1
Flags: W
LayerCount: 2
Fore
SplineSet
0 128 m 1,0,-1
 0 256 l 1,1,-1
 128 256 l 1,2,-1
 128 640 l 1,3,-1
 384 640 l 1,4,-1
 384 512 l 1,5,-1
 256 512 l 1,6,-1
 256 384 l 1,7,-1
 384 384 l 1,8,-1
 384 256 l 1,9,-1
 512 256 l 1,10,-1
 512 128 l 1,11,-1
 256 128 l 1,12,-1
 256 0 l 1,13,-1
 128 0 l 1,14,-1
 128 128 l 1,15,-1
 0 128 l 1,0,-1
384 384 m 1,16,-1
 384 512 l 1,17,-1
 512 512 l 1,18,-1
 512 384 l 1,19,-1
 384 384 l 1,16,-1
EndSplineSet
EndChar

StartChar: uni20BE
Encoding: 8382 8382 801
Width: 640
GlyphClass: 1
Flags: W
LayerCount: 2
Fore
SplineSet
512 128 m 1,0,-1
 512 0 l 1,1,-1
 0 0 l 1,2,-1
 0 128 l 1,3,-1
 128 128 l 1,4,-1
 128 256 l 1,5,-1
 256 256 l 1,6,-1
 256 128 l 1,7,-1
 512 128 l 1,0,-1
128 384 m 1,8,-1
 128 256 l 1,9,-1
 0 256 l 1,10,-1
 0 512 l 1,11,-1
 128 512 l 1,12,-1
 128 640 l 1,13,-1
 384 640 l 1,14,-1
 384 512 l 1,15,-1
 512 512 l 1,16,-1
 512 384 l 1,17,-1
 128 384 l 1,8,-1
EndSplineSet
EndChar

StartChar: uni20BF
Encoding: 8383 8383 802
Width: 640
GlyphClass: 1
Flags: W
LayerCount: 2
Fore
SplineSet
256 -128 m 1,0,-1
 128 -128 l 1,1,-1
 128 0 l 1,2,-1
 0 0 l 1,3,-1
 0 640 l 1,4,-1
 128 640 l 1,5,-1
 128 768 l 1,6,-1
 256 768 l 1,7,-1
 256 640 l 1,8,-1
 384 640 l 1,9,-1
 384 512 l 1,10,-1
 128 512 l 1,11,-1
 128 384 l 1,12,-1
 384 384 l 1,13,-1
 384 256 l 1,14,-1
 128 256 l 1,15,-1
 128 128 l 1,16,-1
 384 128 l 1,17,-1
 384 0 l 1,18,-1
 256 0 l 1,19,-1
 256 -128 l 1,0,-1
512 128 m 1,20,-1
 384 128 l 1,21,-1
 384 256 l 1,22,-1
 512 256 l 1,23,-1
 512 128 l 1,20,-1
512 384 m 1,24,-1
 384 384 l 1,25,-1
 384 512 l 1,26,-1
 512 512 l 1,27,-1
 512 384 l 1,24,-1
EndSplineSet
EndChar

StartChar: afii61289
Encoding: 8467 8467 803
Width: 256
GlyphClass: 1
Flags: W
LayerCount: 2
Fore
SplineSet
128 0 m 1,0,-1
 0 0 l 1,1,-1
 0 640 l 1,2,-1
 128 640 l 1,3,-1
 128 0 l 1,0,-1
EndSplineSet
EndChar

StartChar: afii61352
Encoding: 8470 8470 804
Width: 1152
GlyphClass: 1
Flags: W
LayerCount: 2
Fore
SplineSet
128 0 m 1,0,-1
 0 0 l 1,1,-1
 0 640 l 1,2,-1
 128 640 l 1,3,-1
 128 512 l 1,4,-1
 256 512 l 1,5,-1
 256 384 l 1,6,-1
 128 384 l 1,7,-1
 128 0 l 1,0,-1
512 0 m 1,8,-1
 384 0 l 1,9,-1
 384 256 l 1,10,-1
 256 256 l 1,11,-1
 256 384 l 1,12,-1
 384 384 l 1,13,-1
 384 640 l 1,14,-1
 512 640 l 1,15,-1
 512 0 l 1,8,-1
896 384 m 1,16,-1
 896 256 l 1,17,-1
 768 256 l 1,18,-1
 768 384 l 1,19,-1
 896 384 l 1,16,-1
640 384 m 1,20,-1
 640 512 l 1,21,-1
 768 512 l 1,22,-1
 768 384 l 1,23,-1
 640 384 l 1,20,-1
1024 384 m 1,24,-1
 896 384 l 1,25,-1
 896 512 l 1,26,-1
 1024 512 l 1,27,-1
 1024 384 l 1,24,-1
768 640 m 1,28,-1
 896 640 l 1,29,-1
 896 512 l 1,30,-1
 768 512 l 1,31,-1
 768 640 l 1,28,-1
EndSplineSet
EndChar

StartChar: trademark
Encoding: 8482 8482 805
Width: 896
GlyphClass: 1
Flags: W
LayerCount: 2
Fore
SplineSet
256 256 m 1,0,-1
 128 256 l 1,1,-1
 128 512 l 1,2,-1
 0 512 l 1,3,-1
 0 640 l 1,4,-1
 768 640 l 1,5,-1
 768 256 l 1,6,-1
 640 256 l 1,7,-1
 640 384 l 1,8,-1
 512 384 l 1,9,-1
 512 256 l 1,10,-1
 384 256 l 1,11,-1
 384 512 l 1,12,-1
 256 512 l 1,13,-1
 256 256 l 1,0,-1
EndSplineSet
EndChar

StartChar: Omega
Encoding: 8486 8486 806
Width: 768
GlyphClass: 1
Flags: W
LayerCount: 2
Fore
SplineSet
512 128 m 1,0,-1
 640 128 l 1,1,-1
 640 0 l 1,2,-1
 384 0 l 1,3,-1
 384 256 l 1,4,-1
 512 256 l 1,5,-1
 512 128 l 1,0,-1
128 128 m 1,6,-1
 128 256 l 1,7,-1
 256 256 l 1,8,-1
 256 0 l 1,9,-1
 0 0 l 1,10,-1
 0 128 l 1,11,-1
 128 128 l 1,6,-1
128 256 m 1,12,-1
 0 256 l 1,13,-1
 0 512 l 1,14,-1
 128 512 l 1,15,-1
 128 256 l 1,12,-1
512 256 m 1,16,-1
 512 512 l 1,17,-1
 640 512 l 1,18,-1
 640 256 l 1,19,-1
 512 256 l 1,16,-1
128 512 m 1,20,-1
 128 640 l 1,21,-1
 512 640 l 1,22,-1
 512 512 l 1,23,-1
 128 512 l 1,20,-1
EndSplineSet
EndChar

StartChar: estimated
Encoding: 8494 8494 807
Width: 512
GlyphClass: 1
Flags: W
LayerCount: 2
Fore
SplineSet
128 128 m 1,0,-1
 0 128 l 1,1,-1
 0 384 l 1,2,-1
 128 384 l 1,3,-1
 128 512 l 1,4,-1
 256 512 l 1,5,-1
 256 384 l 1,6,-1
 384 384 l 1,7,-1
 384 256 l 1,8,-1
 128 256 l 1,9,-1
 128 128 l 1,0,-1
128 0 m 1,10,-1
 128 128 l 1,11,-1
 384 128 l 1,12,-1
 384 0 l 1,13,-1
 128 0 l 1,10,-1
EndSplineSet
EndChar

StartChar: uni2153
Encoding: 8531 8531 808
Width: 1280
GlyphClass: 1
Flags: W
LayerCount: 2
Fore
SplineSet
512 128 m 1,0,-1
 384 128 l 1,1,-1
 384 384 l 1,2,-1
 512 384 l 1,3,-1
 512 128 l 1,0,-1
256 128 m 1,4,-1
 128 128 l 1,5,-1
 128 384 l 1,6,-1
 0 384 l 1,7,-1
 0 512 l 1,8,-1
 128 512 l 1,9,-1
 128 640 l 1,10,-1
 256 640 l 1,11,-1
 256 128 l 1,4,-1
1024 128 m 1,12,-1
 1024 0 l 1,13,-1
 768 0 l 1,14,-1
 768 128 l 1,15,-1
 1024 128 l 1,12,-1
1152 128 m 1,16,-1
 1024 128 l 1,17,-1
 1024 256 l 1,18,-1
 1152 256 l 1,19,-1
 1152 128 l 1,16,-1
512 384 m 1,20,-1
 512 640 l 1,21,-1
 640 640 l 1,22,-1
 640 384 l 1,23,-1
 512 384 l 1,20,-1
768 384 m 1,24,-1
 768 512 l 1,25,-1
 1152 512 l 1,26,-1
 1152 384 l 1,27,-1
 1024 384 l 1,28,-1
 1024 256 l 1,29,-1
 896 256 l 1,30,-1
 896 384 l 1,31,-1
 768 384 l 1,24,-1
EndSplineSet
EndChar

StartChar: uni2154
Encoding: 8532 8532 809
Width: 1408
GlyphClass: 1
Flags: W
LayerCount: 2
Fore
SplineSet
640 128 m 1,0,-1
 512 128 l 1,1,-1
 512 384 l 1,2,-1
 640 384 l 1,3,-1
 640 128 l 1,0,-1
0 128 m 1,4,-1
 0 256 l 1,5,-1
 128 256 l 1,6,-1
 128 384 l 1,7,-1
 256 384 l 1,8,-1
 256 256 l 1,9,-1
 384 256 l 1,10,-1
 384 128 l 1,11,-1
 0 128 l 1,4,-1
1152 128 m 1,12,-1
 1152 0 l 1,13,-1
 896 0 l 1,14,-1
 896 128 l 1,15,-1
 1152 128 l 1,12,-1
1280 128 m 1,16,-1
 1152 128 l 1,17,-1
 1152 256 l 1,18,-1
 1280 256 l 1,19,-1
 1280 128 l 1,16,-1
640 384 m 1,20,-1
 640 640 l 1,21,-1
 768 640 l 1,22,-1
 768 384 l 1,23,-1
 640 384 l 1,20,-1
256 384 m 1,24,-1
 256 512 l 1,25,-1
 384 512 l 1,26,-1
 384 384 l 1,27,-1
 256 384 l 1,24,-1
896 384 m 1,28,-1
 896 512 l 1,29,-1
 1280 512 l 1,30,-1
 1280 384 l 1,31,-1
 1152 384 l 1,32,-1
 1152 256 l 1,33,-1
 1024 256 l 1,34,-1
 1024 384 l 1,35,-1
 896 384 l 1,28,-1
0 512 m 1,36,-1
 0 640 l 1,37,-1
 256 640 l 1,38,-1
 256 512 l 1,39,-1
 0 512 l 1,36,-1
EndSplineSet
EndChar

StartChar: arrowleft
Encoding: 8592 8592 810
Width: 768
GlyphClass: 1
Flags: W
LayerCount: 2
Fore
SplineSet
128 128 m 1,0,-1
 128 256 l 1,1,-1
 0 256 l 1,2,-1
 0 384 l 1,3,-1
 128 384 l 1,4,-1
 128 512 l 1,5,-1
 256 512 l 1,6,-1
 256 640 l 1,7,-1
 384 640 l 1,8,-1
 384 384 l 1,9,-1
 640 384 l 1,10,-1
 640 256 l 1,11,-1
 384 256 l 1,12,-1
 384 0 l 1,13,-1
 256 0 l 1,14,-1
 256 128 l 1,15,-1
 128 128 l 1,0,-1
EndSplineSet
EndChar

StartChar: arrowup
Encoding: 8593 8593 811
Width: 768
GlyphClass: 1
Flags: W
LayerCount: 2
Fore
SplineSet
384 0 m 1,0,-1
 256 0 l 1,1,-1
 256 256 l 1,2,-1
 0 256 l 1,3,-1
 0 384 l 1,4,-1
 128 384 l 1,5,-1
 128 512 l 1,6,-1
 256 512 l 1,7,-1
 256 640 l 1,8,-1
 384 640 l 1,9,-1
 384 512 l 1,10,-1
 512 512 l 1,11,-1
 512 384 l 1,12,-1
 640 384 l 1,13,-1
 640 256 l 1,14,-1
 384 256 l 1,15,-1
 384 0 l 1,0,-1
EndSplineSet
EndChar

StartChar: arrowright
Encoding: 8594 8594 812
Width: 768
GlyphClass: 1
Flags: W
LayerCount: 2
Fore
SplineSet
384 128 m 1,0,-1
 384 0 l 1,1,-1
 256 0 l 1,2,-1
 256 256 l 1,3,-1
 0 256 l 1,4,-1
 0 384 l 1,5,-1
 256 384 l 1,6,-1
 256 640 l 1,7,-1
 384 640 l 1,8,-1
 384 512 l 1,9,-1
 512 512 l 1,10,-1
 512 384 l 1,11,-1
 640 384 l 1,12,-1
 640 256 l 1,13,-1
 512 256 l 1,14,-1
 512 128 l 1,15,-1
 384 128 l 1,0,-1
EndSplineSet
EndChar

StartChar: arrowdown
Encoding: 8595 8595 813
Width: 768
GlyphClass: 1
Flags: W
LayerCount: 2
Fore
SplineSet
128 128 m 1,0,-1
 128 256 l 1,1,-1
 0 256 l 1,2,-1
 0 384 l 1,3,-1
 256 384 l 1,4,-1
 256 640 l 1,5,-1
 384 640 l 1,6,-1
 384 384 l 1,7,-1
 640 384 l 1,8,-1
 640 256 l 1,9,-1
 512 256 l 1,10,-1
 512 128 l 1,11,-1
 384 128 l 1,12,-1
 384 0 l 1,13,-1
 256 0 l 1,14,-1
 256 128 l 1,15,-1
 128 128 l 1,0,-1
EndSplineSet
EndChar

StartChar: arrowboth
Encoding: 8596 8596 814
Width: 1024
GlyphClass: 1
Flags: W
LayerCount: 2
Fore
SplineSet
640 128 m 1,0,-1
 640 0 l 1,1,-1
 512 0 l 1,2,-1
 512 256 l 1,3,-1
 384 256 l 1,4,-1
 384 0 l 1,5,-1
 256 0 l 1,6,-1
 256 128 l 1,7,-1
 128 128 l 1,8,-1
 128 256 l 1,9,-1
 0 256 l 1,10,-1
 0 384 l 1,11,-1
 128 384 l 1,12,-1
 128 512 l 1,13,-1
 256 512 l 1,14,-1
 256 640 l 1,15,-1
 384 640 l 1,16,-1
 384 384 l 1,17,-1
 512 384 l 1,18,-1
 512 640 l 1,19,-1
 640 640 l 1,20,-1
 640 512 l 1,21,-1
 768 512 l 1,22,-1
 768 384 l 1,23,-1
 896 384 l 1,24,-1
 896 256 l 1,25,-1
 768 256 l 1,26,-1
 768 128 l 1,27,-1
 640 128 l 1,0,-1
EndSplineSet
EndChar

StartChar: arrowupdn
Encoding: 8597 8597 815
Width: 768
GlyphClass: 1
Flags: W
LayerCount: 2
Fore
SplineSet
384 -128 m 1,0,-1
 256 -128 l 1,1,-1
 256 0 l 1,2,-1
 128 0 l 1,3,-1
 128 128 l 1,4,-1
 0 128 l 1,5,-1
 0 256 l 1,6,-1
 256 256 l 1,7,-1
 256 384 l 1,8,-1
 0 384 l 1,9,-1
 0 512 l 1,10,-1
 128 512 l 1,11,-1
 128 640 l 1,12,-1
 256 640 l 1,13,-1
 256 768 l 1,14,-1
 384 768 l 1,15,-1
 384 640 l 1,16,-1
 512 640 l 1,17,-1
 512 512 l 1,18,-1
 640 512 l 1,19,-1
 640 384 l 1,20,-1
 384 384 l 1,21,-1
 384 256 l 1,22,-1
 640 256 l 1,23,-1
 640 128 l 1,24,-1
 512 128 l 1,25,-1
 512 0 l 1,26,-1
 384 0 l 1,27,-1
 384 -128 l 1,0,-1
EndSplineSet
EndChar

StartChar: uni2196
Encoding: 8598 8598 816
Width: 768
GlyphClass: 1
Flags: W
LayerCount: 2
Fore
SplineSet
384 128 m 1,0,-1
 384 256 l 1,1,-1
 512 256 l 1,2,-1
 512 128 l 1,3,-1
 384 128 l 1,0,-1
512 128 m 1,4,-1
 640 128 l 1,5,-1
 640 0 l 1,6,-1
 512 0 l 1,7,-1
 512 128 l 1,4,-1
256 384 m 1,8,-1
 128 384 l 1,9,-1
 128 256 l 1,10,-1
 0 256 l 1,11,-1
 0 640 l 1,12,-1
 384 640 l 1,13,-1
 384 512 l 1,14,-1
 256 512 l 1,15,-1
 256 384 l 1,8,-1
256 256 m 1,16,-1
 256 384 l 1,17,-1
 384 384 l 1,18,-1
 384 256 l 1,19,-1
 256 256 l 1,16,-1
EndSplineSet
EndChar

StartChar: uni2197
Encoding: 8599 8599 817
Width: 768
GlyphClass: 1
Flags: W
LayerCount: 2
Fore
SplineSet
128 128 m 1,0,-1
 128 0 l 1,1,-1
 0 0 l 1,2,-1
 0 128 l 1,3,-1
 128 128 l 1,0,-1
256 128 m 1,4,-1
 128 128 l 1,5,-1
 128 256 l 1,6,-1
 256 256 l 1,7,-1
 256 128 l 1,4,-1
384 384 m 1,8,-1
 384 256 l 1,9,-1
 256 256 l 1,10,-1
 256 384 l 1,11,-1
 384 384 l 1,8,-1
512 384 m 1,12,-1
 384 384 l 1,13,-1
 384 512 l 1,14,-1
 256 512 l 1,15,-1
 256 640 l 1,16,-1
 640 640 l 1,17,-1
 640 256 l 1,18,-1
 512 256 l 1,19,-1
 512 384 l 1,12,-1
EndSplineSet
EndChar

StartChar: uni2198
Encoding: 8600 8600 818
Width: 768
GlyphClass: 1
Flags: W
LayerCount: 2
Fore
SplineSet
384 128 m 1,0,-1
 384 256 l 1,1,-1
 512 256 l 1,2,-1
 512 384 l 1,3,-1
 640 384 l 1,4,-1
 640 0 l 1,5,-1
 256 0 l 1,6,-1
 256 128 l 1,7,-1
 384 128 l 1,0,-1
128 384 m 1,8,-1
 128 512 l 1,9,-1
 256 512 l 1,10,-1
 256 384 l 1,11,-1
 128 384 l 1,8,-1
256 384 m 1,12,-1
 384 384 l 1,13,-1
 384 256 l 1,14,-1
 256 256 l 1,15,-1
 256 384 l 1,12,-1
0 512 m 1,16,-1
 0 640 l 1,17,-1
 128 640 l 1,18,-1
 128 512 l 1,19,-1
 0 512 l 1,16,-1
EndSplineSet
EndChar

StartChar: uni2199
Encoding: 8601 8601 819
Width: 768
GlyphClass: 1
Flags: W
LayerCount: 2
Fore
SplineSet
256 128 m 1,0,-1
 384 128 l 1,1,-1
 384 0 l 1,2,-1
 0 0 l 1,3,-1
 0 384 l 1,4,-1
 128 384 l 1,5,-1
 128 256 l 1,6,-1
 256 256 l 1,7,-1
 256 128 l 1,0,-1
384 384 m 1,8,-1
 384 256 l 1,9,-1
 256 256 l 1,10,-1
 256 384 l 1,11,-1
 384 384 l 1,8,-1
512 384 m 1,12,-1
 384 384 l 1,13,-1
 384 512 l 1,14,-1
 512 512 l 1,15,-1
 512 384 l 1,12,-1
512 512 m 1,16,-1
 512 640 l 1,17,-1
 640 640 l 1,18,-1
 640 512 l 1,19,-1
 512 512 l 1,16,-1
EndSplineSet
EndChar

StartChar: partialdiff
Encoding: 8706 8706 820
Width: 512
GlyphClass: 1
Flags: W
LayerCount: 2
Fore
SplineSet
0 128 m 1,0,-1
 0 256 l 1,1,-1
 128 256 l 1,2,-1
 128 128 l 1,3,-1
 0 128 l 1,0,-1
128 128 m 1,4,-1
 256 128 l 1,5,-1
 256 0 l 1,6,-1
 128 0 l 1,7,-1
 128 128 l 1,4,-1
256 128 m 1,8,-1
 256 256 l 1,9,-1
 128 256 l 1,10,-1
 128 384 l 1,11,-1
 256 384 l 1,12,-1
 256 512 l 1,13,-1
 384 512 l 1,14,-1
 384 128 l 1,15,-1
 256 128 l 1,8,-1
128 512 m 1,16,-1
 128 640 l 1,17,-1
 256 640 l 1,18,-1
 256 512 l 1,19,-1
 128 512 l 1,16,-1
EndSplineSet
EndChar

StartChar: uni2205
Encoding: 8709 8709 821
Width: 640
GlyphClass: 1
Flags: W
LayerCount: 2
Fore
SplineSet
128 128 m 1,0,-1
 0 128 l 1,1,-1
 0 512 l 1,2,-1
 128 512 l 1,3,-1
 128 384 l 1,4,-1
 256 384 l 1,5,-1
 256 256 l 1,6,-1
 128 256 l 1,7,-1
 128 128 l 1,0,-1
384 128 m 1,8,-1
 384 0 l 1,9,-1
 128 0 l 1,10,-1
 128 128 l 1,11,-1
 384 128 l 1,8,-1
512 128 m 1,12,-1
 384 128 l 1,13,-1
 384 384 l 1,14,-1
 256 384 l 1,15,-1
 256 512 l 1,16,-1
 128 512 l 1,17,-1
 128 640 l 1,18,-1
 384 640 l 1,19,-1
 384 512 l 1,20,-1
 512 512 l 1,21,-1
 512 128 l 1,12,-1
EndSplineSet
EndChar

StartChar: Delta
Encoding: 8710 8710 822
Width: 768
GlyphClass: 1
Flags: W
LayerCount: 2
Fore
SplineSet
512 128 m 1,0,-1
 640 128 l 1,1,-1
 640 0 l 1,2,-1
 0 0 l 1,3,-1
 0 128 l 1,4,-1
 128 128 l 1,5,-1
 128 384 l 1,6,-1
 256 384 l 1,7,-1
 256 128 l 1,8,-1
 384 128 l 1,9,-1
 384 384 l 1,10,-1
 512 384 l 1,11,-1
 512 128 l 1,0,-1
256 384 m 1,12,-1
 256 640 l 1,13,-1
 384 640 l 1,14,-1
 384 384 l 1,15,-1
 256 384 l 1,12,-1
EndSplineSet
EndChar

StartChar: product
Encoding: 8719 8719 823
Width: 640
GlyphClass: 1
Flags: W
LayerCount: 2
Fore
SplineSet
128 0 m 1,0,-1
 0 0 l 1,1,-1
 0 640 l 1,2,-1
 512 640 l 1,3,-1
 512 0 l 1,4,-1
 384 0 l 1,5,-1
 384 512 l 1,6,-1
 128 512 l 1,7,-1
 128 0 l 1,0,-1
EndSplineSet
EndChar

StartChar: summation
Encoding: 8721 8721 824
Width: 640
GlyphClass: 1
Flags: W
LayerCount: 2
Fore
SplineSet
512 128 m 1,0,-1
 512 0 l 1,1,-1
 0 0 l 1,2,-1
 0 128 l 1,3,-1
 128 128 l 1,4,-1
 128 256 l 1,5,-1
 256 256 l 1,6,-1
 256 128 l 1,7,-1
 512 128 l 1,0,-1
128 384 m 1,8,-1
 128 512 l 1,9,-1
 0 512 l 1,10,-1
 0 640 l 1,11,-1
 512 640 l 1,12,-1
 512 512 l 1,13,-1
 256 512 l 1,14,-1
 256 384 l 1,15,-1
 128 384 l 1,8,-1
256 384 m 1,16,-1
 384 384 l 1,17,-1
 384 256 l 1,18,-1
 256 256 l 1,19,-1
 256 384 l 1,16,-1
EndSplineSet
EndChar

StartChar: minus
Encoding: 8722 8722 825
Width: 384
GlyphClass: 1
Flags: W
LayerCount: 2
Fore
SplineSet
0 256 m 1,0,-1
 0 384 l 1,1,-1
 256 384 l 1,2,-1
 256 256 l 1,3,-1
 0 256 l 1,0,-1
EndSplineSet
EndChar

StartChar: radical
Encoding: 8730 8730 826
Width: 640
GlyphClass: 1
Flags: W
LayerCount: 2
Fore
SplineSet
0 128 m 1,0,-1
 0 256 l 1,1,-1
 128 256 l 1,2,-1
 128 640 l 1,3,-1
 512 640 l 1,4,-1
 512 512 l 1,5,-1
 256 512 l 1,6,-1
 256 0 l 1,7,-1
 128 0 l 1,8,-1
 128 128 l 1,9,-1
 0 128 l 1,0,-1
EndSplineSet
EndChar

StartChar: infinity
Encoding: 8734 8734 827
Width: 768
GlyphClass: 1
Flags: W
LayerCount: 2
Fore
SplineSet
128 128 m 1,0,-1
 128 256 l 1,1,-1
 256 256 l 1,2,-1
 256 128 l 1,3,-1
 128 128 l 1,0,-1
384 128 m 1,4,-1
 384 256 l 1,5,-1
 512 256 l 1,6,-1
 512 128 l 1,7,-1
 384 128 l 1,4,-1
512 384 m 1,8,-1
 384 384 l 1,9,-1
 384 512 l 1,10,-1
 512 512 l 1,11,-1
 512 384 l 1,8,-1
128 384 m 1,12,-1
 128 256 l 1,13,-1
 0 256 l 1,14,-1
 0 384 l 1,15,-1
 128 384 l 1,12,-1
256 384 m 1,16,-1
 128 384 l 1,17,-1
 128 512 l 1,18,-1
 256 512 l 1,19,-1
 256 384 l 1,16,-1
384 384 m 1,20,-1
 384 256 l 1,21,-1
 256 256 l 1,22,-1
 256 384 l 1,23,-1
 384 384 l 1,20,-1
640 384 m 1,24,-1
 640 256 l 1,25,-1
 512 256 l 1,26,-1
 512 384 l 1,27,-1
 640 384 l 1,24,-1
EndSplineSet
EndChar

StartChar: integral
Encoding: 8747 8747 828
Width: 512
GlyphClass: 1
Flags: W
LayerCount: 2
Fore
SplineSet
128 0 m 1,0,-1
 128 -128 l 1,1,-1
 0 -128 l 1,2,-1
 0 0 l 1,3,-1
 128 0 l 1,0,-1
256 0 m 1,4,-1
 128 0 l 1,5,-1
 128 640 l 1,6,-1
 256 640 l 1,7,-1
 256 0 l 1,4,-1
256 640 m 1,8,-1
 256 768 l 1,9,-1
 384 768 l 1,10,-1
 384 640 l 1,11,-1
 256 640 l 1,8,-1
EndSplineSet
EndChar

StartChar: approxequal
Encoding: 8776 8776 829
Width: 640
GlyphClass: 1
Flags: W
LayerCount: 2
Back
SplineSet
512 128 m 1,0,-1
 384 128 l 1,1,-1
 384 256 l 1,2,-1
 512 256 l 1,3,-1
 512 128 l 1,0,-1
128 128 m 1,4,-1
 128 0 l 1,5,-1
 0 0 l 1,6,-1
 0 128 l 1,7,-1
 128 128 l 1,4,-1
256 128 m 1,8,-1
 128 128 l 1,9,-1
 128 256 l 1,10,-1
 256 256 l 1,11,-1
 256 128 l 1,8,-1
384 128 m 1,12,-1
 384 0 l 1,13,-1
 256 0 l 1,14,-1
 256 128 l 1,15,-1
 384 128 l 1,12,-1
0 384 m 1,16,-1
 0 512 l 1,17,-1
 128 512 l 1,18,-1
 128 384 l 1,19,-1
 0 384 l 1,16,-1
256 384 m 1,20,-1
 256 512 l 1,21,-1
 384 512 l 1,22,-1
 384 384 l 1,23,-1
 256 384 l 1,20,-1
512 640 m 1,24,-1
 512 512 l 1,25,-1
 384 512 l 1,26,-1
 384 640 l 1,27,-1
 512 640 l 1,24,-1
128 512 m 1,28,-1
 128 640 l 1,29,-1
 256 640 l 1,30,-1
 256 512 l 1,31,-1
 128 512 l 1,28,-1
EndSplineSet
Fore
SplineSet
512 128 m 1,0,-1
 384 128 l 1,1,-1
 384 256 l 1,2,-1
 512 256 l 1,3,-1
 512 128 l 1,0,-1
128 128 m 1,4,-1
 128 0 l 1,5,-1
 0 0 l 1,6,-1
 0 128 l 1,7,-1
 128 128 l 1,4,-1
256 128 m 1,8,-1
 128 128 l 1,9,-1
 128 256 l 1,10,-1
 256 256 l 1,11,-1
 256 128 l 1,8,-1
384 128 m 1,12,-1
 384 0 l 1,13,-1
 256 0 l 1,14,-1
 256 128 l 1,15,-1
 384 128 l 1,12,-1
0 384 m 1,16,-1
 0 512 l 1,17,-1
 128 512 l 1,18,-1
 128 384 l 1,19,-1
 0 384 l 1,16,-1
256 384 m 1,20,-1
 256 512 l 1,21,-1
 384 512 l 1,22,-1
 384 384 l 1,23,-1
 256 384 l 1,20,-1
512 640 m 1,24,-1
 512 512 l 1,25,-1
 384 512 l 1,26,-1
 384 640 l 1,27,-1
 512 640 l 1,24,-1
128 512 m 1,28,-1
 128 640 l 1,29,-1
 256 640 l 1,30,-1
 256 512 l 1,31,-1
 128 512 l 1,28,-1
EndSplineSet
EndChar

StartChar: notequal
Encoding: 8800 8800 830
Width: 512
GlyphClass: 1
Flags: W
LayerCount: 2
Back
SplineSet
128 128 m 1,0,-1
 128 0 l 1,1,-1
 0 0 l 1,2,-1
 0 256 l 1,3,-1
 128 256 l 1,4,-1
 128 384 l 1,5,-1
 0 384 l 1,6,-1
 0 512 l 1,7,-1
 256 512 l 1,8,-1
 256 640 l 1,9,-1
 384 640 l 1,10,-1
 384 384 l 1,11,-1
 256 384 l 1,12,-1
 256 256 l 1,13,-1
 384 256 l 1,14,-1
 384 128 l 1,15,-1
 128 128 l 1,0,-1
EndSplineSet
Fore
SplineSet
128 128 m 1,0,-1
 128 0 l 1,1,-1
 0 0 l 1,2,-1
 0 256 l 1,3,-1
 128 256 l 1,4,-1
 128 384 l 1,5,-1
 0 384 l 1,6,-1
 0 512 l 1,7,-1
 256 512 l 1,8,-1
 256 640 l 1,9,-1
 384 640 l 1,10,-1
 384 384 l 1,11,-1
 256 384 l 1,12,-1
 256 256 l 1,13,-1
 384 256 l 1,14,-1
 384 128 l 1,15,-1
 128 128 l 1,0,-1
EndSplineSet
EndChar

StartChar: lessequal
Encoding: 8804 8804 831
Width: 512
GlyphClass: 1
Flags: W
LayerCount: 2
Back
SplineSet
0 -128 m 1,0,-1
 0 0 l 1,1,-1
 384 0 l 1,2,-1
 384 -128 l 1,3,-1
 0 -128 l 1,0,-1
256 128 m 1,4,-1
 256 256 l 1,5,-1
 384 256 l 1,6,-1
 384 128 l 1,7,-1
 256 128 l 1,4,-1
0 384 m 1,8,-1
 0 512 l 1,9,-1
 128 512 l 1,10,-1
 128 384 l 1,11,-1
 0 384 l 1,8,-1
128 384 m 1,12,-1
 256 384 l 1,13,-1
 256 256 l 1,14,-1
 128 256 l 1,15,-1
 128 384 l 1,12,-1
256 640 m 1,16,-1
 256 512 l 1,17,-1
 128 512 l 1,18,-1
 128 640 l 1,19,-1
 256 640 l 1,16,-1
384 640 m 1,20,-1
 256 640 l 1,21,-1
 256 768 l 1,22,-1
 384 768 l 1,23,-1
 384 640 l 1,20,-1
EndSplineSet
Fore
SplineSet
0 -128 m 1,0,-1
 0 0 l 1,1,-1
 384 0 l 1,2,-1
 384 -128 l 1,3,-1
 0 -128 l 1,0,-1
256 128 m 1,4,-1
 256 256 l 1,5,-1
 384 256 l 1,6,-1
 384 128 l 1,7,-1
 256 128 l 1,4,-1
0 384 m 1,8,-1
 0 512 l 1,9,-1
 128 512 l 1,10,-1
 128 384 l 1,11,-1
 0 384 l 1,8,-1
128 384 m 1,12,-1
 256 384 l 1,13,-1
 256 256 l 1,14,-1
 128 256 l 1,15,-1
 128 384 l 1,12,-1
256 640 m 1,16,-1
 256 512 l 1,17,-1
 128 512 l 1,18,-1
 128 640 l 1,19,-1
 256 640 l 1,16,-1
384 640 m 1,20,-1
 256 640 l 1,21,-1
 256 768 l 1,22,-1
 384 768 l 1,23,-1
 384 640 l 1,20,-1
EndSplineSet
EndChar

StartChar: greaterequal
Encoding: 8805 8805 832
Width: 512
GlyphClass: 1
Flags: W
LayerCount: 2
Back
SplineSet
0 -128 m 1,0,-1
 0 0 l 1,1,-1
 384 0 l 1,2,-1
 384 -128 l 1,3,-1
 0 -128 l 1,0,-1
0 128 m 1,4,-1
 0 256 l 1,5,-1
 128 256 l 1,6,-1
 128 128 l 1,7,-1
 0 128 l 1,4,-1
256 384 m 1,8,-1
 256 256 l 1,9,-1
 128 256 l 1,10,-1
 128 384 l 1,11,-1
 256 384 l 1,8,-1
384 384 m 1,12,-1
 256 384 l 1,13,-1
 256 512 l 1,14,-1
 384 512 l 1,15,-1
 384 384 l 1,12,-1
0 640 m 1,16,-1
 0 768 l 1,17,-1
 128 768 l 1,18,-1
 128 640 l 1,19,-1
 0 640 l 1,16,-1
128 640 m 1,20,-1
 256 640 l 1,21,-1
 256 512 l 1,22,-1
 128 512 l 1,23,-1
 128 640 l 1,20,-1
EndSplineSet
Fore
SplineSet
0 -128 m 1,0,-1
 0 0 l 1,1,-1
 384 0 l 1,2,-1
 384 -128 l 1,3,-1
 0 -128 l 1,0,-1
0 128 m 1,4,-1
 0 256 l 1,5,-1
 128 256 l 1,6,-1
 128 128 l 1,7,-1
 0 128 l 1,4,-1
256 384 m 1,8,-1
 256 256 l 1,9,-1
 128 256 l 1,10,-1
 128 384 l 1,11,-1
 256 384 l 1,8,-1
384 384 m 1,12,-1
 256 384 l 1,13,-1
 256 512 l 1,14,-1
 384 512 l 1,15,-1
 384 384 l 1,12,-1
0 640 m 1,16,-1
 0 768 l 1,17,-1
 128 768 l 1,18,-1
 128 640 l 1,19,-1
 0 640 l 1,16,-1
128 640 m 1,20,-1
 256 640 l 1,21,-1
 256 512 l 1,22,-1
 128 512 l 1,23,-1
 128 640 l 1,20,-1
EndSplineSet
EndChar

StartChar: filledbox
Encoding: 9632 9632 833
Width: 512
GlyphClass: 1
Flags: W
LayerCount: 2
Fore
SplineSet
0 128 m 1,0,-1
 0 512 l 1,1,-1
 384 512 l 1,2,-1
 384 128 l 1,3,-1
 0 128 l 1,0,-1
EndSplineSet
EndChar

StartChar: H22073
Encoding: 9633 9633 834
Width: 512
GlyphClass: 1
Flags: W
LayerCount: 2
Fore
SplineSet
0 128 m 1,0,-1
 0 512 l 1,1,-1
 384 512 l 1,2,-1
 384 128 l 1,3,-1
 0 128 l 1,0,-1
128 384 m 1,4,-1
 128 256 l 1,5,-1
 256 256 l 1,6,-1
 256 384 l 1,7,-1
 128 384 l 1,4,-1
EndSplineSet
EndChar

StartChar: H18543
Encoding: 9642 9642 835
Width: 384
GlyphClass: 1
Flags: W
LayerCount: 2
Fore
SplineSet
0 256 m 1,0,-1
 0 512 l 1,1,-1
 256 512 l 1,2,-1
 256 256 l 1,3,-1
 0 256 l 1,0,-1
EndSplineSet
EndChar

StartChar: H18551
Encoding: 9643 9643 836
Width: 384
GlyphClass: 1
Flags: W
LayerCount: 2
Fore
SplineSet
0 256 m 1,0,-1
 0 512 l 1,1,-1
 256 512 l 1,2,-1
 256 256 l 1,3,-1
 0 256 l 1,0,-1
EndSplineSet
EndChar

StartChar: triagup
Encoding: 9650 9650 837
Width: 768
GlyphClass: 1
Flags: W
LayerCount: 2
Fore
SplineSet
512 384 m 1,0,-1
 640 384 l 1,1,-1
 640 256 l 1,2,-1
 0 256 l 1,3,-1
 0 384 l 1,4,-1
 128 384 l 1,5,-1
 128 512 l 1,6,-1
 256 512 l 1,7,-1
 256 640 l 1,8,-1
 384 640 l 1,9,-1
 384 512 l 1,10,-1
 512 512 l 1,11,-1
 512 384 l 1,0,-1
EndSplineSet
EndChar

StartChar: uni25B3
Encoding: 9651 9651 838
Width: 768
GlyphClass: 1
Flags: W
LayerCount: 2
Fore
SplineSet
512 384 m 1,0,-1
 640 384 l 1,1,-1
 640 256 l 1,2,-1
 0 256 l 1,3,-1
 0 384 l 1,4,-1
 128 384 l 1,5,-1
 128 512 l 1,6,-1
 256 512 l 1,7,-1
 256 384 l 1,8,-1
 384 384 l 1,9,-1
 384 512 l 1,10,-1
 512 512 l 1,11,-1
 512 384 l 1,0,-1
256 512 m 1,12,-1
 256 640 l 1,13,-1
 384 640 l 1,14,-1
 384 512 l 1,15,-1
 256 512 l 1,12,-1
EndSplineSet
EndChar

StartChar: uni25B4
Encoding: 9652 9652 839
Width: 512
GlyphClass: 1
Flags: W
LayerCount: 2
Fore
SplineSet
128 384 m 1,0,-1
 128 512 l 1,1,-1
 256 512 l 1,2,-1
 256 384 l 1,3,-1
 384 384 l 1,4,-1
 384 256 l 1,5,-1
 0 256 l 1,6,-1
 0 384 l 1,7,-1
 128 384 l 1,0,-1
EndSplineSet
EndChar

StartChar: uni25B5
Encoding: 9653 9653 840
Width: 512
GlyphClass: 1
Flags: W
LayerCount: 2
Fore
SplineSet
128 384 m 1,0,-1
 128 256 l 1,1,-1
 0 256 l 1,2,-1
 0 384 l 1,3,-1
 128 384 l 1,0,-1
256 384 m 1,4,-1
 128 384 l 1,5,-1
 128 512 l 1,6,-1
 256 512 l 1,7,-1
 256 384 l 1,4,-1
256 256 m 1,8,-1
 256 384 l 1,9,-1
 384 384 l 1,10,-1
 384 256 l 1,11,-1
 256 256 l 1,8,-1
EndSplineSet
EndChar

StartChar: uni25B6
Encoding: 9654 9654 841
Width: 512
GlyphClass: 1
Flags: W
LayerCount: 2
Fore
SplineSet
128 128 m 1,0,-1
 128 0 l 1,1,-1
 0 0 l 1,2,-1
 0 640 l 1,3,-1
 128 640 l 1,4,-1
 128 512 l 1,5,-1
 256 512 l 1,6,-1
 256 384 l 1,7,-1
 384 384 l 1,8,-1
 384 256 l 1,9,-1
 256 256 l 1,10,-1
 256 128 l 1,11,-1
 128 128 l 1,0,-1
EndSplineSet
EndChar

StartChar: uni25B7
Encoding: 9655 9655 842
Width: 512
GlyphClass: 1
Flags: W
LayerCount: 2
Fore
SplineSet
128 128 m 1,0,-1
 128 0 l 1,1,-1
 0 0 l 1,2,-1
 0 640 l 1,3,-1
 128 640 l 1,4,-1
 128 512 l 1,5,-1
 256 512 l 1,6,-1
 256 384 l 1,7,-1
 128 384 l 1,8,-1
 128 256 l 1,9,-1
 256 256 l 1,10,-1
 256 128 l 1,11,-1
 128 128 l 1,0,-1
256 384 m 1,12,-1
 384 384 l 1,13,-1
 384 256 l 1,14,-1
 256 256 l 1,15,-1
 256 384 l 1,12,-1
EndSplineSet
EndChar

StartChar: uni25B8
Encoding: 9656 9656 843
Width: 384
GlyphClass: 1
Flags: W
LayerCount: 2
Fore
SplineSet
128 128 m 1,0,-1
 0 128 l 1,1,-1
 0 512 l 1,2,-1
 128 512 l 1,3,-1
 128 384 l 1,4,-1
 256 384 l 1,5,-1
 256 256 l 1,6,-1
 128 256 l 1,7,-1
 128 128 l 1,0,-1
EndSplineSet
EndChar

StartChar: uni25B9
Encoding: 9657 9657 844
Width: 384
GlyphClass: 1
Flags: W
LayerCount: 2
Fore
SplineSet
0 128 m 1,0,-1
 0 256 l 1,1,-1
 128 256 l 1,2,-1
 128 128 l 1,3,-1
 0 128 l 1,0,-1
0 384 m 1,4,-1
 0 512 l 1,5,-1
 128 512 l 1,6,-1
 128 384 l 1,7,-1
 0 384 l 1,4,-1
128 384 m 1,8,-1
 256 384 l 1,9,-1
 256 256 l 1,10,-1
 128 256 l 1,11,-1
 128 384 l 1,8,-1
EndSplineSet
EndChar

StartChar: triagrt
Encoding: 9658 9658 845
Width: 768
GlyphClass: 1
Flags: W
LayerCount: 2
Fore
SplineSet
128 128 m 1,0,-1
 128 0 l 1,1,-1
 0 0 l 1,2,-1
 0 640 l 1,3,-1
 128 640 l 1,4,-1
 128 512 l 1,5,-1
 384 512 l 1,6,-1
 384 384 l 1,7,-1
 640 384 l 1,8,-1
 640 256 l 1,9,-1
 384 256 l 1,10,-1
 384 128 l 1,11,-1
 128 128 l 1,0,-1
EndSplineSet
EndChar

StartChar: uni25BB
Encoding: 9659 9659 846
Width: 768
GlyphClass: 1
Flags: W
LayerCount: 2
Fore
SplineSet
128 128 m 1,0,-1
 128 0 l 1,1,-1
 0 0 l 1,2,-1
 0 640 l 1,3,-1
 128 640 l 1,4,-1
 128 512 l 1,5,-1
 384 512 l 1,6,-1
 384 384 l 1,7,-1
 128 384 l 1,8,-1
 128 256 l 1,9,-1
 384 256 l 1,10,-1
 384 128 l 1,11,-1
 128 128 l 1,0,-1
384 384 m 1,12,-1
 640 384 l 1,13,-1
 640 256 l 1,14,-1
 384 256 l 1,15,-1
 384 384 l 1,12,-1
EndSplineSet
EndChar

StartChar: triagdn
Encoding: 9660 9660 847
Width: 768
GlyphClass: 1
Flags: W
LayerCount: 2
Fore
SplineSet
256 128 m 1,0,-1
 256 256 l 1,1,-1
 128 256 l 1,2,-1
 128 384 l 1,3,-1
 0 384 l 1,4,-1
 0 512 l 1,5,-1
 640 512 l 1,6,-1
 640 384 l 1,7,-1
 512 384 l 1,8,-1
 512 256 l 1,9,-1
 384 256 l 1,10,-1
 384 128 l 1,11,-1
 256 128 l 1,0,-1
EndSplineSet
EndChar

StartChar: uni25BD
Encoding: 9661 9661 848
Width: 768
GlyphClass: 1
Flags: W
LayerCount: 2
Fore
SplineSet
256 128 m 1,0,-1
 256 256 l 1,1,-1
 384 256 l 1,2,-1
 384 128 l 1,3,-1
 256 128 l 1,0,-1
384 384 m 1,4,-1
 256 384 l 1,5,-1
 256 256 l 1,6,-1
 128 256 l 1,7,-1
 128 384 l 1,8,-1
 0 384 l 1,9,-1
 0 512 l 1,10,-1
 640 512 l 1,11,-1
 640 384 l 1,12,-1
 512 384 l 1,13,-1
 512 256 l 1,14,-1
 384 256 l 1,15,-1
 384 384 l 1,4,-1
EndSplineSet
EndChar

StartChar: uni25BE
Encoding: 9662 9662 849
Width: 512
GlyphClass: 1
Flags: W
LayerCount: 2
Fore
SplineSet
0 384 m 1,0,-1
 0 512 l 1,1,-1
 384 512 l 1,2,-1
 384 384 l 1,3,-1
 256 384 l 1,4,-1
 256 256 l 1,5,-1
 128 256 l 1,6,-1
 128 384 l 1,7,-1
 0 384 l 1,0,-1
EndSplineSet
EndChar

StartChar: uni25BF
Encoding: 9663 9663 850
Width: 512
GlyphClass: 1
Flags: W
LayerCount: 2
Fore
SplineSet
0 384 m 1,0,-1
 0 512 l 1,1,-1
 128 512 l 1,2,-1
 128 384 l 1,3,-1
 0 384 l 1,0,-1
128 384 m 1,4,-1
 256 384 l 1,5,-1
 256 256 l 1,6,-1
 128 256 l 1,7,-1
 128 384 l 1,4,-1
256 384 m 1,8,-1
 256 512 l 1,9,-1
 384 512 l 1,10,-1
 384 384 l 1,11,-1
 256 384 l 1,8,-1
EndSplineSet
EndChar

StartChar: uni25C0
Encoding: 9664 9664 851
Width: 512
GlyphClass: 1
Flags: W
LayerCount: 2
Fore
SplineSet
128 128 m 1,0,-1
 128 256 l 1,1,-1
 0 256 l 1,2,-1
 0 384 l 1,3,-1
 128 384 l 1,4,-1
 128 512 l 1,5,-1
 256 512 l 1,6,-1
 256 640 l 1,7,-1
 384 640 l 1,8,-1
 384 0 l 1,9,-1
 256 0 l 1,10,-1
 256 128 l 1,11,-1
 128 128 l 1,0,-1
EndSplineSet
EndChar

StartChar: uni25C1
Encoding: 9665 9665 852
Width: 512
GlyphClass: 1
Flags: W
LayerCount: 2
Fore
SplineSet
128 128 m 1,0,-1
 128 256 l 1,1,-1
 256 256 l 1,2,-1
 256 384 l 1,3,-1
 128 384 l 1,4,-1
 128 512 l 1,5,-1
 256 512 l 1,6,-1
 256 640 l 1,7,-1
 384 640 l 1,8,-1
 384 0 l 1,9,-1
 256 0 l 1,10,-1
 256 128 l 1,11,-1
 128 128 l 1,0,-1
128 384 m 1,12,-1
 128 256 l 1,13,-1
 0 256 l 1,14,-1
 0 384 l 1,15,-1
 128 384 l 1,12,-1
EndSplineSet
EndChar

StartChar: uni25C2
Encoding: 9666 9666 853
Width: 384
GlyphClass: 1
Flags: W
LayerCount: 2
Fore
SplineSet
128 128 m 1,0,-1
 128 256 l 1,1,-1
 0 256 l 1,2,-1
 0 384 l 1,3,-1
 128 384 l 1,4,-1
 128 512 l 1,5,-1
 256 512 l 1,6,-1
 256 128 l 1,7,-1
 128 128 l 1,0,-1
EndSplineSet
EndChar

StartChar: uni25C3
Encoding: 9667 9667 854
Width: 384
GlyphClass: 1
Flags: W
LayerCount: 2
Fore
SplineSet
128 128 m 1,0,-1
 128 256 l 1,1,-1
 256 256 l 1,2,-1
 256 128 l 1,3,-1
 128 128 l 1,0,-1
128 384 m 1,4,-1
 128 256 l 1,5,-1
 0 256 l 1,6,-1
 0 384 l 1,7,-1
 128 384 l 1,4,-1
256 384 m 1,8,-1
 128 384 l 1,9,-1
 128 512 l 1,10,-1
 256 512 l 1,11,-1
 256 384 l 1,8,-1
EndSplineSet
EndChar

StartChar: triaglf
Encoding: 9668 9668 855
Width: 768
GlyphClass: 1
Flags: W
LayerCount: 2
Fore
SplineSet
256 128 m 1,0,-1
 256 256 l 1,1,-1
 0 256 l 1,2,-1
 0 384 l 1,3,-1
 256 384 l 1,4,-1
 256 512 l 1,5,-1
 512 512 l 1,6,-1
 512 640 l 1,7,-1
 640 640 l 1,8,-1
 640 0 l 1,9,-1
 512 0 l 1,10,-1
 512 128 l 1,11,-1
 256 128 l 1,0,-1
EndSplineSet
EndChar

StartChar: uni25C5
Encoding: 9669 9669 856
Width: 768
GlyphClass: 1
Flags: W
LayerCount: 2
Fore
SplineSet
256 128 m 1,0,-1
 256 256 l 1,1,-1
 512 256 l 1,2,-1
 512 384 l 1,3,-1
 256 384 l 1,4,-1
 256 512 l 1,5,-1
 512 512 l 1,6,-1
 512 640 l 1,7,-1
 640 640 l 1,8,-1
 640 0 l 1,9,-1
 512 0 l 1,10,-1
 512 128 l 1,11,-1
 256 128 l 1,0,-1
0 256 m 1,12,-1
 0 384 l 1,13,-1
 256 384 l 1,14,-1
 256 256 l 1,15,-1
 0 256 l 1,12,-1
EndSplineSet
EndChar

StartChar: uni25C6
Encoding: 9670 9670 857
Width: 768
GlyphClass: 1
Flags: W
LayerCount: 2
Fore
SplineSet
128 128 m 1,0,-1
 128 256 l 1,1,-1
 0 256 l 1,2,-1
 0 384 l 1,3,-1
 128 384 l 1,4,-1
 128 512 l 1,5,-1
 256 512 l 1,6,-1
 256 640 l 1,7,-1
 384 640 l 1,8,-1
 384 512 l 1,9,-1
 512 512 l 1,10,-1
 512 384 l 1,11,-1
 640 384 l 1,12,-1
 640 256 l 1,13,-1
 512 256 l 1,14,-1
 512 128 l 1,15,-1
 384 128 l 1,16,-1
 384 0 l 1,17,-1
 256 0 l 1,18,-1
 256 128 l 1,19,-1
 128 128 l 1,0,-1
EndSplineSet
EndChar

StartChar: uni25C7
Encoding: 9671 9671 858
Width: 768
GlyphClass: 1
Flags: W
LayerCount: 2
Fore
SplineSet
128 128 m 1,0,-1
 128 256 l 1,1,-1
 256 256 l 1,2,-1
 256 128 l 1,3,-1
 128 128 l 1,0,-1
256 128 m 1,4,-1
 384 128 l 1,5,-1
 384 0 l 1,6,-1
 256 0 l 1,7,-1
 256 128 l 1,4,-1
384 128 m 1,8,-1
 384 256 l 1,9,-1
 512 256 l 1,10,-1
 512 128 l 1,11,-1
 384 128 l 1,8,-1
512 384 m 1,12,-1
 384 384 l 1,13,-1
 384 512 l 1,14,-1
 512 512 l 1,15,-1
 512 384 l 1,12,-1
128 384 m 1,16,-1
 128 256 l 1,17,-1
 0 256 l 1,18,-1
 0 384 l 1,19,-1
 128 384 l 1,16,-1
256 384 m 1,20,-1
 128 384 l 1,21,-1
 128 512 l 1,22,-1
 256 512 l 1,23,-1
 256 384 l 1,20,-1
640 384 m 1,24,-1
 640 256 l 1,25,-1
 512 256 l 1,26,-1
 512 384 l 1,27,-1
 640 384 l 1,24,-1
256 512 m 1,28,-1
 256 640 l 1,29,-1
 384 640 l 1,30,-1
 384 512 l 1,31,-1
 256 512 l 1,28,-1
EndSplineSet
EndChar

StartChar: lozenge
Encoding: 9674 9674 859
Width: 768
GlyphClass: 1
Flags: W
LayerCount: 2
Fore
SplineSet
128 128 m 1,0,-1
 128 256 l 1,1,-1
 256 256 l 1,2,-1
 256 128 l 1,3,-1
 128 128 l 1,0,-1
256 128 m 1,4,-1
 384 128 l 1,5,-1
 384 0 l 1,6,-1
 256 0 l 1,7,-1
 256 128 l 1,4,-1
384 128 m 1,8,-1
 384 256 l 1,9,-1
 512 256 l 1,10,-1
 512 128 l 1,11,-1
 384 128 l 1,8,-1
512 384 m 1,12,-1
 384 384 l 1,13,-1
 384 512 l 1,14,-1
 512 512 l 1,15,-1
 512 384 l 1,12,-1
128 384 m 1,16,-1
 128 256 l 1,17,-1
 0 256 l 1,18,-1
 0 384 l 1,19,-1
 128 384 l 1,16,-1
256 384 m 1,20,-1
 128 384 l 1,21,-1
 128 512 l 1,22,-1
 256 512 l 1,23,-1
 256 384 l 1,20,-1
640 384 m 1,24,-1
 640 256 l 1,25,-1
 512 256 l 1,26,-1
 512 384 l 1,27,-1
 640 384 l 1,24,-1
256 512 m 1,28,-1
 256 640 l 1,29,-1
 384 640 l 1,30,-1
 384 512 l 1,31,-1
 256 512 l 1,28,-1
EndSplineSet
EndChar

StartChar: circle
Encoding: 9675 9675 860
Width: 640
GlyphClass: 1
Flags: W
LayerCount: 2
Fore
SplineSet
128 128 m 1,0,-1
 128 256 l 1,1,-1
 384 256 l 1,2,-1
 384 128 l 1,3,-1
 128 128 l 1,0,-1
128 256 m 1,4,-1
 0 256 l 1,5,-1
 0 512 l 1,6,-1
 128 512 l 1,7,-1
 128 256 l 1,4,-1
384 256 m 1,8,-1
 384 512 l 1,9,-1
 512 512 l 1,10,-1
 512 256 l 1,11,-1
 384 256 l 1,8,-1
128 512 m 1,12,-1
 128 640 l 1,13,-1
 384 640 l 1,14,-1
 384 512 l 1,15,-1
 128 512 l 1,12,-1
EndSplineSet
EndChar

StartChar: H18533
Encoding: 9679 9679 861
Width: 640
GlyphClass: 1
Flags: W
LayerCount: 2
Fore
SplineSet
128 128 m 1,0,-1
 128 256 l 1,1,-1
 0 256 l 1,2,-1
 0 512 l 1,3,-1
 128 512 l 1,4,-1
 128 640 l 1,5,-1
 384 640 l 1,6,-1
 384 512 l 1,7,-1
 512 512 l 1,8,-1
 512 256 l 1,9,-1
 384 256 l 1,10,-1
 384 128 l 1,11,-1
 128 128 l 1,0,-1
EndSplineSet
EndChar

StartChar: openbullet
Encoding: 9702 9702 862
Width: 384
GlyphClass: 1
Flags: W
LayerCount: 2
Fore
SplineSet
0 256 m 1,0,-1
 0 512 l 1,1,-1
 256 512 l 1,2,-1
 256 256 l 1,3,-1
 0 256 l 1,0,-1
EndSplineSet
EndChar

StartChar: uni27E8
Encoding: 10216 10216 863
Width: 384
GlyphClass: 1
Flags: W
LayerCount: 2
Fore
SplineSet
256 0 m 1,0,-1
 128 0 l 1,1,-1
 128 256 l 1,2,-1
 256 256 l 1,3,-1
 256 0 l 1,0,-1
128 384 m 1,4,-1
 128 256 l 1,5,-1
 0 256 l 1,6,-1
 0 384 l 1,7,-1
 128 384 l 1,4,-1
256 384 m 1,8,-1
 128 384 l 1,9,-1
 128 640 l 1,10,-1
 256 640 l 1,11,-1
 256 384 l 1,8,-1
EndSplineSet
EndChar

StartChar: uni27E9
Encoding: 10217 10217 864
Width: 384
GlyphClass: 1
Flags: W
LayerCount: 2
Fore
SplineSet
128 0 m 1,0,-1
 0 0 l 1,1,-1
 0 256 l 1,2,-1
 128 256 l 1,3,-1
 128 0 l 1,0,-1
128 384 m 1,4,-1
 0 384 l 1,5,-1
 0 640 l 1,6,-1
 128 640 l 1,7,-1
 128 384 l 1,4,-1
128 256 m 1,8,-1
 128 384 l 1,9,-1
 256 384 l 1,10,-1
 256 256 l 1,11,-1
 128 256 l 1,8,-1
EndSplineSet
EndChar

